%TF.GenerationSoftware,KiCad,Pcbnew,10.0.3*%
%TF.CreationDate,2026-08-07T02:41:41+08:00*%
%TF.ProjectId,vertex mk4,76657274-6578-4206-9d6b-342e6b696361,4.4*%
%TF.SameCoordinates,PX88601c0PY87fe740*%
%TF.FileFunction,Copper,L4,Bot*%
%TF.FilePolarity,Positive*%
%FSLAX46Y46*%
G04 Gerber Fmt 4.6, Leading zero omitted, Abs format (unit mm)*
G04 Created by KiCad (PCBNEW 10.0.3) date 2026-08-07 02:41:41*
%MOMM*%
%LPD*%
G01*
G04 APERTURE LIST*
%TA.AperFunction,ComponentPad*%
%ADD10R,0.850000X0.850000*%
%TD*%
%TA.AperFunction,ComponentPad*%
%ADD11C,0.850000*%
%TD*%
%TA.AperFunction,ComponentPad*%
%ADD12C,0.700000*%
%TD*%
%TA.AperFunction,ComponentPad*%
%ADD13O,0.900000X2.400000*%
%TD*%
%TA.AperFunction,ComponentPad*%
%ADD14O,0.900000X1.700000*%
%TD*%
%TA.AperFunction,ViaPad*%
%ADD15C,0.600000*%
%TD*%
%TA.AperFunction,Conductor*%
%ADD16C,0.200000*%
%TD*%
%TA.AperFunction,Conductor*%
%ADD17C,0.500000*%
%TD*%
%TA.AperFunction,Conductor*%
%ADD18C,0.150000*%
%TD*%
%TA.AperFunction,Conductor*%
%ADD19C,0.300000*%
%TD*%
G04 APERTURE END LIST*
D10*
%TO.P,J9,1,Pin_1_1*%
%TO.N,3V3*%
X-58449000Y55299000D03*
D11*
%TO.P,J9,2,Pin_2_2*%
%TO.N,GND*%
X-59449000Y55299000D03*
%TD*%
D10*
%TO.P,J8,1,Pin_1_1*%
%TO.N,3V3*%
X-60449000Y33499000D03*
D11*
%TO.P,J8,2,Pin_2_2*%
%TO.N,GND*%
X-61449000Y33499000D03*
%TD*%
D10*
%TO.P,J6,1,Pin_1_1*%
%TO.N,33*%
X-56249000Y54299000D03*
D11*
%TO.P,J6,2,Pin_2_2*%
%TO.N,34*%
X-56249000Y53299000D03*
%TO.P,J6,3,Pin_3_3*%
%TO.N,35*%
X-56249000Y52299000D03*
%TO.P,J6,4,Pin_4_4*%
%TO.N,36*%
X-56249000Y51299000D03*
%TO.P,J6,5,Pin_5_5*%
%TO.N,30*%
X-56249000Y50299000D03*
%TO.P,J6,6,Pin_6_6*%
%TO.N,29*%
X-56249000Y49299000D03*
%TO.P,J6,7,Pin_7_7*%
%TO.N,28*%
X-56249000Y48299000D03*
%TO.P,J6,8,Pin_8_8*%
%TO.N,27*%
X-56249000Y47299000D03*
%TO.P,J6,9,Pin_9_9*%
%TO.N,26*%
X-56249000Y46299000D03*
%TO.P,J6,10,Pin_10_10*%
%TO.N,25*%
X-56249000Y45299000D03*
%TO.P,J6,11,Pin_11_11*%
%TO.N,24*%
X-56249000Y44299000D03*
%TO.P,J6,12,Pin_12_12*%
%TO.N,23*%
X-56249000Y43299000D03*
%TO.P,J6,13,Pin_13_13*%
%TO.N,22*%
X-56249000Y42299000D03*
%TO.P,J6,14,Pin_14_14*%
%TO.N,21*%
X-56249000Y41299000D03*
%TO.P,J6,15,Pin_15_15*%
%TO.N,20*%
X-56249000Y40299000D03*
%TO.P,J6,16,Pin_16_16*%
%TO.N,17*%
X-56249000Y39299000D03*
%TO.P,J6,17,Pin_17_17*%
%TO.N,Recep Control*%
X-56249000Y38299000D03*
%TO.P,J6,18,Pin_18_18*%
%TO.N,UART RX*%
X-56249000Y37299000D03*
%TO.P,J6,19,Pin_19_19*%
%TO.N,UART TX*%
X-56249000Y36299000D03*
%TO.P,J6,20,Pin_20_20*%
%TO.N,11*%
X-56249000Y35299000D03*
%TO.P,J6,21,Pin_21_21*%
%TO.N,10*%
X-56249000Y34299000D03*
%TO.P,J6,22,Pin_22_22*%
%TO.N,9*%
X-56249000Y33299000D03*
%TD*%
D12*
%TO.P,J1,A1,GND_A1*%
%TO.N,GND*%
X-64899000Y65449000D03*
%TO.P,J1,A4,VBUS_A4*%
%TO.N,VBUS*%
X-65749000Y65449000D03*
%TO.P,J1,A5,CC1_A5*%
%TO.N,Net-(J1-CC1)*%
X-66599000Y65449000D03*
%TO.P,J1,A6,D+_A6*%
%TO.N,USB D+*%
X-67449000Y65449000D03*
%TO.P,J1,A7,D-_A7*%
%TO.N,USB D-*%
X-68299000Y65449000D03*
%TO.P,J1,A8,SBU1_A8*%
%TO.N,unconnected-(J1-SBU1-PadA8)*%
X-69149000Y65449000D03*
%TO.P,J1,A9,VBUS_A9*%
%TO.N,VBUS*%
X-69999000Y65449000D03*
%TO.P,J1,A12,GND_A12*%
%TO.N,GND*%
X-70849000Y65449000D03*
%TO.P,J1,B1,GND_B1*%
X-70849000Y66799000D03*
%TO.P,J1,B4,VBUS_B4*%
%TO.N,VBUS*%
X-69999000Y66799000D03*
%TO.P,J1,B5,CC2_B5*%
%TO.N,Net-(J1-CC2)*%
X-69149000Y66799000D03*
%TO.P,J1,B6,D+_B6*%
%TO.N,USB D+*%
X-68299000Y66799000D03*
%TO.P,J1,B7,D-_B7*%
%TO.N,USB D-*%
X-67449000Y66799000D03*
%TO.P,J1,B8,SBU2_B8*%
%TO.N,unconnected-(J1-SBU2-PadB8)*%
X-66599000Y66799000D03*
%TO.P,J1,B9,VBUS_B9*%
%TO.N,VBUS*%
X-65749000Y66799000D03*
%TO.P,J1,B12,GND_B12*%
%TO.N,GND*%
X-64899000Y66799000D03*
D13*
%TO.P,J1,SH,SHIELD_SH*%
%TO.N,Net-(J1-SHIELD)*%
X-63549000Y66429000D03*
D14*
X-63549000Y69809000D03*
D13*
X-72199000Y66429000D03*
D14*
X-72199000Y69809000D03*
%TD*%
D10*
%TO.P,J4,1,Pin_1_1*%
%TO.N,37*%
X-76649000Y61699000D03*
D11*
%TO.P,J4,2,Pin_2_2*%
%TO.N,38*%
X-76649000Y60699000D03*
%TO.P,J4,3,Pin_3_3*%
%TO.N,39*%
X-76649000Y59699000D03*
%TO.P,J4,4,Pin_4_4*%
%TO.N,40*%
X-76649000Y58699000D03*
%TO.P,J4,5,Pin_5_5*%
%TO.N,41*%
X-76649000Y57699000D03*
%TO.P,J4,6,Pin_6_6*%
%TO.N,42*%
X-76649000Y56699000D03*
%TO.P,J4,7,Pin_7_7*%
%TO.N,43*%
X-76649000Y55699000D03*
%TO.P,J4,8,Pin_8_8*%
%TO.N,50*%
X-76649000Y54699000D03*
%TO.P,J4,9,Pin_9_9*%
%TO.N,51*%
X-76649000Y53699000D03*
%TO.P,J4,10,Pin_10_10*%
%TO.N,52*%
X-76649000Y52699000D03*
%TO.P,J4,11,Pin_11_11*%
%TO.N,53*%
X-76649000Y51699000D03*
%TO.P,J4,12,Pin_12_12*%
%TO.N,54*%
X-76649000Y50699000D03*
%TO.P,J4,13,Pin_13_13*%
%TO.N,56*%
X-76649000Y49699000D03*
%TO.P,J4,14,Pin_14_14*%
%TO.N,57*%
X-76649000Y48699000D03*
%TO.P,J4,15,Pin_15_15*%
%TO.N,58*%
X-76649000Y47699000D03*
%TO.P,J4,16,Pin_16_16*%
%TO.N,59*%
X-76649000Y46699000D03*
%TD*%
D10*
%TO.P,J5,1,Pin_1_1*%
%TO.N,VBUS*%
X-58649000Y70299000D03*
D11*
%TO.P,J5,2,Pin_2_2*%
%TO.N,GND*%
X-57649000Y70299000D03*
%TD*%
D10*
%TO.P,J3,1,Pin_1_1*%
%TO.N,61*%
X-77649000Y39099000D03*
D11*
%TO.P,J3,2,Pin_2_2*%
%TO.N,62*%
X-76649000Y39099000D03*
%TO.P,J3,3,Pin_3_3*%
%TO.N,2*%
X-75649000Y39099000D03*
%TO.P,J3,4,Pin_4_4*%
%TO.N,3*%
X-74649000Y39099000D03*
%TO.P,J3,5,Pin_5_5*%
%TO.N,4*%
X-73649000Y39099000D03*
%TD*%
D10*
%TO.P,J7,1,Pin_1_1*%
%TO.N,VBUS*%
X-76449000Y70499000D03*
D11*
%TO.P,J7,2,Pin_2_2*%
%TO.N,GND*%
X-75449000Y70499000D03*
%TD*%
D15*
%TO.N,3V3*%
X-72149000Y39799000D03*
X-60849000Y51899000D03*
X-57149000Y55799000D03*
X-76249000Y42499000D03*
X-58049000Y43499000D03*
X-60449000Y34499000D03*
X-59249000Y33299000D03*
X-71649000Y52699000D03*
X-76749000Y33099000D03*
X-65849000Y58299000D03*
X-73461235Y41038238D03*
%TO.N,GND*%
X-74649000Y63799000D03*
X-63049000Y55099000D03*
X-70149000Y32799000D03*
X-66149000Y37699000D03*
X-69149000Y37799000D03*
X-61649000Y66299000D03*
X-74249000Y70499000D03*
X-57200000Y47000000D03*
X-65049000Y61299000D03*
X-70049000Y37799000D03*
X-66314591Y34499000D03*
X-64849000Y56499000D03*
X-64249000Y38699000D03*
X-71149000Y33799000D03*
X-59249000Y50899000D03*
X-64149000Y34199000D03*
X-74349000Y33399000D03*
X-66539470Y38208530D03*
X-67861500Y59511500D03*
X-60849000Y55299000D03*
X-68349000Y38299000D03*
X-69149000Y33799000D03*
X-70049000Y42899000D03*
X-76649000Y65299000D03*
X-71051835Y37156087D03*
X-61649000Y42299000D03*
X-71749000Y34699000D03*
X-68249000Y32799000D03*
X-65449000Y61899000D03*
X-64249000Y64899000D03*
X-75189000Y43814000D03*
X-56349000Y61699000D03*
X-71149000Y67799000D03*
X-66814591Y32799000D03*
X-63049000Y35299000D03*
X-66314591Y35299000D03*
X-70932961Y34494496D03*
X-66314591Y36499000D03*
X-56449000Y70299000D03*
X-64849000Y67800000D03*
X-71449000Y64699000D03*
X-62849000Y34099000D03*
X-66314591Y33399000D03*
X-70249000Y56799000D03*
%TO.N,VBUS*%
X-67861500Y61911500D03*
%TO.N,USB D+*%
X-68249000Y64299000D03*
%TO.N,RST*%
X-75149000Y33099000D03*
X-65549000Y36099000D03*
%TO.N,Net-(J2-SWDIO)*%
X-76449000Y36199000D03*
X-69446810Y50538035D03*
%TO.N,Net-(J2-SWCLK)*%
X-67449000Y48699000D03*
X-75149000Y36499000D03*
%TO.N,Net-(J2-SWO)*%
X-67849000Y44299000D03*
X-73849000Y36199000D03*
%TO.N,9*%
X-65742643Y41886110D03*
%TO.N,10*%
X-64942778Y41900974D03*
%TO.N,11*%
X-64128412Y41778412D03*
%TO.N,20*%
X-61649000Y43699000D03*
%TO.N,21*%
X-61649000Y44499000D03*
%TO.N,22*%
X-61498952Y45284805D03*
%TO.N,24*%
X-61462840Y46094246D03*
%TO.N,27*%
X-61600000Y47374000D03*
%TO.N,30*%
X-61649000Y49099000D03*
%TO.N,35*%
X-62649000Y54099000D03*
%TO.N,36*%
X-62649000Y49699000D03*
%TO.N,37*%
X-73049000Y61699000D03*
X-63423265Y49024735D03*
%TO.N,38*%
X-64518402Y49219873D03*
X-73849000Y60699000D03*
%TO.N,39*%
X-74049000Y59699000D03*
X-65372936Y48896274D03*
%TO.N,40*%
X-65849000Y49539211D03*
X-73849000Y58099000D03*
%TO.N,41*%
X-74649000Y57299000D03*
X-66649000Y49839655D03*
%TO.N,42*%
X-67448925Y49850545D03*
X-75249000Y56299000D03*
%TO.N,53*%
X-70049000Y48299000D03*
%TO.N,54*%
X-72894862Y47453138D03*
%TO.N,57*%
X-70249000Y46099000D03*
%TO.N,58*%
X-72949000Y45799000D03*
%TD*%
%TO.N,3V3*%
D16*
X-57949000Y55799000D02*
X-57349000Y55799000D01*
X-58449000Y55299000D02*
X-57949000Y55799000D01*
X-57349000Y55799000D02*
X-57149000Y55799000D01*
%TO.N,GND*%
X-66314591Y33299000D02*
X-66314591Y35299000D01*
X-70149000Y32799000D02*
X-66814591Y32799000D01*
X-66629939Y38299000D02*
X-68349000Y38299000D01*
D17*
X-75449000Y70499000D02*
X-74249000Y70499000D01*
D16*
X-59449000Y55299000D02*
X-60849000Y55299000D01*
X-66814591Y32799000D02*
X-66314591Y33299000D01*
X-66539470Y38208530D02*
X-66629939Y38299000D01*
D17*
X-56449000Y70299000D02*
X-57649000Y70299000D01*
%TO.N,Net-(J1-SHIELD)*%
D16*
X-63549000Y66429000D02*
X-63549000Y69809000D01*
%TO.N,USB D-*%
D18*
X-67449000Y66799000D02*
X-67449000Y66369654D01*
X-68299000Y65519654D02*
X-68299000Y65449000D01*
X-67449000Y66369654D02*
X-68299000Y65519654D01*
%TO.N,VBUS*%
D19*
X-69649000Y68299000D02*
X-66149000Y68299000D01*
X-67861500Y62286500D02*
X-67861500Y61911500D01*
X-70905026Y64048000D02*
X-72398000Y64048000D01*
X-65749000Y67899000D02*
X-65749000Y66799000D01*
X-65749000Y65449000D02*
X-65749000Y64399000D01*
X-69999000Y66799000D02*
X-69999000Y67949000D01*
X-69999000Y67949000D02*
X-69649000Y68299000D01*
X-64549000Y63199000D02*
X-60549000Y63199000D01*
X-69999000Y64954026D02*
X-70905026Y64048000D01*
X-65749000Y64399000D02*
X-67861500Y62286500D01*
X-60549000Y63199000D02*
X-58649000Y65099000D01*
X-69999000Y65449000D02*
X-69999000Y64954026D01*
X-65749000Y64399000D02*
X-64549000Y63199000D01*
X-72398000Y64048000D02*
X-76449000Y68099000D01*
X-58649000Y65099000D02*
X-58649000Y70299000D01*
X-76449000Y68099000D02*
X-76449000Y70499000D01*
X-66149000Y68299000D02*
X-65749000Y67899000D01*
%TO.N,USB D+*%
D18*
X-67449000Y65449000D02*
X-67449000Y65099000D01*
X-67449000Y65099000D02*
X-68249000Y64299000D01*
%TO.N,RST*%
D16*
X-65849000Y35899000D02*
X-68199056Y35899000D01*
X-71299056Y32799000D02*
X-74849000Y32799000D01*
X-65649000Y36099000D02*
X-65849000Y35899000D01*
X-65549000Y36099000D02*
X-65649000Y36099000D01*
X-74849000Y32799000D02*
X-75149000Y33099000D01*
X-68199056Y35899000D02*
X-71299056Y32799000D01*
%TO.N,Net-(J2-SWDIO)*%
X-72849000Y43299000D02*
X-72849000Y38699000D01*
X-76449000Y37899000D02*
X-76449000Y36199000D01*
X-73649000Y37899000D02*
X-76449000Y37899000D01*
X-68849000Y49940225D02*
X-68849000Y46199000D01*
X-69749000Y45299000D02*
X-70849000Y45299000D01*
X-69446810Y50538035D02*
X-68849000Y49940225D01*
X-72849000Y38699000D02*
X-73649000Y37899000D01*
X-68849000Y46199000D02*
X-69749000Y45299000D01*
X-70849000Y45299000D02*
X-72849000Y43299000D01*
%TO.N,Net-(J2-SWCLK)*%
X-74849000Y36899000D02*
X-75149000Y36599000D01*
X-69649000Y44399000D02*
X-71449000Y42599000D01*
X-73649000Y36899000D02*
X-74849000Y36899000D01*
X-71449000Y39099000D02*
X-73649000Y36899000D01*
X-75149000Y36599000D02*
X-75149000Y36499000D01*
X-67449000Y48699000D02*
X-67449000Y45999000D01*
X-69049000Y44399000D02*
X-69649000Y44399000D01*
X-71449000Y42599000D02*
X-71449000Y39099000D01*
X-67449000Y45999000D02*
X-69049000Y44399000D01*
%TO.N,Net-(J2-SWO)*%
X-73321849Y36199000D02*
X-73849000Y36199000D01*
X-68649000Y43499000D02*
X-68649000Y40871849D01*
X-68649000Y40871849D02*
X-73321849Y36199000D01*
X-67849000Y44299000D02*
X-68649000Y43499000D01*
%TO.N,9*%
X-58049000Y33299000D02*
X-56249000Y33299000D01*
X-63648000Y38898000D02*
X-58049000Y33299000D01*
X-64000057Y39300000D02*
X-63648000Y38947943D01*
X-65742643Y40992643D02*
X-64050000Y39300000D01*
X-63648000Y38947943D02*
X-63648000Y38898000D01*
X-64050000Y39300000D02*
X-64000057Y39300000D01*
X-65742643Y41886110D02*
X-65742643Y40992643D01*
%TO.N,10*%
X-64942778Y41900974D02*
X-64942778Y41392778D01*
X-57849000Y34299000D02*
X-56249000Y34299000D01*
X-64942778Y41392778D02*
X-57849000Y34299000D01*
%TO.N,11*%
X-63728412Y41778412D02*
X-57249000Y35299000D01*
X-64128412Y41778412D02*
X-63728412Y41778412D01*
X-57249000Y35299000D02*
X-56249000Y35299000D01*
%TO.N,20*%
X-61649000Y43249000D02*
X-58699000Y40299000D01*
X-61649000Y43699000D02*
X-61649000Y43249000D01*
X-58699000Y40299000D02*
X-56249000Y40299000D01*
%TO.N,21*%
X-58249000Y41299000D02*
X-56249000Y41299000D01*
X-61449000Y44499000D02*
X-58249000Y41299000D01*
X-61649000Y44499000D02*
X-61449000Y44499000D01*
%TO.N,22*%
X-56450000Y42098000D02*
X-56249000Y42299000D01*
X-61498952Y45284805D02*
X-60734805Y45284805D01*
X-57548000Y42098000D02*
X-56450000Y42098000D01*
X-60734805Y45284805D02*
X-57548000Y42098000D01*
%TO.N,24*%
X-56649000Y44299000D02*
X-58650000Y46300000D01*
X-61257086Y46300000D02*
X-61462840Y46094246D01*
X-56249000Y44299000D02*
X-56649000Y44299000D01*
X-58650000Y46300000D02*
X-61257086Y46300000D01*
%TO.N,27*%
X-56974000Y48024000D02*
X-56974000Y47998695D01*
X-57050000Y48100000D02*
X-56974000Y48024000D01*
X-56974000Y47998695D02*
X-56549305Y47574000D01*
X-60874000Y48100000D02*
X-57050000Y48100000D01*
X-56549305Y47574000D02*
X-56524000Y47574000D01*
X-56524000Y47574000D02*
X-56249000Y47299000D01*
X-61600000Y47374000D02*
X-60874000Y48100000D01*
%TO.N,30*%
X-61649000Y49099000D02*
X-59449000Y49099000D01*
X-58249000Y50299000D02*
X-56249000Y50299000D01*
X-59449000Y49099000D02*
X-58249000Y50299000D01*
%TO.N,35*%
X-62649000Y54099000D02*
X-62199057Y54099000D01*
X-60499057Y52399000D02*
X-56349000Y52399000D01*
X-62199057Y54099000D02*
X-60499057Y52399000D01*
X-56349000Y52399000D02*
X-56249000Y52299000D01*
%TO.N,36*%
X-62049000Y49699000D02*
X-60249000Y51499000D01*
X-60249000Y51499000D02*
X-57050040Y51499000D01*
X-56850040Y51299000D02*
X-56249000Y51299000D01*
X-57050040Y51499000D02*
X-56850040Y51299000D01*
X-62649000Y49699000D02*
X-62049000Y49699000D01*
%TO.N,37*%
X-73049000Y61699000D02*
X-72649000Y61699000D01*
X-72649000Y61699000D02*
X-67750000Y56800000D01*
X-67750000Y56800000D02*
X-66050000Y56800000D01*
X-63423265Y54173265D02*
X-63423265Y49024735D01*
X-66050000Y56800000D02*
X-63423265Y54173265D01*
%TO.N,38*%
X-68150000Y55600000D02*
X-66250000Y55600000D01*
X-64249000Y49489275D02*
X-64518402Y49219873D01*
X-73849000Y60699000D02*
X-73249000Y60699000D01*
X-66250000Y55600000D02*
X-64249000Y53599000D01*
X-73249000Y60699000D02*
X-68150000Y55600000D01*
X-64249000Y53599000D02*
X-64249000Y49489275D01*
%TO.N,39*%
X-68849000Y54499000D02*
X-67049000Y54499000D01*
X-65149000Y49120210D02*
X-65372936Y48896274D01*
X-67049000Y54499000D02*
X-65149000Y52599000D01*
X-74049000Y59699000D02*
X-68849000Y54499000D01*
X-65149000Y52599000D02*
X-65149000Y49120210D01*
%TO.N,40*%
X-65849000Y51449000D02*
X-65849000Y49539211D01*
X-67700000Y53300000D02*
X-65849000Y51449000D01*
X-69050000Y53300000D02*
X-67700000Y53300000D01*
X-73849000Y58099000D02*
X-69050000Y53300000D01*
%TO.N,41*%
X-66649000Y50599000D02*
X-66649000Y49839655D01*
X-74649000Y57299000D02*
X-69550000Y52200000D01*
X-69550000Y52200000D02*
X-68250000Y52200000D01*
X-68250000Y52200000D02*
X-66649000Y50599000D01*
%TO.N,42*%
X-75249000Y56299000D02*
X-75249000Y55299000D01*
X-68798380Y51200000D02*
X-67448925Y49850545D01*
X-75249000Y55299000D02*
X-71150000Y51200000D01*
X-71150000Y51200000D02*
X-68798380Y51200000D01*
%TO.N,53*%
X-73449000Y51699000D02*
X-76649000Y51699000D01*
X-70049000Y48299000D02*
X-73449000Y51699000D01*
%TO.N,54*%
X-72894862Y47453138D02*
X-76140724Y50699000D01*
X-76140724Y50699000D02*
X-76649000Y50699000D01*
%TO.N,57*%
X-76449000Y48699000D02*
X-76649000Y48699000D01*
X-74249000Y46499000D02*
X-76449000Y48699000D01*
X-70249000Y46099000D02*
X-70649000Y46499000D01*
X-70649000Y46499000D02*
X-74249000Y46499000D01*
%TO.N,58*%
X-74722280Y45799000D02*
X-76622280Y47699000D01*
X-72949000Y45799000D02*
X-74722280Y45799000D01*
X-76622280Y47699000D02*
X-76649000Y47699000D01*
%TD*%
M02*
