%TF.GenerationSoftware,KiCad,Pcbnew,10.0.3*%
%TF.CreationDate,2026-08-07T02:41:41+08:00*%
%TF.ProjectId,vertex mk4,76657274-6578-4206-9d6b-342e6b696361,4.4*%
%TF.SameCoordinates,PX88601c0PY87fe740*%
%TF.FileFunction,Legend,Bot*%
%TF.FilePolarity,Positive*%
%FSLAX46Y46*%
G04 Gerber Fmt 4.6, Leading zero omitted, Abs format (unit mm)*
G04 Created by KiCad (PCBNEW 10.0.3) date 2026-08-07 02:41:41*
%MOMM*%
%LPD*%
G01*
G04 APERTURE LIST*
%ADD10C,0.250000*%
%ADD11C,0.000000*%
G04 APERTURE END LIST*
D10*
X-57556262Y52449380D02*
X-57556262Y53449380D01*
X-57556262Y53449380D02*
X-57937214Y53449380D01*
X-57937214Y53449380D02*
X-58032452Y53401761D01*
X-58032452Y53401761D02*
X-58080071Y53354142D01*
X-58080071Y53354142D02*
X-58127690Y53258904D01*
X-58127690Y53258904D02*
X-58127690Y53116047D01*
X-58127690Y53116047D02*
X-58080071Y53020809D01*
X-58080071Y53020809D02*
X-58032452Y52973190D01*
X-58032452Y52973190D02*
X-57937214Y52925571D01*
X-57937214Y52925571D02*
X-57556262Y52925571D01*
X-58556262Y52449380D02*
X-58556262Y53449380D01*
X-58984833Y52449380D02*
X-58984833Y52973190D01*
X-58984833Y52973190D02*
X-58937214Y53068428D01*
X-58937214Y53068428D02*
X-58841976Y53116047D01*
X-58841976Y53116047D02*
X-58699119Y53116047D01*
X-58699119Y53116047D02*
X-58603881Y53068428D01*
X-58603881Y53068428D02*
X-58556262Y53020809D01*
X-59889595Y52449380D02*
X-59889595Y52973190D01*
X-59889595Y52973190D02*
X-59841976Y53068428D01*
X-59841976Y53068428D02*
X-59746738Y53116047D01*
X-59746738Y53116047D02*
X-59556262Y53116047D01*
X-59556262Y53116047D02*
X-59461024Y53068428D01*
X-59889595Y52496999D02*
X-59794357Y52449380D01*
X-59794357Y52449380D02*
X-59556262Y52449380D01*
X-59556262Y52449380D02*
X-59461024Y52496999D01*
X-59461024Y52496999D02*
X-59413405Y52592238D01*
X-59413405Y52592238D02*
X-59413405Y52687476D01*
X-59413405Y52687476D02*
X-59461024Y52782714D01*
X-59461024Y52782714D02*
X-59556262Y52830333D01*
X-59556262Y52830333D02*
X-59794357Y52830333D01*
X-59794357Y52830333D02*
X-59889595Y52877952D01*
X-60365786Y53116047D02*
X-60365786Y52449380D01*
X-60365786Y53020809D02*
X-60413405Y53068428D01*
X-60413405Y53068428D02*
X-60508643Y53116047D01*
X-60508643Y53116047D02*
X-60651500Y53116047D01*
X-60651500Y53116047D02*
X-60746738Y53068428D01*
X-60746738Y53068428D02*
X-60794357Y52973190D01*
X-60794357Y52973190D02*
X-60794357Y52449380D01*
X-61127691Y53116047D02*
X-61508643Y53116047D01*
X-61270548Y53449380D02*
X-61270548Y52592238D01*
X-61270548Y52592238D02*
X-61318167Y52496999D01*
X-61318167Y52496999D02*
X-61413405Y52449380D01*
X-61413405Y52449380D02*
X-61508643Y52449380D01*
X-61984834Y52449380D02*
X-61889596Y52496999D01*
X-61889596Y52496999D02*
X-61841977Y52544619D01*
X-61841977Y52544619D02*
X-61794358Y52639857D01*
X-61794358Y52639857D02*
X-61794358Y52925571D01*
X-61794358Y52925571D02*
X-61841977Y53020809D01*
X-61841977Y53020809D02*
X-61889596Y53068428D01*
X-61889596Y53068428D02*
X-61984834Y53116047D01*
X-61984834Y53116047D02*
X-62127691Y53116047D01*
X-62127691Y53116047D02*
X-62222929Y53068428D01*
X-62222929Y53068428D02*
X-62270548Y53020809D01*
X-62270548Y53020809D02*
X-62318167Y52925571D01*
X-62318167Y52925571D02*
X-62318167Y52639857D01*
X-62318167Y52639857D02*
X-62270548Y52544619D01*
X-62270548Y52544619D02*
X-62222929Y52496999D01*
X-62222929Y52496999D02*
X-62127691Y52449380D01*
X-62127691Y52449380D02*
X-61984834Y52449380D01*
X-62746739Y52449380D02*
X-62746739Y53116047D01*
X-62746739Y53020809D02*
X-62794358Y53068428D01*
X-62794358Y53068428D02*
X-62889596Y53116047D01*
X-62889596Y53116047D02*
X-63032453Y53116047D01*
X-63032453Y53116047D02*
X-63127691Y53068428D01*
X-63127691Y53068428D02*
X-63175310Y52973190D01*
X-63175310Y52973190D02*
X-63175310Y52449380D01*
X-63175310Y52973190D02*
X-63222929Y53068428D01*
X-63222929Y53068428D02*
X-63318167Y53116047D01*
X-63318167Y53116047D02*
X-63461024Y53116047D01*
X-63461024Y53116047D02*
X-63556263Y53068428D01*
X-63556263Y53068428D02*
X-63603882Y52973190D01*
X-63603882Y52973190D02*
X-63603882Y52449380D01*
X-64080072Y52449380D02*
X-64080072Y53449380D01*
X-64080072Y53449380D02*
X-64461024Y53449380D01*
X-64461024Y53449380D02*
X-64556262Y53401761D01*
X-64556262Y53401761D02*
X-64603881Y53354142D01*
X-64603881Y53354142D02*
X-64651500Y53258904D01*
X-64651500Y53258904D02*
X-64651500Y53116047D01*
X-64651500Y53116047D02*
X-64603881Y53020809D01*
X-64603881Y53020809D02*
X-64556262Y52973190D01*
X-64556262Y52973190D02*
X-64461024Y52925571D01*
X-64461024Y52925571D02*
X-64080072Y52925571D01*
X-64984834Y53449380D02*
X-65651500Y52449380D01*
X-65651500Y53449380D02*
X-64984834Y52449380D01*
X-66651501Y53449380D02*
X-66984834Y52449380D01*
X-66984834Y52449380D02*
X-67318167Y53449380D01*
X-68032453Y52496999D02*
X-67937215Y52449380D01*
X-67937215Y52449380D02*
X-67746739Y52449380D01*
X-67746739Y52449380D02*
X-67651501Y52496999D01*
X-67651501Y52496999D02*
X-67603882Y52592238D01*
X-67603882Y52592238D02*
X-67603882Y52973190D01*
X-67603882Y52973190D02*
X-67651501Y53068428D01*
X-67651501Y53068428D02*
X-67746739Y53116047D01*
X-67746739Y53116047D02*
X-67937215Y53116047D01*
X-67937215Y53116047D02*
X-68032453Y53068428D01*
X-68032453Y53068428D02*
X-68080072Y52973190D01*
X-68080072Y52973190D02*
X-68080072Y52877952D01*
X-68080072Y52877952D02*
X-67603882Y52782714D01*
X-68508644Y52449380D02*
X-68508644Y53116047D01*
X-68508644Y52925571D02*
X-68556263Y53020809D01*
X-68556263Y53020809D02*
X-68603882Y53068428D01*
X-68603882Y53068428D02*
X-68699120Y53116047D01*
X-68699120Y53116047D02*
X-68794358Y53116047D01*
X-68984835Y53116047D02*
X-69365787Y53116047D01*
X-69127692Y53449380D02*
X-69127692Y52592238D01*
X-69127692Y52592238D02*
X-69175311Y52496999D01*
X-69175311Y52496999D02*
X-69270549Y52449380D01*
X-69270549Y52449380D02*
X-69365787Y52449380D01*
X-70080073Y52496999D02*
X-69984835Y52449380D01*
X-69984835Y52449380D02*
X-69794359Y52449380D01*
X-69794359Y52449380D02*
X-69699121Y52496999D01*
X-69699121Y52496999D02*
X-69651502Y52592238D01*
X-69651502Y52592238D02*
X-69651502Y52973190D01*
X-69651502Y52973190D02*
X-69699121Y53068428D01*
X-69699121Y53068428D02*
X-69794359Y53116047D01*
X-69794359Y53116047D02*
X-69984835Y53116047D01*
X-69984835Y53116047D02*
X-70080073Y53068428D01*
X-70080073Y53068428D02*
X-70127692Y52973190D01*
X-70127692Y52973190D02*
X-70127692Y52877952D01*
X-70127692Y52877952D02*
X-69651502Y52782714D01*
X-70461026Y52449380D02*
X-70984835Y53116047D01*
X-70461026Y53116047D02*
X-70984835Y52449380D01*
X-72127693Y52449380D02*
X-72127693Y53449380D01*
X-72127693Y53449380D02*
X-72461026Y52735095D01*
X-72461026Y52735095D02*
X-72794359Y53449380D01*
X-72794359Y53449380D02*
X-72794359Y52449380D01*
X-73270550Y52449380D02*
X-73270550Y53449380D01*
X-73365788Y52830333D02*
X-73651502Y52449380D01*
X-73651502Y53116047D02*
X-73270550Y52735095D01*
X-74508645Y53116047D02*
X-74508645Y52449380D01*
X-74270550Y53496999D02*
X-74032455Y52782714D01*
X-74032455Y52782714D02*
X-74651502Y52782714D01*
X-75032455Y52544619D02*
X-75080074Y52496999D01*
X-75080074Y52496999D02*
X-75032455Y52449380D01*
X-75032455Y52449380D02*
X-74984836Y52496999D01*
X-74984836Y52496999D02*
X-75032455Y52544619D01*
X-75032455Y52544619D02*
X-75032455Y52449380D01*
X-75937216Y53116047D02*
X-75937216Y52449380D01*
X-75699121Y53496999D02*
X-75461026Y52782714D01*
X-75461026Y52782714D02*
X-76080073Y52782714D01*
D11*
%TO.C,PhantomPX Vertex Mk4.4*%
G36*
X-68859547Y44948636D02*
G01*
X-68854580Y44898144D01*
X-68859547Y44891908D01*
X-68884220Y44897749D01*
X-68887216Y44920272D01*
X-68872030Y44955293D01*
X-68859547Y44948636D01*
G37*
G36*
X-66825887Y38013628D02*
G01*
X-66831584Y37988334D01*
X-66853556Y37985264D01*
X-66887717Y38000831D01*
X-66881224Y38013628D01*
X-66831970Y38018720D01*
X-66825887Y38013628D01*
G37*
G36*
X-66203338Y39800563D02*
G01*
X-66198371Y39750070D01*
X-66203338Y39743835D01*
X-66228011Y39749675D01*
X-66231007Y39772199D01*
X-66215821Y39807219D01*
X-66203338Y39800563D01*
G37*
G36*
X-65414776Y43544616D02*
G01*
X-65420473Y43519323D01*
X-65442444Y43516252D01*
X-65476606Y43531819D01*
X-65470113Y43544616D01*
X-65420859Y43549708D01*
X-65414776Y43544616D01*
G37*
G36*
X-64335691Y44650814D02*
G01*
X-64341388Y44625520D01*
X-64363359Y44622450D01*
X-64397521Y44638017D01*
X-64391028Y44650814D01*
X-64341774Y44655906D01*
X-64335691Y44650814D01*
G37*
G36*
X-63422619Y44650814D02*
G01*
X-63417652Y44600322D01*
X-63422619Y44594086D01*
X-63447292Y44599926D01*
X-63450288Y44622450D01*
X-63435102Y44657470D01*
X-63422619Y44650814D01*
G37*
G36*
X-63173599Y48905420D02*
G01*
X-63179296Y48880127D01*
X-63201268Y48877056D01*
X-63235430Y48892623D01*
X-63228937Y48905420D01*
X-63179682Y48910512D01*
X-63173599Y48905420D01*
G37*
G36*
X-71924889Y50672148D02*
G01*
X-71883003Y50600172D01*
X-71858866Y50517173D01*
X-71877643Y50493807D01*
X-71924999Y50528382D01*
X-71945408Y50568262D01*
X-71976019Y50648272D01*
X-71988058Y50674627D01*
X-71975519Y50705719D01*
X-71967569Y50706537D01*
X-71924889Y50672148D01*
G37*
G36*
X-69796604Y49064389D02*
G01*
X-69758918Y49002688D01*
X-69730698Y48918899D01*
X-69725713Y48843507D01*
X-69725824Y48842917D01*
X-69745118Y48818028D01*
X-69780203Y48872822D01*
X-69796289Y48910330D01*
X-69828020Y49008723D01*
X-69832465Y49069355D01*
X-69829988Y49073522D01*
X-69796604Y49064389D01*
G37*
G36*
X-69692084Y50397067D02*
G01*
X-69710406Y50365229D01*
X-69784596Y50312894D01*
X-69836116Y50284044D01*
X-69956449Y50223512D01*
X-70020864Y50200132D01*
X-70046056Y50209833D01*
X-70049307Y50232069D01*
X-70015003Y50270598D01*
X-69932093Y50320191D01*
X-69830585Y50366989D01*
X-69740484Y50397131D01*
X-69692084Y50397067D01*
G37*
G36*
X-71506703Y51146114D02*
G01*
X-71456705Y51066314D01*
X-71419958Y50985581D01*
X-71366339Y50855114D01*
X-71342298Y50784396D01*
X-71344283Y50755154D01*
X-71368741Y50749117D01*
X-71373979Y50749083D01*
X-71409627Y50785285D01*
X-71457676Y50877416D01*
X-71483729Y50941489D01*
X-71526523Y51079341D01*
X-71532079Y51149003D01*
X-71506703Y51146114D01*
G37*
G36*
X-71752176Y49351472D02*
G01*
X-71791357Y49304188D01*
X-71878888Y49247252D01*
X-71906578Y49233540D01*
X-72010912Y49184272D01*
X-72080730Y49150663D01*
X-72090475Y49145757D01*
X-72134639Y49160336D01*
X-72143711Y49172373D01*
X-72127726Y49217025D01*
X-72050452Y49274418D01*
X-71930123Y49332894D01*
X-71844324Y49363813D01*
X-71767710Y49375786D01*
X-71752176Y49351472D01*
G37*
G36*
X-70711261Y51783203D02*
G01*
X-70685359Y51698151D01*
X-70719824Y51562889D01*
X-70734355Y51529649D01*
X-70785844Y51345924D01*
X-70781222Y51189625D01*
X-70769806Y51061087D01*
X-70778979Y51010287D01*
X-70807005Y51039315D01*
X-70840611Y51118116D01*
X-70863140Y51246585D01*
X-70855956Y51357165D01*
X-70853638Y51492167D01*
X-70880509Y51580907D01*
X-70912274Y51695708D01*
X-70882804Y51779388D01*
X-70799079Y51812713D01*
X-70796366Y51812735D01*
X-70711261Y51783203D01*
G37*
G36*
X-70090439Y51578610D02*
G01*
X-70021162Y51522810D01*
X-70017207Y51436949D01*
X-70078951Y51343960D01*
X-70086465Y51337141D01*
X-70144188Y51251248D01*
X-70187591Y51125989D01*
X-70193468Y51096131D01*
X-70227367Y50972606D01*
X-70275962Y50881533D01*
X-70288590Y50868534D01*
X-70335273Y50836386D01*
X-70332917Y50869543D01*
X-70322348Y50897994D01*
X-70242913Y51161053D01*
X-70228493Y51372910D01*
X-70233806Y51411128D01*
X-70237289Y51532867D01*
X-70189785Y51588041D01*
X-70090439Y51578610D01*
G37*
G36*
X-69478923Y49666189D02*
G01*
X-69447510Y49661965D01*
X-69298199Y49640221D01*
X-69155031Y49623079D01*
X-69142374Y49621839D01*
X-69006077Y49591134D01*
X-68943501Y49528837D01*
X-68948145Y49434438D01*
X-68999702Y49358136D01*
X-69072778Y49358031D01*
X-69147454Y49429114D01*
X-69249509Y49525515D01*
X-69384148Y49588072D01*
X-69517940Y49604451D01*
X-69580195Y49588779D01*
X-69663411Y49566774D01*
X-69710776Y49581648D01*
X-69703467Y49621799D01*
X-69674576Y49646945D01*
X-69596419Y49667563D01*
X-69478923Y49666189D01*
G37*
G36*
X-67164558Y42913235D02*
G01*
X-67164295Y42912968D01*
X-67167770Y42866211D01*
X-67193451Y42756066D01*
X-67236923Y42599747D01*
X-67285208Y42441400D01*
X-67444036Y41877467D01*
X-67548756Y41363075D01*
X-67580674Y41123036D01*
X-67600116Y40991733D01*
X-67623856Y40902937D01*
X-67641769Y40878396D01*
X-67673208Y40915265D01*
X-67716722Y41010135D01*
X-67747766Y41096960D01*
X-67799468Y41391344D01*
X-67773639Y41715910D01*
X-67670312Y42070543D01*
X-67489523Y42455128D01*
X-67231306Y42869550D01*
X-67198099Y42917062D01*
X-67164558Y42913235D01*
G37*
G36*
X-66360486Y44509002D02*
G01*
X-66301341Y44438322D01*
X-66171292Y44298749D01*
X-66015410Y44162500D01*
X-65939742Y44107280D01*
X-65829265Y44027750D01*
X-65754239Y43961984D01*
X-65732967Y43930479D01*
X-65710776Y43872130D01*
X-65656421Y43781061D01*
X-65647135Y43767460D01*
X-65599636Y43681694D01*
X-65613658Y43647958D01*
X-65690830Y43665941D01*
X-65828386Y43732950D01*
X-66027949Y43873353D01*
X-66213361Y44061193D01*
X-66357711Y44267220D01*
X-66400901Y44355184D01*
X-66455444Y44502176D01*
X-66466519Y44577119D01*
X-66434681Y44579549D01*
X-66360486Y44509002D01*
G37*
G36*
X-65606248Y43925665D02*
G01*
X-65587706Y43921960D01*
X-65488863Y43907431D01*
X-65335493Y43890809D01*
X-65155931Y43875063D01*
X-65100042Y43870872D01*
X-64938150Y43855943D01*
X-64813426Y43838133D01*
X-64744619Y43820408D01*
X-64736889Y43813413D01*
X-64772611Y43777154D01*
X-64863113Y43727767D01*
X-64983397Y43675632D01*
X-65108468Y43631126D01*
X-65213327Y43604629D01*
X-65247660Y43601344D01*
X-65342817Y43632715D01*
X-65466855Y43717862D01*
X-65530489Y43774170D01*
X-65629492Y43869604D01*
X-65672109Y43918887D01*
X-65662855Y43933685D01*
X-65606248Y43925665D01*
G37*
G36*
X-72680950Y50168315D02*
G01*
X-72675570Y50164520D01*
X-72473095Y50036216D01*
X-72318817Y49975414D01*
X-72211166Y49981515D01*
X-72204586Y49984840D01*
X-72117418Y50015040D01*
X-72070291Y50014145D01*
X-72068535Y49986875D01*
X-72127911Y49941751D01*
X-72145222Y49932321D01*
X-72243470Y49892534D01*
X-72329856Y49897754D01*
X-72408626Y49927262D01*
X-72520206Y49962417D01*
X-72591239Y49948339D01*
X-72603775Y49938992D01*
X-72693425Y49901027D01*
X-72769571Y49928381D01*
X-72815194Y50001358D01*
X-72813275Y50100259D01*
X-72789069Y50153438D01*
X-72744274Y50194423D01*
X-72680950Y50168315D01*
G37*
G36*
X-71923142Y51444852D02*
G01*
X-71879788Y51367252D01*
X-71875451Y51323728D01*
X-71857143Y51233674D01*
X-71808837Y51096681D01*
X-71740458Y50940415D01*
X-71730732Y50920372D01*
X-71666436Y50778998D01*
X-71625945Y50668759D01*
X-71616204Y50609286D01*
X-71619076Y50604832D01*
X-71651097Y50630366D01*
X-71707707Y50716602D01*
X-71778544Y50847061D01*
X-71804958Y50900487D01*
X-71881833Y51046154D01*
X-71952533Y51156442D01*
X-72004963Y51213198D01*
X-72015932Y51217090D01*
X-72080908Y51249417D01*
X-72098512Y51326206D01*
X-72065367Y51411324D01*
X-71993225Y51463336D01*
X-71923142Y51444852D01*
G37*
G36*
X-71917750Y49703779D02*
G01*
X-71916954Y49692704D01*
X-71951454Y49656961D01*
X-72040584Y49601355D01*
X-72130167Y49555058D01*
X-72272813Y49474517D01*
X-72400619Y49382405D01*
X-72451682Y49335055D01*
X-72534079Y49250892D01*
X-72585573Y49222995D01*
X-72629940Y49243606D01*
X-72655712Y49268480D01*
X-72701329Y49353859D01*
X-72692614Y49435160D01*
X-72642999Y49487734D01*
X-72565918Y49486932D01*
X-72543154Y49475014D01*
X-72481137Y49477401D01*
X-72368562Y49518133D01*
X-72235643Y49584349D01*
X-72081146Y49667585D01*
X-71985322Y49712291D01*
X-71935186Y49722884D01*
X-71917750Y49703779D01*
G37*
G36*
X-71584928Y49009868D02*
G01*
X-71620143Y48976346D01*
X-71713790Y48920101D01*
X-71847876Y48851611D01*
X-71893834Y48829995D01*
X-72052910Y48748511D01*
X-72167184Y48673650D01*
X-72220700Y48616007D01*
X-72221974Y48612091D01*
X-72263165Y48544140D01*
X-72329287Y48556727D01*
X-72365190Y48587743D01*
X-72409047Y48673108D01*
X-72414993Y48715381D01*
X-72396637Y48776605D01*
X-72329670Y48798580D01*
X-72241588Y48794707D01*
X-72170572Y48809440D01*
X-72052807Y48854848D01*
X-71921121Y48917446D01*
X-71757048Y48998409D01*
X-71653446Y49038470D01*
X-71599640Y49040563D01*
X-71584928Y49009868D01*
G37*
G36*
X-71451451Y48675305D02*
G01*
X-71448454Y48664565D01*
X-71450172Y48606592D01*
X-71480333Y48606065D01*
X-71523115Y48583147D01*
X-71568724Y48499821D01*
X-71609708Y48380114D01*
X-71638617Y48248054D01*
X-71647998Y48127669D01*
X-71643281Y48080592D01*
X-71642613Y47964941D01*
X-71683196Y47897255D01*
X-71749826Y47891048D01*
X-71807532Y47934627D01*
X-71851679Y47996272D01*
X-71844308Y48050598D01*
X-71800490Y48115297D01*
X-71745743Y48213262D01*
X-71686354Y48355946D01*
X-71651788Y48458783D01*
X-71594943Y48612240D01*
X-71538233Y48703904D01*
X-71488216Y48727138D01*
X-71451451Y48675305D01*
G37*
G36*
X-71332082Y51733827D02*
G01*
X-71281669Y51645175D01*
X-71282445Y51557202D01*
X-71273458Y51486312D01*
X-71232819Y51364394D01*
X-71168704Y51215072D01*
X-71151986Y51180330D01*
X-71088060Y51040088D01*
X-71049229Y50934149D01*
X-71041624Y50880155D01*
X-71046485Y50876721D01*
X-71083596Y50912481D01*
X-71143280Y51007419D01*
X-71214247Y51143024D01*
X-71233457Y51183309D01*
X-71308743Y51332625D01*
X-71379077Y51452004D01*
X-71431508Y51519903D01*
X-71439353Y51525792D01*
X-71492034Y51590328D01*
X-71502618Y51675376D01*
X-71473697Y51746469D01*
X-71420977Y51770189D01*
X-71332082Y51733827D01*
G37*
G36*
X-69343363Y51003517D02*
G01*
X-69340927Y50998949D01*
X-69324038Y50908107D01*
X-69380216Y50851402D01*
X-69479673Y50834827D01*
X-69550683Y50816112D01*
X-69670994Y50767239D01*
X-69816667Y50698095D01*
X-69841791Y50685264D01*
X-69999432Y50604792D01*
X-70097394Y50558552D01*
X-70149730Y50541694D01*
X-70170493Y50549368D01*
X-70173817Y50570679D01*
X-70139098Y50603988D01*
X-70046972Y50661713D01*
X-69915488Y50732810D01*
X-69878340Y50751500D01*
X-69699169Y50851608D01*
X-69584500Y50940854D01*
X-69547341Y50993723D01*
X-69488539Y51074413D01*
X-69413884Y51077846D01*
X-69343363Y51003517D01*
G37*
G36*
X-69638555Y49181923D02*
G01*
X-69607010Y49144365D01*
X-69504969Y49061211D01*
X-69360501Y48991284D01*
X-69208195Y48947502D01*
X-69082638Y48942785D01*
X-69073032Y48944921D01*
X-68982831Y48941301D01*
X-68930210Y48879912D01*
X-68903142Y48794422D01*
X-68908497Y48748539D01*
X-68972952Y48709264D01*
X-69059375Y48720367D01*
X-69127573Y48775835D01*
X-69130937Y48781816D01*
X-69189820Y48835685D01*
X-69301155Y48896748D01*
X-69402169Y48937638D01*
X-69525925Y48985746D01*
X-69610127Y49028018D01*
X-69634274Y49050671D01*
X-69645870Y49114642D01*
X-69658890Y49160762D01*
X-69666958Y49203857D01*
X-69638555Y49181923D01*
G37*
G36*
X-69122301Y50331140D02*
G01*
X-69099098Y50307742D01*
X-69067575Y50220529D01*
X-69103949Y50148960D01*
X-69193548Y50117410D01*
X-69213426Y50117807D01*
X-69305625Y50102683D01*
X-69440133Y50055766D01*
X-69581212Y49990489D01*
X-69729747Y49913934D01*
X-69819457Y49872376D01*
X-69865096Y49861426D01*
X-69881415Y49876691D01*
X-69883294Y49900590D01*
X-69847986Y49937999D01*
X-69754536Y49996195D01*
X-69621653Y50063809D01*
X-69592771Y50077109D01*
X-69428276Y50158982D01*
X-69334595Y50225253D01*
X-69302442Y50282644D01*
X-69302248Y50287411D01*
X-69271742Y50349378D01*
X-69201248Y50365006D01*
X-69122301Y50331140D01*
G37*
G36*
X-72679255Y50770786D02*
G01*
X-72605644Y50723512D01*
X-72483837Y50670905D01*
X-72396034Y50641422D01*
X-72255952Y50590812D01*
X-72173528Y50532889D01*
X-72124015Y50450121D01*
X-72123222Y50448170D01*
X-72093597Y50354878D01*
X-72091443Y50301045D01*
X-72092546Y50299621D01*
X-72120315Y50318927D01*
X-72160137Y50394479D01*
X-72164074Y50404013D01*
X-72214453Y50488775D01*
X-72297625Y50542845D01*
X-72415223Y50578955D01*
X-72570253Y50605722D01*
X-72674242Y50593680D01*
X-72699177Y50582377D01*
X-72792084Y50568772D01*
X-72863308Y50618989D01*
X-72889220Y50711781D01*
X-72883746Y50748335D01*
X-72834756Y50821206D01*
X-72755129Y50823685D01*
X-72679255Y50770786D01*
G37*
G36*
X-62257293Y47858431D02*
G01*
X-62267323Y47802768D01*
X-62349374Y47580890D01*
X-62474279Y47334230D01*
X-62623450Y47095218D01*
X-62778297Y46896286D01*
X-62800951Y46871816D01*
X-62932872Y46739315D01*
X-63060175Y46621764D01*
X-63169785Y46530008D01*
X-63248624Y46474896D01*
X-63283616Y46467273D01*
X-63284274Y46470908D01*
X-63259901Y46513581D01*
X-63195569Y46603347D01*
X-63104460Y46721928D01*
X-63090764Y46739227D01*
X-62972911Y46905682D01*
X-62850569Y47107164D01*
X-62751049Y47298375D01*
X-62671483Y47449847D01*
X-62580053Y47593008D01*
X-62485683Y47718550D01*
X-62397297Y47817170D01*
X-62323821Y47879560D01*
X-62274178Y47896416D01*
X-62257293Y47858431D01*
G37*
G36*
X-66739461Y44372444D02*
G01*
X-66686040Y44273420D01*
X-66623753Y44131852D01*
X-66560951Y43966944D01*
X-66505988Y43797901D01*
X-66499065Y43773829D01*
X-66469506Y43643887D01*
X-66436789Y43460596D01*
X-66406271Y43255252D01*
X-66394834Y43165247D01*
X-66371598Y42861496D01*
X-66376666Y42553521D01*
X-66412030Y42224210D01*
X-66479681Y41856455D01*
X-66581612Y41433143D01*
X-66608045Y41333787D01*
X-66673255Y41084508D01*
X-66735986Y40831276D01*
X-66789784Y40601011D01*
X-66828196Y40420634D01*
X-66833069Y40395053D01*
X-66872746Y40090982D01*
X-66891153Y39743814D01*
X-66888371Y39386367D01*
X-66864484Y39051460D01*
X-66829103Y38816166D01*
X-66800402Y38659883D01*
X-66783426Y38538571D01*
X-66781032Y38473709D01*
X-66782923Y38468950D01*
X-66812778Y38492377D01*
X-66874866Y38572495D01*
X-66957487Y38693795D01*
X-66985963Y38738160D01*
X-67185552Y39087640D01*
X-67332341Y39430668D01*
X-67435664Y39794774D01*
X-67504853Y40207492D01*
X-67515682Y40300724D01*
X-67536794Y40614743D01*
X-67530568Y40937810D01*
X-67495078Y41282240D01*
X-67428396Y41660346D01*
X-67328597Y42084442D01*
X-67193754Y42566841D01*
X-67126462Y42788971D01*
X-66997471Y43227048D01*
X-66903285Y43593911D01*
X-66842703Y43895018D01*
X-66814522Y44135825D01*
X-66812052Y44216469D01*
X-66804885Y44331283D01*
X-66786735Y44400515D01*
X-66775660Y44409720D01*
X-66739461Y44372444D01*
G37*
G36*
X-66945530Y44583686D02*
G01*
X-66920799Y44482507D01*
X-66902678Y44341578D01*
X-66895094Y44183566D01*
X-66895059Y44172594D01*
X-66924779Y43918232D01*
X-67009535Y43621310D01*
X-67142716Y43296254D01*
X-67317713Y42957491D01*
X-67527918Y42619446D01*
X-67738239Y42332164D01*
X-67951781Y42054881D01*
X-68118418Y41819862D01*
X-68249888Y41609150D01*
X-68357934Y41404790D01*
X-68392069Y41332140D01*
X-68456402Y41195158D01*
X-68507099Y41094524D01*
X-68534450Y41049383D01*
X-68535900Y41048581D01*
X-68567319Y41078470D01*
X-68578619Y41095568D01*
X-68611474Y41200871D01*
X-68628260Y41363920D01*
X-68629029Y41558990D01*
X-68613836Y41760357D01*
X-68582734Y41942295D01*
X-68576800Y41965944D01*
X-68505605Y42178506D01*
X-68401401Y42389187D01*
X-68255799Y42610610D01*
X-68060408Y42855401D01*
X-67806838Y43136182D01*
X-67780598Y43163943D01*
X-67621450Y43337431D01*
X-67475656Y43506662D01*
X-67357425Y43654433D01*
X-67280966Y43763542D01*
X-67271049Y43780861D01*
X-67173787Y43962986D01*
X-67320430Y43791446D01*
X-67540646Y43587835D01*
X-67792765Y43445834D01*
X-68060997Y43370336D01*
X-68329549Y43366231D01*
X-68530985Y43416466D01*
X-68677592Y43482842D01*
X-68746226Y43537253D01*
X-68736300Y43576712D01*
X-68647225Y43598232D01*
X-68567368Y43601344D01*
X-68230376Y43636839D01*
X-67904475Y43737451D01*
X-67605265Y43894372D01*
X-67348347Y44098795D01*
X-67149320Y44341911D01*
X-67098069Y44430932D01*
X-67037007Y44539932D01*
X-66989201Y44609301D01*
X-66972949Y44622450D01*
X-66945530Y44583686D01*
G37*
G36*
X-66523191Y44330783D02*
G01*
X-66463579Y44266411D01*
X-66396146Y44173493D01*
X-66316443Y44066750D01*
X-66193104Y43916619D01*
X-66040780Y43740294D01*
X-65874124Y43554969D01*
X-65810234Y43485923D01*
X-65616813Y43273855D01*
X-65470808Y43100315D01*
X-65358320Y42946468D01*
X-65265452Y42793483D01*
X-65188103Y42642925D01*
X-65101946Y42457300D01*
X-65047645Y42312580D01*
X-65016497Y42175425D01*
X-64999803Y42012495D01*
X-64993511Y41897301D01*
X-65001519Y41529684D01*
X-65065272Y41188406D01*
X-65190347Y40857628D01*
X-65382321Y40521512D01*
X-65569513Y40261609D01*
X-65697601Y40104419D01*
X-65798242Y39996830D01*
X-65865725Y39943368D01*
X-65894338Y39948560D01*
X-65878407Y40016838D01*
X-65708351Y40536545D01*
X-65609844Y41050036D01*
X-65583087Y41549273D01*
X-65628284Y42026221D01*
X-65745639Y42472844D01*
X-65812084Y42639510D01*
X-65889161Y42814242D01*
X-65867002Y42626908D01*
X-65859583Y42507361D01*
X-65875602Y42464379D01*
X-65890388Y42468430D01*
X-65914018Y42453002D01*
X-65926625Y42365763D01*
X-65928862Y42201084D01*
X-65927833Y42145211D01*
X-65926640Y41963207D01*
X-65938102Y41829095D01*
X-65969759Y41708027D01*
X-66029155Y41565157D01*
X-66074081Y41469476D01*
X-66159250Y41310882D01*
X-66264638Y41143606D01*
X-66378093Y40983700D01*
X-66487463Y40847213D01*
X-66580595Y40750196D01*
X-66645338Y40708699D01*
X-66650442Y40708212D01*
X-66660403Y40742380D01*
X-66638924Y40827776D01*
X-66625612Y40862890D01*
X-66586616Y40972152D01*
X-66534604Y41136183D01*
X-66478098Y41327576D01*
X-66450366Y41426626D01*
X-66409953Y41580165D01*
X-66380539Y41714081D01*
X-66360381Y41846849D01*
X-66347737Y41996941D01*
X-66340862Y42182832D01*
X-66338014Y42422995D01*
X-66337491Y42622785D01*
X-66338137Y42909810D01*
X-66341813Y43130790D01*
X-66350294Y43304760D01*
X-66365351Y43450756D01*
X-66388756Y43587815D01*
X-66422283Y43734972D01*
X-66451830Y43850762D01*
X-66497685Y44035724D01*
X-66531896Y44191711D01*
X-66550538Y44299600D01*
X-66551826Y44337818D01*
X-66523191Y44330783D01*
G37*
G36*
X-65649439Y47950960D02*
G01*
X-65661112Y47871676D01*
X-65701981Y47773641D01*
X-65718379Y47745914D01*
X-65842974Y47616365D01*
X-66020586Y47540711D01*
X-66259188Y47515592D01*
X-66264804Y47515582D01*
X-66510240Y47515582D01*
X-66413756Y47320213D01*
X-66352538Y47160271D01*
X-66304723Y46971855D01*
X-66290025Y46877969D01*
X-66262779Y46631094D01*
X-65988544Y46929101D01*
X-65691212Y47219695D01*
X-65372291Y47473791D01*
X-65057423Y47671130D01*
X-65033282Y47683805D01*
X-64922119Y47735671D01*
X-64876900Y47741853D01*
X-64898079Y47701479D01*
X-64986108Y47613678D01*
X-65139817Y47478958D01*
X-65504821Y47118742D01*
X-65838595Y46687922D01*
X-66134638Y46197124D01*
X-66386449Y45656971D01*
X-66567165Y45146380D01*
X-66638899Y44912730D01*
X-66690742Y44750573D01*
X-66726800Y44649944D01*
X-66751177Y44600878D01*
X-66767979Y44593408D01*
X-66781311Y44617570D01*
X-66782982Y44622450D01*
X-66803734Y44689707D01*
X-66841593Y44816529D01*
X-66890017Y44980918D01*
X-66915815Y45069184D01*
X-67067924Y45507183D01*
X-67270281Y45963085D01*
X-67507266Y46403013D01*
X-67601620Y46556556D01*
X-67719352Y46723712D01*
X-67873142Y46917552D01*
X-68047425Y47120817D01*
X-68226638Y47316244D01*
X-68395217Y47486576D01*
X-68537598Y47614550D01*
X-68594189Y47657319D01*
X-68668297Y47718025D01*
X-68676418Y47748388D01*
X-68630311Y47747866D01*
X-68541739Y47715917D01*
X-68442930Y47664285D01*
X-68143661Y47466673D01*
X-67848619Y47232506D01*
X-67583384Y46983672D01*
X-67389470Y46762914D01*
X-67152122Y46456733D01*
X-67109678Y46703746D01*
X-67090803Y46996908D01*
X-67141292Y47248289D01*
X-67177505Y47329927D01*
X-67242802Y47420782D01*
X-67288445Y47467994D01*
X-67144078Y47467994D01*
X-67114932Y47450530D01*
X-67067430Y47469548D01*
X-66980558Y47486690D01*
X-66943612Y47463245D01*
X-66890594Y47433378D01*
X-66873023Y47438898D01*
X-66879255Y47483370D01*
X-66912768Y47527658D01*
X-66954342Y47580643D01*
X-66932035Y47609022D01*
X-66912113Y47617514D01*
X-66871118Y47661382D01*
X-66876361Y47689173D01*
X-66917916Y47712695D01*
X-66949547Y47689474D01*
X-67009081Y47652401D01*
X-67065745Y47645372D01*
X-67088226Y47669264D01*
X-67081824Y47685766D01*
X-67085114Y47724972D01*
X-67100126Y47728312D01*
X-67141347Y47703348D01*
X-67120902Y47639968D01*
X-67092199Y47603865D01*
X-67061133Y47553375D01*
X-67092199Y47527991D01*
X-67140370Y47484384D01*
X-67144078Y47467994D01*
X-67288445Y47467994D01*
X-67340824Y47522173D01*
X-67447949Y47613284D01*
X-67540551Y47673295D01*
X-67581307Y47685766D01*
X-67640876Y47699905D01*
X-67633763Y47734585D01*
X-67570145Y47778201D01*
X-67465729Y47817599D01*
X-67360559Y47839618D01*
X-67244541Y47844151D01*
X-67094253Y47830416D01*
X-66890351Y47798336D01*
X-66542500Y47759007D01*
X-66244517Y47773359D01*
X-65980648Y47842968D01*
X-65850071Y47902370D01*
X-65748820Y47952776D01*
X-65682201Y47981240D01*
X-65672366Y47983589D01*
X-65649439Y47950960D01*
G37*
G36*
X-65515633Y51485448D02*
G01*
X-65422305Y51438777D01*
X-65293118Y51368411D01*
X-65145682Y51284480D01*
X-64997604Y51197115D01*
X-64866493Y51116443D01*
X-64769959Y51052596D01*
X-64736889Y51027384D01*
X-64676212Y50986414D01*
X-64559625Y50916679D01*
X-64404915Y50828570D01*
X-64259601Y50748553D01*
X-64081233Y50650495D01*
X-63920688Y50559856D01*
X-63797956Y50488058D01*
X-63740810Y50452124D01*
X-63645636Y50391175D01*
X-63516526Y50314146D01*
X-63373539Y50232267D01*
X-63236732Y50156763D01*
X-63126165Y50098864D01*
X-63061894Y50069796D01*
X-63055198Y50068346D01*
X-63042481Y50100144D01*
X-63051091Y50134375D01*
X-63054137Y50178364D01*
X-63030333Y50171593D01*
X-63002957Y50175727D01*
X-63014503Y50238530D01*
X-63026119Y50304589D01*
X-62995923Y50303700D01*
X-62993752Y50302349D01*
X-62961783Y50298883D01*
X-62971734Y50362034D01*
X-62973000Y50366168D01*
X-62984616Y50432227D01*
X-62954420Y50431338D01*
X-62952248Y50429988D01*
X-62920279Y50426521D01*
X-62930230Y50489673D01*
X-62931497Y50493807D01*
X-62943113Y50559865D01*
X-62912917Y50558976D01*
X-62910745Y50557626D01*
X-62878776Y50554160D01*
X-62888727Y50617311D01*
X-62889993Y50621445D01*
X-62901610Y50687504D01*
X-62871413Y50686614D01*
X-62869242Y50685264D01*
X-62837273Y50681798D01*
X-62847224Y50744949D01*
X-62848490Y50749083D01*
X-62860538Y50814897D01*
X-62831033Y50814831D01*
X-62825132Y50811251D01*
X-62789729Y50803806D01*
X-62798631Y50848469D01*
X-62803952Y50908064D01*
X-62761752Y50912305D01*
X-62684209Y50864958D01*
X-62599471Y50786828D01*
X-62486382Y50677406D01*
X-62370152Y50577409D01*
X-62353728Y50564643D01*
X-62253228Y50482023D01*
X-62128295Y50371073D01*
X-62054784Y50302349D01*
X-61918007Y50173770D01*
X-61771890Y50039948D01*
X-61708501Y49983254D01*
X-61585105Y49873581D01*
X-61466394Y49767023D01*
X-61423347Y49727977D01*
X-61354084Y49665120D01*
X-61257503Y49578090D01*
X-61125742Y49459837D01*
X-60950939Y49303309D01*
X-60725234Y49101456D01*
X-60593177Y48983421D01*
X-60459451Y48863142D01*
X-60301070Y48719595D01*
X-60170531Y48600507D01*
X-60023196Y48466673D01*
X-59869532Y48328870D01*
X-59755668Y48228229D01*
X-59648584Y48129378D01*
X-59608780Y48079571D01*
X-59635770Y48079707D01*
X-59729063Y48130689D01*
X-59788449Y48167831D01*
X-59908243Y48240772D01*
X-60065006Y48331329D01*
X-60202657Y48407762D01*
X-60330700Y48482388D01*
X-60423385Y48546197D01*
X-60461874Y48586123D01*
X-60462052Y48587672D01*
X-60487150Y48608860D01*
X-60498853Y48603486D01*
X-60551687Y48611960D01*
X-60586941Y48643521D01*
X-60654278Y48697155D01*
X-60689175Y48706872D01*
X-60751249Y48729906D01*
X-60850122Y48788250D01*
X-60901985Y48824017D01*
X-61037147Y48914694D01*
X-61175086Y48996724D01*
X-61209111Y49014740D01*
X-61322789Y49075461D01*
X-61472616Y49159523D01*
X-61603392Y49235381D01*
X-61750625Y49322297D01*
X-61886568Y49402488D01*
X-61972053Y49452859D01*
X-62059735Y49495818D01*
X-62108068Y49489398D01*
X-62127255Y49466077D01*
X-62148505Y49384370D01*
X-62143801Y49355699D01*
X-62152249Y49307768D01*
X-62169829Y49302517D01*
X-62197059Y49268831D01*
X-62193149Y49217366D01*
X-62190796Y49158905D01*
X-62213506Y49158875D01*
X-62238742Y49151011D01*
X-62231817Y49105751D01*
X-62219499Y49026828D01*
X-62208238Y48889443D01*
X-62200095Y48720217D01*
X-62198902Y48680437D01*
X-62196215Y48506186D01*
X-62203722Y48390208D01*
X-62227915Y48305769D01*
X-62275287Y48226133D01*
X-62325470Y48159248D01*
X-62406978Y48060423D01*
X-62469431Y47996705D01*
X-62490742Y47983589D01*
X-62501670Y48023008D01*
X-62507074Y48129066D01*
X-62506417Y48283464D01*
X-62502808Y48393581D01*
X-62497180Y48593997D01*
X-62501293Y48717647D01*
X-62515748Y48772340D01*
X-62532018Y48773984D01*
X-62559984Y48716956D01*
X-62576663Y48607032D01*
X-62578719Y48548298D01*
X-62588720Y48343884D01*
X-62615648Y48138906D01*
X-62654885Y47955730D01*
X-62701816Y47816721D01*
X-62743285Y47750928D01*
X-62816265Y47696385D01*
X-62936921Y47618989D01*
X-63079377Y47535323D01*
X-63081959Y47533874D01*
X-63215339Y47458263D01*
X-63281398Y47416212D01*
X-63285830Y47400796D01*
X-63234324Y47405094D01*
X-63180516Y47413984D01*
X-63045770Y47442284D01*
X-62929655Y47475030D01*
X-62915365Y47480181D01*
X-62831994Y47500021D01*
X-62791736Y47492857D01*
X-62797347Y47445669D01*
X-62835048Y47344899D01*
X-62896889Y47211504D01*
X-62903268Y47198809D01*
X-63012583Y47013773D01*
X-63157191Y46811761D01*
X-63318785Y46614891D01*
X-63479057Y46445276D01*
X-63619698Y46325032D01*
X-63635648Y46314138D01*
X-63761562Y46231329D01*
X-63637052Y46258509D01*
X-63361573Y46357008D01*
X-63086556Y46525148D01*
X-62827933Y46748967D01*
X-62601636Y47014504D01*
X-62423598Y47307797D01*
X-62411891Y47332098D01*
X-62341157Y47475169D01*
X-62281779Y47583158D01*
X-62244156Y47637496D01*
X-62239114Y47640556D01*
X-62199423Y47605809D01*
X-62181798Y47498643D01*
X-62187078Y47328903D01*
X-62201653Y47200654D01*
X-62294626Y46818483D01*
X-62460278Y46473708D01*
X-62693940Y46172838D01*
X-62990945Y45922383D01*
X-63211923Y45791654D01*
X-63348925Y45718911D01*
X-63410490Y45679086D01*
X-63397700Y45672110D01*
X-63311633Y45697917D01*
X-63153369Y45756437D01*
X-63035255Y45802816D01*
X-62855405Y45886979D01*
X-62657824Y45998246D01*
X-62508687Y46096270D01*
X-62384114Y46180594D01*
X-62286939Y46235369D01*
X-62234907Y46250859D01*
X-62231465Y46248363D01*
X-62233528Y46180367D01*
X-62280532Y46070596D01*
X-62360861Y45939560D01*
X-62462901Y45807768D01*
X-62510000Y45756547D01*
X-62641862Y45643868D01*
X-62805795Y45533456D01*
X-62904604Y45479666D01*
X-62984060Y45443045D01*
X-63058757Y45414941D01*
X-63141498Y45393847D01*
X-63245086Y45378255D01*
X-63382324Y45366659D01*
X-63566015Y45357552D01*
X-63808963Y45349424D01*
X-64072837Y45342129D01*
X-64390461Y45332699D01*
X-64638551Y45322561D01*
X-64830575Y45310424D01*
X-64980003Y45294995D01*
X-65100305Y45274982D01*
X-65204951Y45249094D01*
X-65276431Y45226673D01*
X-65505806Y45133599D01*
X-65745428Y45009610D01*
X-65966419Y44871363D01*
X-66139897Y44735514D01*
X-66158376Y44717999D01*
X-66272510Y44606530D01*
X-66272278Y44731492D01*
X-66255039Y44916086D01*
X-66199393Y45078331D01*
X-66098346Y45224132D01*
X-65944905Y45359391D01*
X-65732077Y45490014D01*
X-65452869Y45621904D01*
X-65451911Y45622282D01*
X-63616301Y45622282D01*
X-63595549Y45601009D01*
X-63574797Y45622282D01*
X-63595549Y45643555D01*
X-63616301Y45622282D01*
X-65451911Y45622282D01*
X-65100288Y45760965D01*
X-65016852Y45791422D01*
X-64621650Y45969678D01*
X-64289770Y46195244D01*
X-64025858Y46464928D01*
X-64013281Y46481141D01*
X-63898700Y46636505D01*
X-63840096Y46730927D01*
X-63837080Y46765924D01*
X-63889259Y46743017D01*
X-63958703Y46693122D01*
X-64101375Y46593476D01*
X-64253763Y46510518D01*
X-64436401Y46435197D01*
X-64669823Y46358463D01*
X-64813692Y46316252D01*
X-65159570Y46205809D01*
X-65435270Y46090554D01*
X-65653614Y45964578D01*
X-65768554Y45876133D01*
X-65851487Y45810401D01*
X-65890058Y45799974D01*
X-65898980Y45836034D01*
X-65868018Y45907190D01*
X-65784272Y46016038D01*
X-65661450Y46149337D01*
X-65513262Y46293844D01*
X-65353418Y46436319D01*
X-65195627Y46563520D01*
X-65053598Y46662205D01*
X-65027412Y46677862D01*
X-64882683Y46763508D01*
X-64809852Y46812884D01*
X-64810009Y46826798D01*
X-64884244Y46806060D01*
X-65033650Y46751476D01*
X-65095031Y46727951D01*
X-65380644Y46602602D01*
X-65613907Y46463027D01*
X-65804759Y46310001D01*
X-65892432Y46239768D01*
X-65953232Y46206963D01*
X-65965625Y46208245D01*
X-65958738Y46256606D01*
X-65909758Y46355050D01*
X-65828649Y46487383D01*
X-65725375Y46637409D01*
X-65609899Y46788935D01*
X-65603421Y46796955D01*
X-65550900Y46856118D01*
X-64736889Y46856118D01*
X-64716137Y46834845D01*
X-64695386Y46856118D01*
X-64716137Y46877391D01*
X-64736889Y46856118D01*
X-65550900Y46856118D01*
X-65481431Y46934372D01*
X-65336255Y47070768D01*
X-65156846Y47214643D01*
X-64932157Y47374499D01*
X-64651143Y47558836D01*
X-64445534Y47688062D01*
X-64232035Y47822975D01*
X-64024624Y47958195D01*
X-63842567Y48080877D01*
X-63705134Y48178178D01*
X-63667523Y48206682D01*
X-63505717Y48355110D01*
X-63330773Y48550074D01*
X-63166778Y48762051D01*
X-63037816Y48961522D01*
X-63011408Y49010831D01*
X-62982596Y49078548D01*
X-62984845Y49133596D01*
X-63027429Y49199142D01*
X-63119625Y49298352D01*
X-63131369Y49310439D01*
X-63268136Y49444046D01*
X-63418319Y49580594D01*
X-63491540Y49642885D01*
X-63634164Y49762437D01*
X-63783488Y49891503D01*
X-63838928Y49940708D01*
X-64041161Y50123293D01*
X-64243191Y50307231D01*
X-64424038Y50473341D01*
X-64560306Y50600172D01*
X-64670503Y50701892D01*
X-64806332Y50824571D01*
X-64888950Y50897994D01*
X-65009594Y51005390D01*
X-65117712Y51103410D01*
X-65171309Y51153271D01*
X-65260967Y51232752D01*
X-65377514Y51328895D01*
X-65416499Y51359661D01*
X-65504348Y51433789D01*
X-65552358Y51485839D01*
X-65555494Y51498296D01*
X-65515633Y51485448D01*
G37*
G36*
X-70495272Y50934443D02*
G01*
X-70431749Y50825754D01*
X-70348199Y50667327D01*
X-70251147Y50473134D01*
X-70147121Y50257148D01*
X-70042648Y50033344D01*
X-69944255Y49815693D01*
X-69858469Y49618169D01*
X-69791817Y49454746D01*
X-69750826Y49339395D01*
X-69741652Y49286917D01*
X-69787778Y49243460D01*
X-69892030Y49178512D01*
X-70035827Y49103101D01*
X-70112274Y49066958D01*
X-70460018Y48908116D01*
X-70350622Y48754311D01*
X-70243761Y48614259D01*
X-70129382Y48480541D01*
X-70021530Y48367691D01*
X-69934251Y48290244D01*
X-69881591Y48262734D01*
X-69876962Y48264150D01*
X-69878221Y48309305D01*
X-69911955Y48409895D01*
X-69971303Y48546424D01*
X-69989884Y48584998D01*
X-70057341Y48732416D01*
X-70103687Y48853524D01*
X-70120762Y48926409D01*
X-70119767Y48933836D01*
X-70095398Y48921488D01*
X-70044753Y48846422D01*
X-69976894Y48722916D01*
X-69943762Y48656587D01*
X-69853235Y48486971D01*
X-69772458Y48366809D01*
X-69711132Y48310323D01*
X-69706524Y48308746D01*
X-69649211Y48267071D01*
X-69641012Y48173038D01*
X-69641596Y48167574D01*
X-69642386Y48118227D01*
X-69625676Y48072877D01*
X-69581075Y48022477D01*
X-69498191Y47957984D01*
X-69366632Y47870352D01*
X-69176005Y47750536D01*
X-69128818Y47721259D01*
X-68806329Y47517135D01*
X-68545894Y47341972D01*
X-68335322Y47186680D01*
X-68162421Y47042171D01*
X-68014999Y46899359D01*
X-67988467Y46871242D01*
X-67892357Y46758587D01*
X-67791653Y46625664D01*
X-67698199Y46490322D01*
X-67623834Y46370408D01*
X-67580402Y46283769D01*
X-67576266Y46249978D01*
X-67615440Y46264080D01*
X-67701685Y46317280D01*
X-67805588Y46390301D01*
X-67933885Y46474451D01*
X-68097542Y46567370D01*
X-68276375Y46659293D01*
X-68450197Y46740458D01*
X-68598823Y46801099D01*
X-68702066Y46831452D01*
X-68721203Y46833192D01*
X-68720610Y46815151D01*
X-68659361Y46768422D01*
X-68550692Y46703087D01*
X-68549640Y46702501D01*
X-68423257Y46624017D01*
X-68276056Y46520242D01*
X-68123470Y46403725D01*
X-67980930Y46287014D01*
X-67863870Y46182660D01*
X-67787721Y46103211D01*
X-67766627Y46065794D01*
X-67792841Y46028953D01*
X-67845329Y46042330D01*
X-67871752Y46071282D01*
X-67933898Y46122183D01*
X-68059341Y46187734D01*
X-68231128Y46260845D01*
X-68432305Y46334425D01*
X-68645916Y46401382D01*
X-68691507Y46414140D01*
X-69048934Y46526212D01*
X-69331059Y46647252D01*
X-69545408Y46780637D01*
X-69590681Y46817510D01*
X-69635366Y46856118D01*
X-68845712Y46856118D01*
X-68824961Y46834845D01*
X-68804209Y46856118D01*
X-68824961Y46877391D01*
X-68845712Y46856118D01*
X-69635366Y46856118D01*
X-69733853Y46941210D01*
X-69652936Y46799037D01*
X-69506291Y46576112D01*
X-69333438Y46385119D01*
X-69121915Y46216928D01*
X-68859258Y46062409D01*
X-68533006Y45912434D01*
X-68335044Y45833579D01*
X-68116213Y45744402D01*
X-67905008Y45648778D01*
X-67724464Y45557732D01*
X-67597618Y45482287D01*
X-67590566Y45477317D01*
X-67487906Y45398218D01*
X-67414808Y45321118D01*
X-67361651Y45226633D01*
X-67318815Y45095381D01*
X-67276677Y44907980D01*
X-67255981Y44803271D01*
X-67251553Y44698642D01*
X-67289331Y44665096D01*
X-67364527Y44703574D01*
X-67432116Y44768650D01*
X-67516666Y44840307D01*
X-67648091Y44929627D01*
X-67798363Y45017602D01*
X-67802505Y45019827D01*
X-67975263Y45109328D01*
X-68128799Y45179127D01*
X-68277685Y45232046D01*
X-68436493Y45270906D01*
X-68619795Y45298529D01*
X-68842164Y45317735D01*
X-69118172Y45331346D01*
X-69462392Y45342184D01*
X-69468261Y45342343D01*
X-69770521Y45350800D01*
X-70002436Y45358753D01*
X-70176643Y45367775D01*
X-70305777Y45379444D01*
X-70402476Y45395334D01*
X-70479377Y45417021D01*
X-70549116Y45446082D01*
X-70624329Y45484092D01*
X-70630353Y45487248D01*
X-70848172Y45629373D01*
X-69952466Y45629373D01*
X-69946769Y45604080D01*
X-69924797Y45601009D01*
X-69890635Y45616576D01*
X-69897129Y45629373D01*
X-69946383Y45634465D01*
X-69952466Y45629373D01*
X-70848172Y45629373D01*
X-70911633Y45670781D01*
X-71122839Y45888172D01*
X-71217461Y46040285D01*
X-71273744Y46172840D01*
X-71279806Y46243033D01*
X-71236977Y46248087D01*
X-71147569Y46186070D01*
X-70967878Y46054445D01*
X-70739814Y45919614D01*
X-70495462Y45799302D01*
X-70320417Y45729120D01*
X-70186713Y45685161D01*
X-70085616Y45657486D01*
X-70027782Y45647431D01*
X-70023867Y45656334D01*
X-70084528Y45685533D01*
X-70136894Y45706088D01*
X-70438393Y45858287D01*
X-70724763Y46074048D01*
X-70970846Y46332466D01*
X-71085711Y46494477D01*
X-71184121Y46674643D01*
X-71253983Y46860721D01*
X-71298792Y47070885D01*
X-71322045Y47323307D01*
X-71325686Y47542592D01*
X-71198885Y47542592D01*
X-71191107Y47497576D01*
X-71151224Y47399226D01*
X-71087750Y47268419D01*
X-71084565Y47262278D01*
X-70866642Y46926383D01*
X-70593336Y46642462D01*
X-70277629Y46423486D01*
X-70209874Y46388296D01*
X-70027254Y46303149D01*
X-69904108Y46255485D01*
X-69843823Y46245661D01*
X-69849786Y46274033D01*
X-69925386Y46340955D01*
X-69952178Y46361242D01*
X-70199434Y46588614D01*
X-70428365Y46885538D01*
X-70627206Y47236743D01*
X-70628308Y47239033D01*
X-70740391Y47484204D01*
X-70808271Y47661402D01*
X-70831656Y47769617D01*
X-70830018Y47772543D01*
X-70505843Y47772543D01*
X-70472750Y47696208D01*
X-70433212Y47672548D01*
X-70353134Y47657567D01*
X-70263341Y47648702D01*
X-70194521Y47647842D01*
X-70177276Y47656807D01*
X-70220871Y47684502D01*
X-70309809Y47737913D01*
X-70350206Y47761737D01*
X-70446975Y47815976D01*
X-70492083Y47828009D01*
X-70505169Y47799201D01*
X-70505843Y47772543D01*
X-70830018Y47772543D01*
X-70810258Y47807841D01*
X-70790495Y47803873D01*
X-70737091Y47808817D01*
X-70720075Y47864299D01*
X-70736807Y47945757D01*
X-70784647Y48028628D01*
X-70818243Y48061987D01*
X-70878565Y48123643D01*
X-70911421Y48202835D01*
X-70925867Y48327350D01*
X-70928647Y48400690D01*
X-70941635Y48556268D01*
X-70966472Y48630987D01*
X-70997834Y48627238D01*
X-71030402Y48547412D01*
X-71058852Y48393902D01*
X-71065225Y48339297D01*
X-71077545Y48176406D01*
X-71070922Y48073259D01*
X-71042870Y48006197D01*
X-71028268Y47987706D01*
X-70976389Y47912445D01*
X-70962379Y47870264D01*
X-70950189Y47810012D01*
X-70918401Y47695274D01*
X-70878775Y47566390D01*
X-70763237Y47274622D01*
X-70611417Y46991576D01*
X-70440840Y46747922D01*
X-70357503Y46654024D01*
X-70260540Y46542667D01*
X-70229516Y46480420D01*
X-70260368Y46472247D01*
X-70349032Y46523112D01*
X-70420204Y46577431D01*
X-70600570Y46742319D01*
X-70782007Y46939581D01*
X-70943349Y47143956D01*
X-71063430Y47330181D01*
X-71083813Y47369481D01*
X-71140690Y47475185D01*
X-71184189Y47536159D01*
X-71198885Y47542592D01*
X-71325686Y47542592D01*
X-71327240Y47636161D01*
X-71325839Y47742395D01*
X-71320993Y47974312D01*
X-71315247Y48132186D01*
X-71306876Y48227062D01*
X-71294154Y48269985D01*
X-71275357Y48272000D01*
X-71248760Y48244153D01*
X-71247678Y48242788D01*
X-71182881Y48184765D01*
X-71148102Y48197298D01*
X-71157448Y48274934D01*
X-71181678Y48331892D01*
X-71237025Y48453637D01*
X-71318082Y48628542D01*
X-71419442Y48844984D01*
X-71441714Y48892179D01*
X-71042588Y48892179D01*
X-71013812Y48894953D01*
X-70987117Y48916211D01*
X-70932107Y48990648D01*
X-70920876Y49034722D01*
X-70939492Y49082473D01*
X-70980528Y49072377D01*
X-71021769Y49018329D01*
X-71038996Y48960852D01*
X-71042588Y48892179D01*
X-71441714Y48892179D01*
X-71535697Y49091336D01*
X-71611124Y49250295D01*
X-71732559Y49508124D01*
X-71840721Y49742434D01*
X-71930515Y49941803D01*
X-71990475Y50080115D01*
X-71710531Y50080115D01*
X-71694030Y50013494D01*
X-71649380Y49896169D01*
X-71585382Y49746853D01*
X-71510835Y49584259D01*
X-71434541Y49427096D01*
X-71365299Y49294079D01*
X-71311910Y49203918D01*
X-71284794Y49174879D01*
X-71254874Y49203116D01*
X-71266845Y49290491D01*
X-71321847Y49440994D01*
X-71421019Y49658617D01*
X-71425744Y49668408D01*
X-71498839Y49824580D01*
X-71552759Y49949430D01*
X-71580222Y50025552D01*
X-71581381Y50040366D01*
X-71523415Y50077117D01*
X-71412884Y50138452D01*
X-71268395Y50214907D01*
X-71108558Y50297021D01*
X-70951982Y50375328D01*
X-70817276Y50440367D01*
X-70723050Y50482675D01*
X-70689708Y50493807D01*
X-70655590Y50458500D01*
X-70594281Y50364216D01*
X-70515070Y50228413D01*
X-70427248Y50068547D01*
X-70340107Y49902074D01*
X-70262936Y49746451D01*
X-70205026Y49619134D01*
X-70175668Y49537581D01*
X-70173817Y49524475D01*
X-70207380Y49484956D01*
X-70294093Y49422683D01*
X-70381333Y49370442D01*
X-70494579Y49297452D01*
X-70569952Y49230084D01*
X-70588850Y49194549D01*
X-70572678Y49162092D01*
X-70517416Y49164390D01*
X-70412946Y49204359D01*
X-70249148Y49284914D01*
X-70216734Y49301777D01*
X-70103915Y49377807D01*
X-70051203Y49451452D01*
X-70049307Y49465678D01*
X-70066645Y49530683D01*
X-70113512Y49650244D01*
X-70182188Y49808259D01*
X-70264951Y49988627D01*
X-70354082Y50175249D01*
X-70441858Y50352024D01*
X-70520561Y50502850D01*
X-70582469Y50611627D01*
X-70619861Y50662254D01*
X-70623924Y50663991D01*
X-70672831Y50646684D01*
X-70781923Y50599187D01*
X-70936553Y50528135D01*
X-71122075Y50440164D01*
X-71184906Y50409847D01*
X-71414763Y50294866D01*
X-71574091Y50206173D01*
X-71669806Y50139431D01*
X-71708823Y50090303D01*
X-71710531Y50080115D01*
X-71990475Y50080115D01*
X-71996846Y50094811D01*
X-72034620Y50190035D01*
X-72041464Y50215025D01*
X-72005842Y50251857D01*
X-71908223Y50316184D01*
X-71762481Y50400981D01*
X-71582486Y50499222D01*
X-71382113Y50603881D01*
X-71175231Y50707931D01*
X-70975715Y50804347D01*
X-70797436Y50886103D01*
X-70654267Y50946171D01*
X-70560079Y50977528D01*
X-70532239Y50979420D01*
X-70495272Y50934443D01*
G37*
%TD*%
M02*
