%TF.GenerationSoftware,KiCad,Pcbnew,10.0.3*%
%TF.CreationDate,2026-08-07T02:41:41+08:00*%
%TF.ProjectId,vertex mk4,76657274-6578-4206-9d6b-342e6b696361,4.4*%
%TF.SameCoordinates,PX88601c0PY87fe740*%
%TF.FileFunction,Soldermask,Bot*%
%TF.FilePolarity,Negative*%
%FSLAX46Y46*%
G04 Gerber Fmt 4.6, Leading zero omitted, Abs format (unit mm)*
G04 Created by KiCad (PCBNEW 10.0.3) date 2026-08-07 02:41:41*
%MOMM*%
%LPD*%
G01*
G04 APERTURE LIST*
%ADD10R,0.850000X0.850000*%
%ADD11C,0.850000*%
%ADD12C,0.990600*%
%ADD13C,0.700000*%
%ADD14O,0.900000X2.400000*%
%ADD15O,0.900000X1.700000*%
G04 APERTURE END LIST*
D10*
%TO.C,J9*%
X-58449000Y55299000D03*
D11*
X-59449000Y55299000D03*
%TD*%
D12*
%TO.C,J2*%
X-77689000Y34699000D03*
X-72609000Y35715000D03*
X-72609000Y33683000D03*
%TD*%
D10*
%TO.C,J8*%
X-60449000Y33499000D03*
D11*
X-61449000Y33499000D03*
%TD*%
D10*
%TO.C,J6*%
X-56249000Y54299000D03*
D11*
X-56249000Y53299000D03*
X-56249000Y52299000D03*
X-56249000Y51299000D03*
X-56249000Y50299000D03*
X-56249000Y49299000D03*
X-56249000Y48299000D03*
X-56249000Y47299000D03*
X-56249000Y46299000D03*
X-56249000Y45299000D03*
X-56249000Y44299000D03*
X-56249000Y43299000D03*
X-56249000Y42299000D03*
X-56249000Y41299000D03*
X-56249000Y40299000D03*
X-56249000Y39299000D03*
X-56249000Y38299000D03*
X-56249000Y37299000D03*
X-56249000Y36299000D03*
X-56249000Y35299000D03*
X-56249000Y34299000D03*
X-56249000Y33299000D03*
%TD*%
D13*
%TO.C,J1*%
X-64899000Y65449000D03*
X-65749000Y65449000D03*
X-66599000Y65449000D03*
X-67449000Y65449000D03*
X-68299000Y65449000D03*
X-69149000Y65449000D03*
X-69999000Y65449000D03*
X-70849000Y65449000D03*
X-70849000Y66799000D03*
X-69999000Y66799000D03*
X-69149000Y66799000D03*
X-68299000Y66799000D03*
X-67449000Y66799000D03*
X-66599000Y66799000D03*
X-65749000Y66799000D03*
X-64899000Y66799000D03*
D14*
X-63549000Y66429000D03*
D15*
X-63549000Y69809000D03*
D14*
X-72199000Y66429000D03*
D15*
X-72199000Y69809000D03*
%TD*%
D10*
%TO.C,J4*%
X-76649000Y61699000D03*
D11*
X-76649000Y60699000D03*
X-76649000Y59699000D03*
X-76649000Y58699000D03*
X-76649000Y57699000D03*
X-76649000Y56699000D03*
X-76649000Y55699000D03*
X-76649000Y54699000D03*
X-76649000Y53699000D03*
X-76649000Y52699000D03*
X-76649000Y51699000D03*
X-76649000Y50699000D03*
X-76649000Y49699000D03*
X-76649000Y48699000D03*
X-76649000Y47699000D03*
X-76649000Y46699000D03*
%TD*%
D10*
%TO.C,J5*%
X-58649000Y70299000D03*
D11*
X-57649000Y70299000D03*
%TD*%
D10*
%TO.C,J3*%
X-77649000Y39099000D03*
D11*
X-76649000Y39099000D03*
X-75649000Y39099000D03*
X-74649000Y39099000D03*
X-73649000Y39099000D03*
%TD*%
D10*
%TO.C,J7*%
X-76449000Y70499000D03*
D11*
X-75449000Y70499000D03*
%TD*%
M02*
