%TF.GenerationSoftware,KiCad,Pcbnew,10.0.3*%
%TF.CreationDate,2026-08-07T02:41:41+08:00*%
%TF.ProjectId,vertex mk4,76657274-6578-4206-9d6b-342e6b696361,4.4*%
%TF.SameCoordinates,PX88601c0PY87fe740*%
%TF.FileFunction,Soldermask,Top*%
%TF.FilePolarity,Negative*%
%FSLAX46Y46*%
G04 Gerber Fmt 4.6, Leading zero omitted, Abs format (unit mm)*
G04 Created by KiCad (PCBNEW 10.0.3) date 2026-08-07 02:41:41*
%MOMM*%
%LPD*%
G01*
G04 APERTURE LIST*
G04 Aperture macros list*
%AMRoundRect*
0 Rectangle with rounded corners*
0 $1 Rounding radius*
0 $2 $3 $4 $5 $6 $7 $8 $9 X,Y pos of 4 corners*
0 Add a 4 corners polygon primitive as box body*
4,1,4,$2,$3,$4,$5,$6,$7,$8,$9,$2,$3,0*
0 Add four circle primitives for the rounded corners*
1,1,$1+$1,$2,$3*
1,1,$1+$1,$4,$5*
1,1,$1+$1,$6,$7*
1,1,$1+$1,$8,$9*
0 Add four rect primitives between the rounded corners*
20,1,$1+$1,$2,$3,$4,$5,0*
20,1,$1+$1,$4,$5,$6,$7,0*
20,1,$1+$1,$6,$7,$8,$9,0*
20,1,$1+$1,$8,$9,$2,$3,0*%
G04 Aperture macros list end*
%ADD10R,0.850000X0.850000*%
%ADD11C,0.850000*%
%ADD12RoundRect,0.237500X-0.237500X0.300000X-0.237500X-0.300000X0.237500X-0.300000X0.237500X0.300000X0*%
%ADD13RoundRect,0.140000X-0.140000X-0.170000X0.140000X-0.170000X0.140000X0.170000X-0.140000X0.170000X0*%
%ADD14RoundRect,0.250000X-0.475000X0.250000X-0.475000X-0.250000X0.475000X-0.250000X0.475000X0.250000X0*%
%ADD15RoundRect,0.150000X0.150000X-0.512500X0.150000X0.512500X-0.150000X0.512500X-0.150000X-0.512500X0*%
%ADD16RoundRect,0.140000X0.170000X-0.140000X0.170000X0.140000X-0.170000X0.140000X-0.170000X-0.140000X0*%
%ADD17C,0.990600*%
%ADD18C,0.787400*%
%ADD19RoundRect,0.135000X-0.185000X0.135000X-0.185000X-0.135000X0.185000X-0.135000X0.185000X0.135000X0*%
%ADD20RoundRect,0.220000X0.255000X-0.220000X0.255000X0.220000X-0.255000X0.220000X-0.255000X-0.220000X0*%
%ADD21RoundRect,0.225000X-0.250000X0.225000X-0.250000X-0.225000X0.250000X-0.225000X0.250000X0.225000X0*%
%ADD22RoundRect,0.075000X0.075000X-0.700000X0.075000X0.700000X-0.075000X0.700000X-0.075000X-0.700000X0*%
%ADD23RoundRect,0.075000X0.700000X-0.075000X0.700000X0.075000X-0.700000X0.075000X-0.700000X-0.075000X0*%
%ADD24RoundRect,0.135000X0.185000X-0.135000X0.185000X0.135000X-0.185000X0.135000X-0.185000X-0.135000X0*%
%ADD25RoundRect,0.225000X0.250000X-0.225000X0.250000X0.225000X-0.250000X0.225000X-0.250000X-0.225000X0*%
%ADD26C,0.700000*%
%ADD27O,0.900000X2.400000*%
%ADD28O,0.900000X1.700000*%
%ADD29RoundRect,0.375000X-0.375000X0.625000X-0.375000X-0.625000X0.375000X-0.625000X0.375000X0.625000X0*%
%ADD30RoundRect,0.500000X-1.400000X0.500000X-1.400000X-0.500000X1.400000X-0.500000X1.400000X0.500000X0*%
%ADD31RoundRect,0.140000X0.140000X0.170000X-0.140000X0.170000X-0.140000X-0.170000X0.140000X-0.170000X0*%
%ADD32R,1.700000X0.900000*%
%ADD33RoundRect,0.250000X0.450000X0.350000X-0.450000X0.350000X-0.450000X-0.350000X0.450000X-0.350000X0*%
%ADD34RoundRect,0.250000X0.650000X-0.412500X0.650000X0.412500X-0.650000X0.412500X-0.650000X-0.412500X0*%
%ADD35RoundRect,0.140000X-0.170000X0.140000X-0.170000X-0.140000X0.170000X-0.140000X0.170000X0.140000X0*%
G04 APERTURE END LIST*
D10*
%TO.C,J9*%
X-58449000Y55299000D03*
D11*
X-59449000Y55299000D03*
%TD*%
D12*
%TO.C,R3*%
X-76649000Y68161500D03*
X-76649000Y66436500D03*
%TD*%
D13*
%TO.C,C8*%
X-64129000Y37799000D03*
X-63169000Y37799000D03*
%TD*%
D14*
%TO.C,C13*%
X-63249000Y58049000D03*
X-63249000Y56149000D03*
%TD*%
D15*
%TO.C,U1*%
X-68811500Y60711500D03*
X-67861500Y60711500D03*
X-66911500Y60711500D03*
X-66911500Y62986500D03*
X-67861500Y62986500D03*
X-68811500Y62986500D03*
%TD*%
D16*
%TO.C,C5*%
X-60149000Y50819000D03*
X-60149000Y51779000D03*
%TD*%
D14*
%TO.C,C12*%
X-63649000Y63149000D03*
X-63649000Y61249000D03*
%TD*%
D16*
%TO.C,C10*%
X-65149000Y37819000D03*
X-65149000Y38779000D03*
%TD*%
D17*
%TO.C,J2*%
X-77689000Y34699000D03*
X-72609000Y35715000D03*
X-72609000Y33683000D03*
D18*
X-76419000Y34064000D03*
X-76419000Y35334000D03*
X-75149000Y34064000D03*
X-75149000Y35334000D03*
X-73879000Y34064000D03*
X-73879000Y35334000D03*
%TD*%
D19*
%TO.C,R2*%
X-61649000Y68309000D03*
X-61649000Y67289000D03*
%TD*%
D20*
%TO.C,FB1*%
X-60149000Y35509000D03*
X-60149000Y37089000D03*
%TD*%
D21*
%TO.C,C15*%
X-58249000Y51274000D03*
X-58249000Y49724000D03*
%TD*%
D22*
%TO.C,U3*%
X-69649000Y40449000D03*
X-69149000Y40449000D03*
X-68649000Y40449000D03*
X-68149000Y40449000D03*
X-67649000Y40449000D03*
X-67149000Y40449000D03*
X-66649000Y40449000D03*
X-66149000Y40449000D03*
X-65649000Y40449000D03*
X-65149000Y40449000D03*
X-64649000Y40449000D03*
X-64149000Y40449000D03*
X-63649000Y40449000D03*
X-63149000Y40449000D03*
X-62649000Y40449000D03*
X-62149000Y40449000D03*
D23*
X-60224000Y42374000D03*
X-60224000Y42874000D03*
X-60224000Y43374000D03*
X-60224000Y43874000D03*
X-60224000Y44374000D03*
X-60224000Y44874000D03*
X-60224000Y45374000D03*
X-60224000Y45874000D03*
X-60224000Y46374000D03*
X-60224000Y46874000D03*
X-60224000Y47374000D03*
X-60224000Y47874000D03*
X-60224000Y48374000D03*
X-60224000Y48874000D03*
X-60224000Y49374000D03*
X-60224000Y49874000D03*
D22*
X-62149000Y51799000D03*
X-62649000Y51799000D03*
X-63149000Y51799000D03*
X-63649000Y51799000D03*
X-64149000Y51799000D03*
X-64649000Y51799000D03*
X-65149000Y51799000D03*
X-65649000Y51799000D03*
X-66149000Y51799000D03*
X-66649000Y51799000D03*
X-67149000Y51799000D03*
X-67649000Y51799000D03*
X-68149000Y51799000D03*
X-68649000Y51799000D03*
X-69149000Y51799000D03*
X-69649000Y51799000D03*
D23*
X-71574000Y49874000D03*
X-71574000Y49374000D03*
X-71574000Y48874000D03*
X-71574000Y48374000D03*
X-71574000Y47874000D03*
X-71574000Y47374000D03*
X-71574000Y46874000D03*
X-71574000Y46374000D03*
X-71574000Y45874000D03*
X-71574000Y45374000D03*
X-71574000Y44874000D03*
X-71574000Y44374000D03*
X-71574000Y43874000D03*
X-71574000Y43374000D03*
X-71574000Y42874000D03*
X-71574000Y42374000D03*
%TD*%
D24*
%TO.C,R5*%
X-57900000Y47190000D03*
X-57900000Y48210000D03*
%TD*%
D10*
%TO.C,J8*%
X-60449000Y33499000D03*
D11*
X-61449000Y33499000D03*
%TD*%
D10*
%TO.C,J6*%
X-56249000Y54299000D03*
D11*
X-56249000Y53299000D03*
X-56249000Y52299000D03*
X-56249000Y51299000D03*
X-56249000Y50299000D03*
X-56249000Y49299000D03*
X-56249000Y48299000D03*
X-56249000Y47299000D03*
X-56249000Y46299000D03*
X-56249000Y45299000D03*
X-56249000Y44299000D03*
X-56249000Y43299000D03*
X-56249000Y42299000D03*
X-56249000Y41299000D03*
X-56249000Y40299000D03*
X-56249000Y39299000D03*
X-56249000Y38299000D03*
X-56249000Y37299000D03*
X-56249000Y36299000D03*
X-56249000Y35299000D03*
X-56249000Y34299000D03*
X-56249000Y33299000D03*
%TD*%
D13*
%TO.C,C4*%
X-58729000Y42699000D03*
X-57769000Y42699000D03*
%TD*%
D25*
%TO.C,C16*%
X-70149000Y54024000D03*
X-70149000Y55574000D03*
%TD*%
D26*
%TO.C,J1*%
X-64899000Y65449000D03*
X-65749000Y65449000D03*
X-66599000Y65449000D03*
X-67449000Y65449000D03*
X-68299000Y65449000D03*
X-69149000Y65449000D03*
X-69999000Y65449000D03*
X-70849000Y65449000D03*
X-70849000Y66799000D03*
X-69999000Y66799000D03*
X-69149000Y66799000D03*
X-68299000Y66799000D03*
X-67449000Y66799000D03*
X-66599000Y66799000D03*
X-65749000Y66799000D03*
X-64899000Y66799000D03*
D27*
X-63549000Y66429000D03*
D28*
X-63549000Y69809000D03*
D27*
X-72199000Y66429000D03*
D28*
X-72199000Y69809000D03*
%TD*%
D24*
%TO.C,R4*%
X-74049000Y43814000D03*
X-74049000Y44834000D03*
%TD*%
D10*
%TO.C,J4*%
X-76649000Y61699000D03*
D11*
X-76649000Y60699000D03*
X-76649000Y59699000D03*
X-76649000Y58699000D03*
X-76649000Y57699000D03*
X-76649000Y56699000D03*
X-76649000Y55699000D03*
X-76649000Y54699000D03*
X-76649000Y53699000D03*
X-76649000Y52699000D03*
X-76649000Y51699000D03*
X-76649000Y50699000D03*
X-76649000Y49699000D03*
X-76649000Y48699000D03*
X-76649000Y47699000D03*
X-76649000Y46699000D03*
%TD*%
D29*
%TO.C,U2*%
X-56349000Y64049000D03*
X-58649000Y64049000D03*
D30*
X-58649000Y57749000D03*
D29*
X-60949000Y64049000D03*
%TD*%
D31*
%TO.C,C14*%
X-67169000Y33799000D03*
X-68129000Y33799000D03*
%TD*%
D32*
%TO.C,SW2*%
X-76199000Y41424000D03*
X-76199000Y44824000D03*
%TD*%
D16*
%TO.C,C6*%
X-70649000Y51799000D03*
X-70649000Y52759000D03*
%TD*%
D33*
%TO.C,X1*%
X-67549000Y36599000D03*
X-69749000Y36599000D03*
X-69749000Y34999000D03*
X-67549000Y34999000D03*
%TD*%
D34*
%TO.C,C9*%
X-74649000Y65236500D03*
X-74649000Y68361500D03*
%TD*%
D35*
%TO.C,C11*%
X-71049000Y36279000D03*
X-71049000Y35319000D03*
%TD*%
D24*
%TO.C,R1*%
X-65449000Y62789000D03*
X-65449000Y63809000D03*
%TD*%
D31*
%TO.C,C3*%
X-70519000Y39799000D03*
X-71479000Y39799000D03*
%TD*%
%TO.C,C7*%
X-71669000Y41299000D03*
X-72629000Y41299000D03*
%TD*%
D21*
%TO.C,C1*%
X-61649000Y37074000D03*
X-61649000Y35524000D03*
%TD*%
D16*
%TO.C,C2*%
X-64849000Y57419000D03*
X-64849000Y58379000D03*
%TD*%
D10*
%TO.C,J5*%
X-58649000Y70299000D03*
D11*
X-57649000Y70299000D03*
%TD*%
D10*
%TO.C,J3*%
X-77649000Y39099000D03*
D11*
X-76649000Y39099000D03*
X-75649000Y39099000D03*
X-74649000Y39099000D03*
X-73649000Y39099000D03*
%TD*%
D32*
%TO.C,SW1*%
X-64149000Y33099000D03*
X-64149000Y36499000D03*
%TD*%
D10*
%TO.C,J7*%
X-76449000Y70499000D03*
D11*
X-75449000Y70499000D03*
%TD*%
M02*
