%TF.GenerationSoftware,KiCad,Pcbnew,10.0.3*%
%TF.CreationDate,2026-08-05T23:26:54+08:00*%
%TF.ProjectId,vertex mk4,76657274-6578-4206-9d6b-342e6b696361,4.4*%
%TF.SameCoordinates,PX88601c0PY87fe740*%
%TF.FileFunction,Copper,L1,Top*%
%TF.FilePolarity,Positive*%
%FSLAX46Y46*%
G04 Gerber Fmt 4.6, Leading zero omitted, Abs format (unit mm)*
G04 Created by KiCad (PCBNEW 10.0.3) date 2026-08-05 23:26:54*
%MOMM*%
%LPD*%
G01*
G04 APERTURE LIST*
G04 Aperture macros list*
%AMRoundRect*
0 Rectangle with rounded corners*
0 $1 Rounding radius*
0 $2 $3 $4 $5 $6 $7 $8 $9 X,Y pos of 4 corners*
0 Add a 4 corners polygon primitive as box body*
4,1,4,$2,$3,$4,$5,$6,$7,$8,$9,$2,$3,0*
0 Add four circle primitives for the rounded corners*
1,1,$1+$1,$2,$3*
1,1,$1+$1,$4,$5*
1,1,$1+$1,$6,$7*
1,1,$1+$1,$8,$9*
0 Add four rect primitives between the rounded corners*
20,1,$1+$1,$2,$3,$4,$5,0*
20,1,$1+$1,$4,$5,$6,$7,0*
20,1,$1+$1,$6,$7,$8,$9,0*
20,1,$1+$1,$8,$9,$2,$3,0*%
G04 Aperture macros list end*
%ADD10C,0.150000*%
%ADD11C,0.300000*%
%ADD12C,0.400000*%
%TA.AperFunction,ComponentPad*%
%ADD13R,0.850000X0.850000*%
%TD*%
%TA.AperFunction,ComponentPad*%
%ADD14C,0.850000*%
%TD*%
%TA.AperFunction,SMDPad,CuDef*%
%ADD15RoundRect,0.237500X-0.237500X0.300000X-0.237500X-0.300000X0.237500X-0.300000X0.237500X0.300000X0*%
%TD*%
%TA.AperFunction,SMDPad,CuDef*%
%ADD16RoundRect,0.140000X-0.140000X-0.170000X0.140000X-0.170000X0.140000X0.170000X-0.140000X0.170000X0*%
%TD*%
%TA.AperFunction,SMDPad,CuDef*%
%ADD17RoundRect,0.250000X-0.475000X0.250000X-0.475000X-0.250000X0.475000X-0.250000X0.475000X0.250000X0*%
%TD*%
%TA.AperFunction,SMDPad,CuDef*%
%ADD18RoundRect,0.150000X0.150000X-0.512500X0.150000X0.512500X-0.150000X0.512500X-0.150000X-0.512500X0*%
%TD*%
%TA.AperFunction,SMDPad,CuDef*%
%ADD19RoundRect,0.140000X0.170000X-0.140000X0.170000X0.140000X-0.170000X0.140000X-0.170000X-0.140000X0*%
%TD*%
%TA.AperFunction,ConnectorPad*%
%ADD20C,0.787400*%
%TD*%
%TA.AperFunction,SMDPad,CuDef*%
%ADD21RoundRect,0.135000X-0.185000X0.135000X-0.185000X-0.135000X0.185000X-0.135000X0.185000X0.135000X0*%
%TD*%
%TA.AperFunction,SMDPad,CuDef*%
%ADD22RoundRect,0.220000X0.255000X-0.220000X0.255000X0.220000X-0.255000X0.220000X-0.255000X-0.220000X0*%
%TD*%
%TA.AperFunction,SMDPad,CuDef*%
%ADD23RoundRect,0.225000X-0.250000X0.225000X-0.250000X-0.225000X0.250000X-0.225000X0.250000X0.225000X0*%
%TD*%
%TA.AperFunction,SMDPad,CuDef*%
%ADD24RoundRect,0.075000X0.075000X-0.700000X0.075000X0.700000X-0.075000X0.700000X-0.075000X-0.700000X0*%
%TD*%
%TA.AperFunction,SMDPad,CuDef*%
%ADD25RoundRect,0.075000X0.700000X-0.075000X0.700000X0.075000X-0.700000X0.075000X-0.700000X-0.075000X0*%
%TD*%
%TA.AperFunction,SMDPad,CuDef*%
%ADD26RoundRect,0.225000X0.250000X-0.225000X0.250000X0.225000X-0.250000X0.225000X-0.250000X-0.225000X0*%
%TD*%
%TA.AperFunction,ComponentPad*%
%ADD27C,0.700000*%
%TD*%
%TA.AperFunction,ComponentPad*%
%ADD28O,0.900000X2.400000*%
%TD*%
%TA.AperFunction,ComponentPad*%
%ADD29O,0.900000X1.700000*%
%TD*%
%TA.AperFunction,SMDPad,CuDef*%
%ADD30RoundRect,0.135000X0.185000X-0.135000X0.185000X0.135000X-0.185000X0.135000X-0.185000X-0.135000X0*%
%TD*%
%TA.AperFunction,SMDPad,CuDef*%
%ADD31RoundRect,0.375000X-0.375000X0.625000X-0.375000X-0.625000X0.375000X-0.625000X0.375000X0.625000X0*%
%TD*%
%TA.AperFunction,SMDPad,CuDef*%
%ADD32RoundRect,0.500000X-1.400000X0.500000X-1.400000X-0.500000X1.400000X-0.500000X1.400000X0.500000X0*%
%TD*%
%TA.AperFunction,SMDPad,CuDef*%
%ADD33RoundRect,0.140000X0.140000X0.170000X-0.140000X0.170000X-0.140000X-0.170000X0.140000X-0.170000X0*%
%TD*%
%TA.AperFunction,SMDPad,CuDef*%
%ADD34R,1.700000X0.900000*%
%TD*%
%TA.AperFunction,SMDPad,CuDef*%
%ADD35RoundRect,0.250000X0.450000X0.350000X-0.450000X0.350000X-0.450000X-0.350000X0.450000X-0.350000X0*%
%TD*%
%TA.AperFunction,SMDPad,CuDef*%
%ADD36RoundRect,0.250000X0.650000X-0.412500X0.650000X0.412500X-0.650000X0.412500X-0.650000X-0.412500X0*%
%TD*%
%TA.AperFunction,SMDPad,CuDef*%
%ADD37RoundRect,0.140000X-0.170000X0.140000X-0.170000X-0.140000X0.170000X-0.140000X0.170000X0.140000X0*%
%TD*%
%TA.AperFunction,ViaPad*%
%ADD38C,0.600000*%
%TD*%
%TA.AperFunction,Conductor*%
%ADD39C,0.200000*%
%TD*%
%TA.AperFunction,Conductor*%
%ADD40C,0.500000*%
%TD*%
%TA.AperFunction,Conductor*%
%ADD41C,0.400000*%
%TD*%
%TA.AperFunction,Conductor*%
%ADD42C,0.150000*%
%TD*%
%TA.AperFunction,Conductor*%
%ADD43C,0.300000*%
%TD*%
G04 APERTURE END LIST*
D10*
X-114994200Y-23407200D02*
X-6994200Y-23407200D01*
X-6994200Y-55407200D01*
X-114994200Y-55407200D01*
X-114994200Y-23407200D01*
X-133000000Y132600000D02*
X-4994200Y132600000D01*
X-4994200Y-57407200D01*
X-133000000Y-57407200D01*
X-133000000Y132600000D01*
X-131000000Y130600000D02*
X-6994200Y130600000D01*
X-6994200Y-55407200D01*
X-131000000Y-55407200D01*
X-131000000Y130600000D01*
X-83000000Y130600000D02*
X-83000000Y132600000D01*
X-33000000Y130600000D02*
X-33000000Y132600000D01*
X-106910840Y131006396D02*
X-107653697Y131006396D01*
X-107282269Y131006396D02*
X-107282269Y132306396D01*
X-107282269Y132306396D02*
X-107406078Y132120681D01*
X-107406078Y132120681D02*
X-107529888Y131996872D01*
X-107529888Y131996872D02*
X-107653697Y131934967D01*
X-57653697Y132182586D02*
X-57591793Y132244491D01*
X-57591793Y132244491D02*
X-57467983Y132306396D01*
X-57467983Y132306396D02*
X-57158459Y132306396D01*
X-57158459Y132306396D02*
X-57034650Y132244491D01*
X-57034650Y132244491D02*
X-56972745Y132182586D01*
X-56972745Y132182586D02*
X-56910840Y132058777D01*
X-56910840Y132058777D02*
X-56910840Y131934967D01*
X-56910840Y131934967D02*
X-56972745Y131749253D01*
X-56972745Y131749253D02*
X-57715602Y131006396D01*
X-57715602Y131006396D02*
X-56910840Y131006396D01*
X-7715602Y132306396D02*
X-6910840Y132306396D01*
X-6910840Y132306396D02*
X-7344174Y131811158D01*
X-7344174Y131811158D02*
X-7158459Y131811158D01*
X-7158459Y131811158D02*
X-7034650Y131749253D01*
X-7034650Y131749253D02*
X-6972745Y131687348D01*
X-6972745Y131687348D02*
X-6910840Y131563539D01*
X-6910840Y131563539D02*
X-6910840Y131254015D01*
X-6910840Y131254015D02*
X-6972745Y131130205D01*
X-6972745Y131130205D02*
X-7034650Y131068300D01*
X-7034650Y131068300D02*
X-7158459Y131006396D01*
X-7158459Y131006396D02*
X-7529888Y131006396D01*
X-7529888Y131006396D02*
X-7653697Y131068300D01*
X-7653697Y131068300D02*
X-7715602Y131130205D01*
X-83000000Y-55407200D02*
X-83000000Y-57407200D01*
X-33000000Y-55407200D02*
X-33000000Y-57407200D01*
X-106910840Y-57000804D02*
X-107653697Y-57000804D01*
X-107282269Y-57000804D02*
X-107282269Y-55700804D01*
X-107282269Y-55700804D02*
X-107406078Y-55886519D01*
X-107406078Y-55886519D02*
X-107529888Y-56010328D01*
X-107529888Y-56010328D02*
X-107653697Y-56072233D01*
X-57653697Y-55824614D02*
X-57591793Y-55762709D01*
X-57591793Y-55762709D02*
X-57467983Y-55700804D01*
X-57467983Y-55700804D02*
X-57158459Y-55700804D01*
X-57158459Y-55700804D02*
X-57034650Y-55762709D01*
X-57034650Y-55762709D02*
X-56972745Y-55824614D01*
X-56972745Y-55824614D02*
X-56910840Y-55948423D01*
X-56910840Y-55948423D02*
X-56910840Y-56072233D01*
X-56910840Y-56072233D02*
X-56972745Y-56257947D01*
X-56972745Y-56257947D02*
X-57715602Y-57000804D01*
X-57715602Y-57000804D02*
X-56910840Y-57000804D01*
X-7715602Y-55700804D02*
X-6910840Y-55700804D01*
X-6910840Y-55700804D02*
X-7344174Y-56196042D01*
X-7344174Y-56196042D02*
X-7158459Y-56196042D01*
X-7158459Y-56196042D02*
X-7034650Y-56257947D01*
X-7034650Y-56257947D02*
X-6972745Y-56319852D01*
X-6972745Y-56319852D02*
X-6910840Y-56443661D01*
X-6910840Y-56443661D02*
X-6910840Y-56753185D01*
X-6910840Y-56753185D02*
X-6972745Y-56876995D01*
X-6972745Y-56876995D02*
X-7034650Y-56938900D01*
X-7034650Y-56938900D02*
X-7158459Y-57000804D01*
X-7158459Y-57000804D02*
X-7529888Y-57000804D01*
X-7529888Y-57000804D02*
X-7653697Y-56938900D01*
X-7653697Y-56938900D02*
X-7715602Y-56876995D01*
X-133000000Y82600000D02*
X-131000000Y82600000D01*
X-133000000Y32600000D02*
X-131000000Y32600000D01*
X-133000000Y-17400000D02*
X-131000000Y-17400000D01*
X-132309524Y107377824D02*
X-131690477Y107377824D01*
X-132433334Y107006396D02*
X-132000001Y108306396D01*
X-132000001Y108306396D02*
X-131566667Y107006396D01*
X-131907143Y57687348D02*
X-131721429Y57625443D01*
X-131721429Y57625443D02*
X-131659524Y57563539D01*
X-131659524Y57563539D02*
X-131597620Y57439729D01*
X-131597620Y57439729D02*
X-131597620Y57254015D01*
X-131597620Y57254015D02*
X-131659524Y57130205D01*
X-131659524Y57130205D02*
X-131721429Y57068300D01*
X-131721429Y57068300D02*
X-131845239Y57006396D01*
X-131845239Y57006396D02*
X-132340477Y57006396D01*
X-132340477Y57006396D02*
X-132340477Y58306396D01*
X-132340477Y58306396D02*
X-131907143Y58306396D01*
X-131907143Y58306396D02*
X-131783334Y58244491D01*
X-131783334Y58244491D02*
X-131721429Y58182586D01*
X-131721429Y58182586D02*
X-131659524Y58058777D01*
X-131659524Y58058777D02*
X-131659524Y57934967D01*
X-131659524Y57934967D02*
X-131721429Y57811158D01*
X-131721429Y57811158D02*
X-131783334Y57749253D01*
X-131783334Y57749253D02*
X-131907143Y57687348D01*
X-131907143Y57687348D02*
X-132340477Y57687348D01*
X-131597620Y7130205D02*
X-131659524Y7068300D01*
X-131659524Y7068300D02*
X-131845239Y7006396D01*
X-131845239Y7006396D02*
X-131969048Y7006396D01*
X-131969048Y7006396D02*
X-132154762Y7068300D01*
X-132154762Y7068300D02*
X-132278572Y7192110D01*
X-132278572Y7192110D02*
X-132340477Y7315920D01*
X-132340477Y7315920D02*
X-132402381Y7563539D01*
X-132402381Y7563539D02*
X-132402381Y7749253D01*
X-132402381Y7749253D02*
X-132340477Y7996872D01*
X-132340477Y7996872D02*
X-132278572Y8120681D01*
X-132278572Y8120681D02*
X-132154762Y8244491D01*
X-132154762Y8244491D02*
X-131969048Y8306396D01*
X-131969048Y8306396D02*
X-131845239Y8306396D01*
X-131845239Y8306396D02*
X-131659524Y8244491D01*
X-131659524Y8244491D02*
X-131597620Y8182586D01*
X-132340477Y-42993604D02*
X-132340477Y-41693604D01*
X-132340477Y-41693604D02*
X-132030953Y-41693604D01*
X-132030953Y-41693604D02*
X-131845239Y-41755509D01*
X-131845239Y-41755509D02*
X-131721429Y-41879319D01*
X-131721429Y-41879319D02*
X-131659524Y-42003128D01*
X-131659524Y-42003128D02*
X-131597620Y-42250747D01*
X-131597620Y-42250747D02*
X-131597620Y-42436461D01*
X-131597620Y-42436461D02*
X-131659524Y-42684080D01*
X-131659524Y-42684080D02*
X-131721429Y-42807890D01*
X-131721429Y-42807890D02*
X-131845239Y-42931700D01*
X-131845239Y-42931700D02*
X-132030953Y-42993604D01*
X-132030953Y-42993604D02*
X-132340477Y-42993604D01*
X-4994200Y82600000D02*
X-6994200Y82600000D01*
X-4994200Y32600000D02*
X-6994200Y32600000D01*
X-4994200Y-17400000D02*
X-6994200Y-17400000D01*
X-6303724Y107377824D02*
X-5684677Y107377824D01*
X-6427534Y107006396D02*
X-5994201Y108306396D01*
X-5994201Y108306396D02*
X-5560867Y107006396D01*
X-5901343Y57687348D02*
X-5715629Y57625443D01*
X-5715629Y57625443D02*
X-5653724Y57563539D01*
X-5653724Y57563539D02*
X-5591820Y57439729D01*
X-5591820Y57439729D02*
X-5591820Y57254015D01*
X-5591820Y57254015D02*
X-5653724Y57130205D01*
X-5653724Y57130205D02*
X-5715629Y57068300D01*
X-5715629Y57068300D02*
X-5839439Y57006396D01*
X-5839439Y57006396D02*
X-6334677Y57006396D01*
X-6334677Y57006396D02*
X-6334677Y58306396D01*
X-6334677Y58306396D02*
X-5901343Y58306396D01*
X-5901343Y58306396D02*
X-5777534Y58244491D01*
X-5777534Y58244491D02*
X-5715629Y58182586D01*
X-5715629Y58182586D02*
X-5653724Y58058777D01*
X-5653724Y58058777D02*
X-5653724Y57934967D01*
X-5653724Y57934967D02*
X-5715629Y57811158D01*
X-5715629Y57811158D02*
X-5777534Y57749253D01*
X-5777534Y57749253D02*
X-5901343Y57687348D01*
X-5901343Y57687348D02*
X-6334677Y57687348D01*
X-5591820Y7130205D02*
X-5653724Y7068300D01*
X-5653724Y7068300D02*
X-5839439Y7006396D01*
X-5839439Y7006396D02*
X-5963248Y7006396D01*
X-5963248Y7006396D02*
X-6148962Y7068300D01*
X-6148962Y7068300D02*
X-6272772Y7192110D01*
X-6272772Y7192110D02*
X-6334677Y7315920D01*
X-6334677Y7315920D02*
X-6396581Y7563539D01*
X-6396581Y7563539D02*
X-6396581Y7749253D01*
X-6396581Y7749253D02*
X-6334677Y7996872D01*
X-6334677Y7996872D02*
X-6272772Y8120681D01*
X-6272772Y8120681D02*
X-6148962Y8244491D01*
X-6148962Y8244491D02*
X-5963248Y8306396D01*
X-5963248Y8306396D02*
X-5839439Y8306396D01*
X-5839439Y8306396D02*
X-5653724Y8244491D01*
X-5653724Y8244491D02*
X-5591820Y8182586D01*
X-6334677Y-42993604D02*
X-6334677Y-41693604D01*
X-6334677Y-41693604D02*
X-6025153Y-41693604D01*
X-6025153Y-41693604D02*
X-5839439Y-41755509D01*
X-5839439Y-41755509D02*
X-5715629Y-41879319D01*
X-5715629Y-41879319D02*
X-5653724Y-42003128D01*
X-5653724Y-42003128D02*
X-5591820Y-42250747D01*
X-5591820Y-42250747D02*
X-5591820Y-42436461D01*
X-5591820Y-42436461D02*
X-5653724Y-42684080D01*
X-5653724Y-42684080D02*
X-5715629Y-42807890D01*
X-5715629Y-42807890D02*
X-5839439Y-42931700D01*
X-5839439Y-42931700D02*
X-6025153Y-42993604D01*
X-6025153Y-42993604D02*
X-6334677Y-42993604D01*
X-91538374Y-51193328D02*
X-91538374Y-49693328D01*
X-91538374Y-49693328D02*
X-91181231Y-49693328D01*
X-91181231Y-49693328D02*
X-90966945Y-49764757D01*
X-90966945Y-49764757D02*
X-90824088Y-49907614D01*
X-90824088Y-49907614D02*
X-90752659Y-50050471D01*
X-90752659Y-50050471D02*
X-90681231Y-50336185D01*
X-90681231Y-50336185D02*
X-90681231Y-50550471D01*
X-90681231Y-50550471D02*
X-90752659Y-50836185D01*
X-90752659Y-50836185D02*
X-90824088Y-50979042D01*
X-90824088Y-50979042D02*
X-90966945Y-51121900D01*
X-90966945Y-51121900D02*
X-91181231Y-51193328D01*
X-91181231Y-51193328D02*
X-91538374Y-51193328D01*
X-89395516Y-51193328D02*
X-89395516Y-50407614D01*
X-89395516Y-50407614D02*
X-89466945Y-50264757D01*
X-89466945Y-50264757D02*
X-89609802Y-50193328D01*
X-89609802Y-50193328D02*
X-89895516Y-50193328D01*
X-89895516Y-50193328D02*
X-90038374Y-50264757D01*
X-89395516Y-51121900D02*
X-89538374Y-51193328D01*
X-89538374Y-51193328D02*
X-89895516Y-51193328D01*
X-89895516Y-51193328D02*
X-90038374Y-51121900D01*
X-90038374Y-51121900D02*
X-90109802Y-50979042D01*
X-90109802Y-50979042D02*
X-90109802Y-50836185D01*
X-90109802Y-50836185D02*
X-90038374Y-50693328D01*
X-90038374Y-50693328D02*
X-89895516Y-50621900D01*
X-89895516Y-50621900D02*
X-89538374Y-50621900D01*
X-89538374Y-50621900D02*
X-89395516Y-50550471D01*
X-88895516Y-50193328D02*
X-88324088Y-50193328D01*
X-88681231Y-49693328D02*
X-88681231Y-50979042D01*
X-88681231Y-50979042D02*
X-88609802Y-51121900D01*
X-88609802Y-51121900D02*
X-88466945Y-51193328D01*
X-88466945Y-51193328D02*
X-88324088Y-51193328D01*
X-87252659Y-51121900D02*
X-87395516Y-51193328D01*
X-87395516Y-51193328D02*
X-87681230Y-51193328D01*
X-87681230Y-51193328D02*
X-87824088Y-51121900D01*
X-87824088Y-51121900D02*
X-87895516Y-50979042D01*
X-87895516Y-50979042D02*
X-87895516Y-50407614D01*
X-87895516Y-50407614D02*
X-87824088Y-50264757D01*
X-87824088Y-50264757D02*
X-87681230Y-50193328D01*
X-87681230Y-50193328D02*
X-87395516Y-50193328D01*
X-87395516Y-50193328D02*
X-87252659Y-50264757D01*
X-87252659Y-50264757D02*
X-87181230Y-50407614D01*
X-87181230Y-50407614D02*
X-87181230Y-50550471D01*
X-87181230Y-50550471D02*
X-87895516Y-50693328D01*
X-86538374Y-51050471D02*
X-86466945Y-51121900D01*
X-86466945Y-51121900D02*
X-86538374Y-51193328D01*
X-86538374Y-51193328D02*
X-86609802Y-51121900D01*
X-86609802Y-51121900D02*
X-86538374Y-51050471D01*
X-86538374Y-51050471D02*
X-86538374Y-51193328D01*
X-86538374Y-50264757D02*
X-86466945Y-50336185D01*
X-86466945Y-50336185D02*
X-86538374Y-50407614D01*
X-86538374Y-50407614D02*
X-86609802Y-50336185D01*
X-86609802Y-50336185D02*
X-86538374Y-50264757D01*
X-86538374Y-50264757D02*
X-86538374Y-50407614D01*
X-114994200Y-51907200D02*
X-6994200Y-51907200D01*
X-113538374Y-53993328D02*
X-113538374Y-52493328D01*
X-112681231Y-53993328D02*
X-113324088Y-53136185D01*
X-112681231Y-52493328D02*
X-113538374Y-53350471D01*
X-112038374Y-53993328D02*
X-112038374Y-52993328D01*
X-112038374Y-52493328D02*
X-112109802Y-52564757D01*
X-112109802Y-52564757D02*
X-112038374Y-52636185D01*
X-112038374Y-52636185D02*
X-111966945Y-52564757D01*
X-111966945Y-52564757D02*
X-112038374Y-52493328D01*
X-112038374Y-52493328D02*
X-112038374Y-52636185D01*
X-110466945Y-53850471D02*
X-110538373Y-53921900D01*
X-110538373Y-53921900D02*
X-110752659Y-53993328D01*
X-110752659Y-53993328D02*
X-110895516Y-53993328D01*
X-110895516Y-53993328D02*
X-111109802Y-53921900D01*
X-111109802Y-53921900D02*
X-111252659Y-53779042D01*
X-111252659Y-53779042D02*
X-111324088Y-53636185D01*
X-111324088Y-53636185D02*
X-111395516Y-53350471D01*
X-111395516Y-53350471D02*
X-111395516Y-53136185D01*
X-111395516Y-53136185D02*
X-111324088Y-52850471D01*
X-111324088Y-52850471D02*
X-111252659Y-52707614D01*
X-111252659Y-52707614D02*
X-111109802Y-52564757D01*
X-111109802Y-52564757D02*
X-110895516Y-52493328D01*
X-110895516Y-52493328D02*
X-110752659Y-52493328D01*
X-110752659Y-52493328D02*
X-110538373Y-52564757D01*
X-110538373Y-52564757D02*
X-110466945Y-52636185D01*
X-109181230Y-53993328D02*
X-109181230Y-53207614D01*
X-109181230Y-53207614D02*
X-109252659Y-53064757D01*
X-109252659Y-53064757D02*
X-109395516Y-52993328D01*
X-109395516Y-52993328D02*
X-109681230Y-52993328D01*
X-109681230Y-52993328D02*
X-109824088Y-53064757D01*
X-109181230Y-53921900D02*
X-109324088Y-53993328D01*
X-109324088Y-53993328D02*
X-109681230Y-53993328D01*
X-109681230Y-53993328D02*
X-109824088Y-53921900D01*
X-109824088Y-53921900D02*
X-109895516Y-53779042D01*
X-109895516Y-53779042D02*
X-109895516Y-53636185D01*
X-109895516Y-53636185D02*
X-109824088Y-53493328D01*
X-109824088Y-53493328D02*
X-109681230Y-53421900D01*
X-109681230Y-53421900D02*
X-109324088Y-53421900D01*
X-109324088Y-53421900D02*
X-109181230Y-53350471D01*
X-107824087Y-53993328D02*
X-107824087Y-52493328D01*
X-107824087Y-53921900D02*
X-107966945Y-53993328D01*
X-107966945Y-53993328D02*
X-108252659Y-53993328D01*
X-108252659Y-53993328D02*
X-108395516Y-53921900D01*
X-108395516Y-53921900D02*
X-108466945Y-53850471D01*
X-108466945Y-53850471D02*
X-108538373Y-53707614D01*
X-108538373Y-53707614D02*
X-108538373Y-53279042D01*
X-108538373Y-53279042D02*
X-108466945Y-53136185D01*
X-108466945Y-53136185D02*
X-108395516Y-53064757D01*
X-108395516Y-53064757D02*
X-108252659Y-52993328D01*
X-108252659Y-52993328D02*
X-107966945Y-52993328D01*
X-107966945Y-52993328D02*
X-107824087Y-53064757D01*
X-105966945Y-53207614D02*
X-105466945Y-53207614D01*
X-105252659Y-53993328D02*
X-105966945Y-53993328D01*
X-105966945Y-53993328D02*
X-105966945Y-52493328D01*
X-105966945Y-52493328D02*
X-105252659Y-52493328D01*
X-104609802Y-53850471D02*
X-104538373Y-53921900D01*
X-104538373Y-53921900D02*
X-104609802Y-53993328D01*
X-104609802Y-53993328D02*
X-104681230Y-53921900D01*
X-104681230Y-53921900D02*
X-104609802Y-53850471D01*
X-104609802Y-53850471D02*
X-104609802Y-53993328D01*
X-103895516Y-53993328D02*
X-103895516Y-52493328D01*
X-103895516Y-52493328D02*
X-103538373Y-52493328D01*
X-103538373Y-52493328D02*
X-103324087Y-52564757D01*
X-103324087Y-52564757D02*
X-103181230Y-52707614D01*
X-103181230Y-52707614D02*
X-103109801Y-52850471D01*
X-103109801Y-52850471D02*
X-103038373Y-53136185D01*
X-103038373Y-53136185D02*
X-103038373Y-53350471D01*
X-103038373Y-53350471D02*
X-103109801Y-53636185D01*
X-103109801Y-53636185D02*
X-103181230Y-53779042D01*
X-103181230Y-53779042D02*
X-103324087Y-53921900D01*
X-103324087Y-53921900D02*
X-103538373Y-53993328D01*
X-103538373Y-53993328D02*
X-103895516Y-53993328D01*
X-102395516Y-53850471D02*
X-102324087Y-53921900D01*
X-102324087Y-53921900D02*
X-102395516Y-53993328D01*
X-102395516Y-53993328D02*
X-102466944Y-53921900D01*
X-102466944Y-53921900D02*
X-102395516Y-53850471D01*
X-102395516Y-53850471D02*
X-102395516Y-53993328D01*
X-101752658Y-53564757D02*
X-101038372Y-53564757D01*
X-101895515Y-53993328D02*
X-101395515Y-52493328D01*
X-101395515Y-52493328D02*
X-100895515Y-53993328D01*
X-100395516Y-53850471D02*
X-100324087Y-53921900D01*
X-100324087Y-53921900D02*
X-100395516Y-53993328D01*
X-100395516Y-53993328D02*
X-100466944Y-53921900D01*
X-100466944Y-53921900D02*
X-100395516Y-53850471D01*
X-100395516Y-53850471D02*
X-100395516Y-53993328D01*
X-97752658Y-53993328D02*
X-98609801Y-53993328D01*
X-98181230Y-53993328D02*
X-98181230Y-52493328D01*
X-98181230Y-52493328D02*
X-98324087Y-52707614D01*
X-98324087Y-52707614D02*
X-98466944Y-52850471D01*
X-98466944Y-52850471D02*
X-98609801Y-52921900D01*
X-96824087Y-52493328D02*
X-96681230Y-52493328D01*
X-96681230Y-52493328D02*
X-96538373Y-52564757D01*
X-96538373Y-52564757D02*
X-96466944Y-52636185D01*
X-96466944Y-52636185D02*
X-96395516Y-52779042D01*
X-96395516Y-52779042D02*
X-96324087Y-53064757D01*
X-96324087Y-53064757D02*
X-96324087Y-53421900D01*
X-96324087Y-53421900D02*
X-96395516Y-53707614D01*
X-96395516Y-53707614D02*
X-96466944Y-53850471D01*
X-96466944Y-53850471D02*
X-96538373Y-53921900D01*
X-96538373Y-53921900D02*
X-96681230Y-53993328D01*
X-96681230Y-53993328D02*
X-96824087Y-53993328D01*
X-96824087Y-53993328D02*
X-96966944Y-53921900D01*
X-96966944Y-53921900D02*
X-97038373Y-53850471D01*
X-97038373Y-53850471D02*
X-97109802Y-53707614D01*
X-97109802Y-53707614D02*
X-97181230Y-53421900D01*
X-97181230Y-53421900D02*
X-97181230Y-53064757D01*
X-97181230Y-53064757D02*
X-97109802Y-52779042D01*
X-97109802Y-52779042D02*
X-97038373Y-52636185D01*
X-97038373Y-52636185D02*
X-96966944Y-52564757D01*
X-96966944Y-52564757D02*
X-96824087Y-52493328D01*
X-95681231Y-53850471D02*
X-95609802Y-53921900D01*
X-95609802Y-53921900D02*
X-95681231Y-53993328D01*
X-95681231Y-53993328D02*
X-95752659Y-53921900D01*
X-95752659Y-53921900D02*
X-95681231Y-53850471D01*
X-95681231Y-53850471D02*
X-95681231Y-53993328D01*
X-94681230Y-52493328D02*
X-94538373Y-52493328D01*
X-94538373Y-52493328D02*
X-94395516Y-52564757D01*
X-94395516Y-52564757D02*
X-94324087Y-52636185D01*
X-94324087Y-52636185D02*
X-94252659Y-52779042D01*
X-94252659Y-52779042D02*
X-94181230Y-53064757D01*
X-94181230Y-53064757D02*
X-94181230Y-53421900D01*
X-94181230Y-53421900D02*
X-94252659Y-53707614D01*
X-94252659Y-53707614D02*
X-94324087Y-53850471D01*
X-94324087Y-53850471D02*
X-94395516Y-53921900D01*
X-94395516Y-53921900D02*
X-94538373Y-53993328D01*
X-94538373Y-53993328D02*
X-94681230Y-53993328D01*
X-94681230Y-53993328D02*
X-94824087Y-53921900D01*
X-94824087Y-53921900D02*
X-94895516Y-53850471D01*
X-94895516Y-53850471D02*
X-94966945Y-53707614D01*
X-94966945Y-53707614D02*
X-95038373Y-53421900D01*
X-95038373Y-53421900D02*
X-95038373Y-53064757D01*
X-95038373Y-53064757D02*
X-94966945Y-52779042D01*
X-94966945Y-52779042D02*
X-94895516Y-52636185D01*
X-94895516Y-52636185D02*
X-94824087Y-52564757D01*
X-94824087Y-52564757D02*
X-94681230Y-52493328D01*
X-93538374Y-53850471D02*
X-93466945Y-53921900D01*
X-93466945Y-53921900D02*
X-93538374Y-53993328D01*
X-93538374Y-53993328D02*
X-93609802Y-53921900D01*
X-93609802Y-53921900D02*
X-93538374Y-53850471D01*
X-93538374Y-53850471D02*
X-93538374Y-53993328D01*
X-92966945Y-52493328D02*
X-92038373Y-52493328D01*
X-92038373Y-52493328D02*
X-92538373Y-53064757D01*
X-92538373Y-53064757D02*
X-92324088Y-53064757D01*
X-92324088Y-53064757D02*
X-92181230Y-53136185D01*
X-92181230Y-53136185D02*
X-92109802Y-53207614D01*
X-92109802Y-53207614D02*
X-92038373Y-53350471D01*
X-92038373Y-53350471D02*
X-92038373Y-53707614D01*
X-92038373Y-53707614D02*
X-92109802Y-53850471D01*
X-92109802Y-53850471D02*
X-92181230Y-53921900D01*
X-92181230Y-53921900D02*
X-92324088Y-53993328D01*
X-92324088Y-53993328D02*
X-92752659Y-53993328D01*
X-92752659Y-53993328D02*
X-92895516Y-53921900D01*
X-92895516Y-53921900D02*
X-92966945Y-53850471D01*
X-114994200Y-48907200D02*
X-6994200Y-48907200D01*
D11*
X-27582547Y-51185528D02*
X-28082547Y-50471242D01*
X-28439690Y-51185528D02*
X-28439690Y-49685528D01*
X-28439690Y-49685528D02*
X-27868261Y-49685528D01*
X-27868261Y-49685528D02*
X-27725404Y-49756957D01*
X-27725404Y-49756957D02*
X-27653975Y-49828385D01*
X-27653975Y-49828385D02*
X-27582547Y-49971242D01*
X-27582547Y-49971242D02*
X-27582547Y-50185528D01*
X-27582547Y-50185528D02*
X-27653975Y-50328385D01*
X-27653975Y-50328385D02*
X-27725404Y-50399814D01*
X-27725404Y-50399814D02*
X-27868261Y-50471242D01*
X-27868261Y-50471242D02*
X-28439690Y-50471242D01*
X-26368261Y-51114100D02*
X-26511118Y-51185528D01*
X-26511118Y-51185528D02*
X-26796832Y-51185528D01*
X-26796832Y-51185528D02*
X-26939690Y-51114100D01*
X-26939690Y-51114100D02*
X-27011118Y-50971242D01*
X-27011118Y-50971242D02*
X-27011118Y-50399814D01*
X-27011118Y-50399814D02*
X-26939690Y-50256957D01*
X-26939690Y-50256957D02*
X-26796832Y-50185528D01*
X-26796832Y-50185528D02*
X-26511118Y-50185528D01*
X-26511118Y-50185528D02*
X-26368261Y-50256957D01*
X-26368261Y-50256957D02*
X-26296832Y-50399814D01*
X-26296832Y-50399814D02*
X-26296832Y-50542671D01*
X-26296832Y-50542671D02*
X-27011118Y-50685528D01*
X-25796833Y-50185528D02*
X-25439690Y-51185528D01*
X-25439690Y-51185528D02*
X-25082547Y-50185528D01*
X-24511119Y-51042671D02*
X-24439690Y-51114100D01*
X-24439690Y-51114100D02*
X-24511119Y-51185528D01*
X-24511119Y-51185528D02*
X-24582547Y-51114100D01*
X-24582547Y-51114100D02*
X-24511119Y-51042671D01*
X-24511119Y-51042671D02*
X-24511119Y-51185528D01*
X-24511119Y-50256957D02*
X-24439690Y-50328385D01*
X-24439690Y-50328385D02*
X-24511119Y-50399814D01*
X-24511119Y-50399814D02*
X-24582547Y-50328385D01*
X-24582547Y-50328385D02*
X-24511119Y-50256957D01*
X-24511119Y-50256957D02*
X-24511119Y-50399814D01*
X-22011118Y-50185528D02*
X-22011118Y-51185528D01*
X-22368261Y-49614100D02*
X-22725404Y-50685528D01*
X-22725404Y-50685528D02*
X-21796833Y-50685528D01*
X-21225405Y-51042671D02*
X-21153976Y-51114100D01*
X-21153976Y-51114100D02*
X-21225405Y-51185528D01*
X-21225405Y-51185528D02*
X-21296833Y-51114100D01*
X-21296833Y-51114100D02*
X-21225405Y-51042671D01*
X-21225405Y-51042671D02*
X-21225405Y-51185528D01*
X-19868261Y-50185528D02*
X-19868261Y-51185528D01*
X-20225404Y-49614100D02*
X-20582547Y-50685528D01*
X-20582547Y-50685528D02*
X-19653976Y-50685528D01*
D10*
X-113609802Y-51121900D02*
X-113395516Y-51193328D01*
X-113395516Y-51193328D02*
X-113038374Y-51193328D01*
X-113038374Y-51193328D02*
X-112895516Y-51121900D01*
X-112895516Y-51121900D02*
X-112824088Y-51050471D01*
X-112824088Y-51050471D02*
X-112752659Y-50907614D01*
X-112752659Y-50907614D02*
X-112752659Y-50764757D01*
X-112752659Y-50764757D02*
X-112824088Y-50621900D01*
X-112824088Y-50621900D02*
X-112895516Y-50550471D01*
X-112895516Y-50550471D02*
X-113038374Y-50479042D01*
X-113038374Y-50479042D02*
X-113324088Y-50407614D01*
X-113324088Y-50407614D02*
X-113466945Y-50336185D01*
X-113466945Y-50336185D02*
X-113538374Y-50264757D01*
X-113538374Y-50264757D02*
X-113609802Y-50121900D01*
X-113609802Y-50121900D02*
X-113609802Y-49979042D01*
X-113609802Y-49979042D02*
X-113538374Y-49836185D01*
X-113538374Y-49836185D02*
X-113466945Y-49764757D01*
X-113466945Y-49764757D02*
X-113324088Y-49693328D01*
X-113324088Y-49693328D02*
X-112966945Y-49693328D01*
X-112966945Y-49693328D02*
X-112752659Y-49764757D01*
X-112109803Y-51193328D02*
X-112109803Y-50193328D01*
X-112109803Y-49693328D02*
X-112181231Y-49764757D01*
X-112181231Y-49764757D02*
X-112109803Y-49836185D01*
X-112109803Y-49836185D02*
X-112038374Y-49764757D01*
X-112038374Y-49764757D02*
X-112109803Y-49693328D01*
X-112109803Y-49693328D02*
X-112109803Y-49836185D01*
X-111538374Y-50193328D02*
X-110752659Y-50193328D01*
X-110752659Y-50193328D02*
X-111538374Y-51193328D01*
X-111538374Y-51193328D02*
X-110752659Y-51193328D01*
X-109609802Y-51121900D02*
X-109752659Y-51193328D01*
X-109752659Y-51193328D02*
X-110038373Y-51193328D01*
X-110038373Y-51193328D02*
X-110181231Y-51121900D01*
X-110181231Y-51121900D02*
X-110252659Y-50979042D01*
X-110252659Y-50979042D02*
X-110252659Y-50407614D01*
X-110252659Y-50407614D02*
X-110181231Y-50264757D01*
X-110181231Y-50264757D02*
X-110038373Y-50193328D01*
X-110038373Y-50193328D02*
X-109752659Y-50193328D01*
X-109752659Y-50193328D02*
X-109609802Y-50264757D01*
X-109609802Y-50264757D02*
X-109538373Y-50407614D01*
X-109538373Y-50407614D02*
X-109538373Y-50550471D01*
X-109538373Y-50550471D02*
X-110252659Y-50693328D01*
X-108895517Y-51050471D02*
X-108824088Y-51121900D01*
X-108824088Y-51121900D02*
X-108895517Y-51193328D01*
X-108895517Y-51193328D02*
X-108966945Y-51121900D01*
X-108966945Y-51121900D02*
X-108895517Y-51050471D01*
X-108895517Y-51050471D02*
X-108895517Y-51193328D01*
X-108895517Y-50264757D02*
X-108824088Y-50336185D01*
X-108824088Y-50336185D02*
X-108895517Y-50407614D01*
X-108895517Y-50407614D02*
X-108966945Y-50336185D01*
X-108966945Y-50336185D02*
X-108895517Y-50264757D01*
X-108895517Y-50264757D02*
X-108895517Y-50407614D01*
X-107109802Y-50764757D02*
X-106395516Y-50764757D01*
X-107252659Y-51193328D02*
X-106752659Y-49693328D01*
X-106752659Y-49693328D02*
X-106252659Y-51193328D01*
X-105038374Y-49693328D02*
X-105752660Y-49693328D01*
X-105752660Y-49693328D02*
X-105824088Y-50407614D01*
X-105824088Y-50407614D02*
X-105752660Y-50336185D01*
X-105752660Y-50336185D02*
X-105609802Y-50264757D01*
X-105609802Y-50264757D02*
X-105252660Y-50264757D01*
X-105252660Y-50264757D02*
X-105109802Y-50336185D01*
X-105109802Y-50336185D02*
X-105038374Y-50407614D01*
X-105038374Y-50407614D02*
X-104966945Y-50550471D01*
X-104966945Y-50550471D02*
X-104966945Y-50907614D01*
X-104966945Y-50907614D02*
X-105038374Y-51050471D01*
X-105038374Y-51050471D02*
X-105109802Y-51121900D01*
X-105109802Y-51121900D02*
X-105252660Y-51193328D01*
X-105252660Y-51193328D02*
X-105609802Y-51193328D01*
X-105609802Y-51193328D02*
X-105752660Y-51121900D01*
X-105752660Y-51121900D02*
X-105824088Y-51050471D01*
X-28538374Y-53993328D02*
X-28538374Y-52493328D01*
X-27181230Y-53993328D02*
X-27181230Y-52493328D01*
X-27181230Y-53921900D02*
X-27324088Y-53993328D01*
X-27324088Y-53993328D02*
X-27609802Y-53993328D01*
X-27609802Y-53993328D02*
X-27752659Y-53921900D01*
X-27752659Y-53921900D02*
X-27824088Y-53850471D01*
X-27824088Y-53850471D02*
X-27895516Y-53707614D01*
X-27895516Y-53707614D02*
X-27895516Y-53279042D01*
X-27895516Y-53279042D02*
X-27824088Y-53136185D01*
X-27824088Y-53136185D02*
X-27752659Y-53064757D01*
X-27752659Y-53064757D02*
X-27609802Y-52993328D01*
X-27609802Y-52993328D02*
X-27324088Y-52993328D01*
X-27324088Y-52993328D02*
X-27181230Y-53064757D01*
X-26466945Y-53850471D02*
X-26395516Y-53921900D01*
X-26395516Y-53921900D02*
X-26466945Y-53993328D01*
X-26466945Y-53993328D02*
X-26538373Y-53921900D01*
X-26538373Y-53921900D02*
X-26466945Y-53850471D01*
X-26466945Y-53850471D02*
X-26466945Y-53993328D01*
X-26466945Y-53064757D02*
X-26395516Y-53136185D01*
X-26395516Y-53136185D02*
X-26466945Y-53207614D01*
X-26466945Y-53207614D02*
X-26538373Y-53136185D01*
X-26538373Y-53136185D02*
X-26466945Y-53064757D01*
X-26466945Y-53064757D02*
X-26466945Y-53207614D01*
X-23824087Y-53993328D02*
X-24681230Y-53993328D01*
X-24252659Y-53993328D02*
X-24252659Y-52493328D01*
X-24252659Y-52493328D02*
X-24395516Y-52707614D01*
X-24395516Y-52707614D02*
X-24538373Y-52850471D01*
X-24538373Y-52850471D02*
X-24681230Y-52921900D01*
X-22109802Y-52421900D02*
X-23395516Y-54350471D01*
X-20824087Y-53993328D02*
X-21681230Y-53993328D01*
X-21252659Y-53993328D02*
X-21252659Y-52493328D01*
X-21252659Y-52493328D02*
X-21395516Y-52707614D01*
X-21395516Y-52707614D02*
X-21538373Y-52850471D01*
X-21538373Y-52850471D02*
X-21681230Y-52921900D01*
X-20252659Y-52636185D02*
X-20181231Y-52564757D01*
X-20181231Y-52564757D02*
X-20038373Y-52493328D01*
X-20038373Y-52493328D02*
X-19681231Y-52493328D01*
X-19681231Y-52493328D02*
X-19538373Y-52564757D01*
X-19538373Y-52564757D02*
X-19466945Y-52636185D01*
X-19466945Y-52636185D02*
X-19395516Y-52779042D01*
X-19395516Y-52779042D02*
X-19395516Y-52921900D01*
X-19395516Y-52921900D02*
X-19466945Y-53136185D01*
X-19466945Y-53136185D02*
X-20324088Y-53993328D01*
X-20324088Y-53993328D02*
X-19395516Y-53993328D01*
X-114994200Y-44907200D02*
X-6994200Y-44907200D01*
D12*
X-113302472Y-45611638D02*
X-112159615Y-45611638D01*
X-112981043Y-47611638D02*
X-112731043Y-45611638D01*
X-111742948Y-47611638D02*
X-111576281Y-46278304D01*
X-111492948Y-45611638D02*
X-111600091Y-45706876D01*
X-111600091Y-45706876D02*
X-111516757Y-45802114D01*
X-111516757Y-45802114D02*
X-111409614Y-45706876D01*
X-111409614Y-45706876D02*
X-111492948Y-45611638D01*
X-111492948Y-45611638D02*
X-111516757Y-45802114D01*
X-110909614Y-46278304D02*
X-110147710Y-46278304D01*
X-110540567Y-45611638D02*
X-110754852Y-47325923D01*
X-110754852Y-47325923D02*
X-110683424Y-47516400D01*
X-110683424Y-47516400D02*
X-110504852Y-47611638D01*
X-110504852Y-47611638D02*
X-110314376Y-47611638D01*
X-109361995Y-47611638D02*
X-109540567Y-47516400D01*
X-109540567Y-47516400D02*
X-109611995Y-47325923D01*
X-109611995Y-47325923D02*
X-109397710Y-45611638D01*
X-107826281Y-47516400D02*
X-108028662Y-47611638D01*
X-108028662Y-47611638D02*
X-108409615Y-47611638D01*
X-108409615Y-47611638D02*
X-108588186Y-47516400D01*
X-108588186Y-47516400D02*
X-108659615Y-47325923D01*
X-108659615Y-47325923D02*
X-108564376Y-46564019D01*
X-108564376Y-46564019D02*
X-108445329Y-46373542D01*
X-108445329Y-46373542D02*
X-108242948Y-46278304D01*
X-108242948Y-46278304D02*
X-107861996Y-46278304D01*
X-107861996Y-46278304D02*
X-107683424Y-46373542D01*
X-107683424Y-46373542D02*
X-107611996Y-46564019D01*
X-107611996Y-46564019D02*
X-107635805Y-46754495D01*
X-107635805Y-46754495D02*
X-108611996Y-46944971D01*
X-106861995Y-47421161D02*
X-106778662Y-47516400D01*
X-106778662Y-47516400D02*
X-106885805Y-47611638D01*
X-106885805Y-47611638D02*
X-106969138Y-47516400D01*
X-106969138Y-47516400D02*
X-106861995Y-47421161D01*
X-106861995Y-47421161D02*
X-106885805Y-47611638D01*
X-106731043Y-46373542D02*
X-106647710Y-46468780D01*
X-106647710Y-46468780D02*
X-106754852Y-46564019D01*
X-106754852Y-46564019D02*
X-106838186Y-46468780D01*
X-106838186Y-46468780D02*
X-106731043Y-46373542D01*
X-106731043Y-46373542D02*
X-106754852Y-46564019D01*
X-104445328Y-45611638D02*
X-104028661Y-47611638D01*
X-104028661Y-47611638D02*
X-103111995Y-45611638D01*
X-101921518Y-47516400D02*
X-102123899Y-47611638D01*
X-102123899Y-47611638D02*
X-102504852Y-47611638D01*
X-102504852Y-47611638D02*
X-102683423Y-47516400D01*
X-102683423Y-47516400D02*
X-102754852Y-47325923D01*
X-102754852Y-47325923D02*
X-102659613Y-46564019D01*
X-102659613Y-46564019D02*
X-102540566Y-46373542D01*
X-102540566Y-46373542D02*
X-102338185Y-46278304D01*
X-102338185Y-46278304D02*
X-101957233Y-46278304D01*
X-101957233Y-46278304D02*
X-101778661Y-46373542D01*
X-101778661Y-46373542D02*
X-101707233Y-46564019D01*
X-101707233Y-46564019D02*
X-101731042Y-46754495D01*
X-101731042Y-46754495D02*
X-102707233Y-46944971D01*
X-100981042Y-47611638D02*
X-100814375Y-46278304D01*
X-100861994Y-46659257D02*
X-100742947Y-46468780D01*
X-100742947Y-46468780D02*
X-100635804Y-46373542D01*
X-100635804Y-46373542D02*
X-100433423Y-46278304D01*
X-100433423Y-46278304D02*
X-100242947Y-46278304D01*
X-99861994Y-46278304D02*
X-99100090Y-46278304D01*
X-99492947Y-45611638D02*
X-99707232Y-47325923D01*
X-99707232Y-47325923D02*
X-99635804Y-47516400D01*
X-99635804Y-47516400D02*
X-99457232Y-47611638D01*
X-99457232Y-47611638D02*
X-99266756Y-47611638D01*
X-97826280Y-47516400D02*
X-98028661Y-47611638D01*
X-98028661Y-47611638D02*
X-98409614Y-47611638D01*
X-98409614Y-47611638D02*
X-98588185Y-47516400D01*
X-98588185Y-47516400D02*
X-98659614Y-47325923D01*
X-98659614Y-47325923D02*
X-98564375Y-46564019D01*
X-98564375Y-46564019D02*
X-98445328Y-46373542D01*
X-98445328Y-46373542D02*
X-98242947Y-46278304D01*
X-98242947Y-46278304D02*
X-97861995Y-46278304D01*
X-97861995Y-46278304D02*
X-97683423Y-46373542D01*
X-97683423Y-46373542D02*
X-97611995Y-46564019D01*
X-97611995Y-46564019D02*
X-97635804Y-46754495D01*
X-97635804Y-46754495D02*
X-98611995Y-46944971D01*
X-97076280Y-47611638D02*
X-95861994Y-46278304D01*
X-96909613Y-46278304D02*
X-96028661Y-47611638D01*
X-93742946Y-47611638D02*
X-93492946Y-45611638D01*
X-93492946Y-45611638D02*
X-93004851Y-47040209D01*
X-93004851Y-47040209D02*
X-92159612Y-45611638D01*
X-92159612Y-45611638D02*
X-92409612Y-47611638D01*
X-91457232Y-47611638D02*
X-91207232Y-45611638D01*
X-91171517Y-46849733D02*
X-90695327Y-47611638D01*
X-90528660Y-46278304D02*
X-91385803Y-47040209D01*
X-88814374Y-46278304D02*
X-88981041Y-47611638D01*
X-89195327Y-45516400D02*
X-89850089Y-46944971D01*
X-89850089Y-46944971D02*
X-88611993Y-46944971D01*
X-87909612Y-47421161D02*
X-87826279Y-47516400D01*
X-87826279Y-47516400D02*
X-87933422Y-47611638D01*
X-87933422Y-47611638D02*
X-88016755Y-47516400D01*
X-88016755Y-47516400D02*
X-87909612Y-47421161D01*
X-87909612Y-47421161D02*
X-87933422Y-47611638D01*
X-85957231Y-46278304D02*
X-86123898Y-47611638D01*
X-86338184Y-45516400D02*
X-86992946Y-46944971D01*
X-86992946Y-46944971D02*
X-85754850Y-46944971D01*
D10*
X-113038374Y-43007614D02*
X-113538374Y-43007614D01*
X-113538374Y-43793328D02*
X-113538374Y-42293328D01*
X-113538374Y-42293328D02*
X-112824088Y-42293328D01*
X-112252660Y-43793328D02*
X-112252660Y-42793328D01*
X-112252660Y-42293328D02*
X-112324088Y-42364757D01*
X-112324088Y-42364757D02*
X-112252660Y-42436185D01*
X-112252660Y-42436185D02*
X-112181231Y-42364757D01*
X-112181231Y-42364757D02*
X-112252660Y-42293328D01*
X-112252660Y-42293328D02*
X-112252660Y-42436185D01*
X-111324088Y-43793328D02*
X-111466945Y-43721900D01*
X-111466945Y-43721900D02*
X-111538374Y-43579042D01*
X-111538374Y-43579042D02*
X-111538374Y-42293328D01*
X-110181231Y-43721900D02*
X-110324088Y-43793328D01*
X-110324088Y-43793328D02*
X-110609802Y-43793328D01*
X-110609802Y-43793328D02*
X-110752660Y-43721900D01*
X-110752660Y-43721900D02*
X-110824088Y-43579042D01*
X-110824088Y-43579042D02*
X-110824088Y-43007614D01*
X-110824088Y-43007614D02*
X-110752660Y-42864757D01*
X-110752660Y-42864757D02*
X-110609802Y-42793328D01*
X-110609802Y-42793328D02*
X-110324088Y-42793328D01*
X-110324088Y-42793328D02*
X-110181231Y-42864757D01*
X-110181231Y-42864757D02*
X-110109802Y-43007614D01*
X-110109802Y-43007614D02*
X-110109802Y-43150471D01*
X-110109802Y-43150471D02*
X-110824088Y-43293328D01*
X-109466946Y-43650471D02*
X-109395517Y-43721900D01*
X-109395517Y-43721900D02*
X-109466946Y-43793328D01*
X-109466946Y-43793328D02*
X-109538374Y-43721900D01*
X-109538374Y-43721900D02*
X-109466946Y-43650471D01*
X-109466946Y-43650471D02*
X-109466946Y-43793328D01*
X-109466946Y-42864757D02*
X-109395517Y-42936185D01*
X-109395517Y-42936185D02*
X-109466946Y-43007614D01*
X-109466946Y-43007614D02*
X-109538374Y-42936185D01*
X-109538374Y-42936185D02*
X-109466946Y-42864757D01*
X-109466946Y-42864757D02*
X-109466946Y-43007614D01*
X-107752660Y-42793328D02*
X-107395517Y-43793328D01*
X-107395517Y-43793328D02*
X-107038374Y-42793328D01*
X-105895517Y-43721900D02*
X-106038374Y-43793328D01*
X-106038374Y-43793328D02*
X-106324088Y-43793328D01*
X-106324088Y-43793328D02*
X-106466946Y-43721900D01*
X-106466946Y-43721900D02*
X-106538374Y-43579042D01*
X-106538374Y-43579042D02*
X-106538374Y-43007614D01*
X-106538374Y-43007614D02*
X-106466946Y-42864757D01*
X-106466946Y-42864757D02*
X-106324088Y-42793328D01*
X-106324088Y-42793328D02*
X-106038374Y-42793328D01*
X-106038374Y-42793328D02*
X-105895517Y-42864757D01*
X-105895517Y-42864757D02*
X-105824088Y-43007614D01*
X-105824088Y-43007614D02*
X-105824088Y-43150471D01*
X-105824088Y-43150471D02*
X-106538374Y-43293328D01*
X-105181232Y-43793328D02*
X-105181232Y-42793328D01*
X-105181232Y-43079042D02*
X-105109803Y-42936185D01*
X-105109803Y-42936185D02*
X-105038374Y-42864757D01*
X-105038374Y-42864757D02*
X-104895517Y-42793328D01*
X-104895517Y-42793328D02*
X-104752660Y-42793328D01*
X-104466946Y-42793328D02*
X-103895518Y-42793328D01*
X-104252661Y-42293328D02*
X-104252661Y-43579042D01*
X-104252661Y-43579042D02*
X-104181232Y-43721900D01*
X-104181232Y-43721900D02*
X-104038375Y-43793328D01*
X-104038375Y-43793328D02*
X-103895518Y-43793328D01*
X-102824089Y-43721900D02*
X-102966946Y-43793328D01*
X-102966946Y-43793328D02*
X-103252660Y-43793328D01*
X-103252660Y-43793328D02*
X-103395518Y-43721900D01*
X-103395518Y-43721900D02*
X-103466946Y-43579042D01*
X-103466946Y-43579042D02*
X-103466946Y-43007614D01*
X-103466946Y-43007614D02*
X-103395518Y-42864757D01*
X-103395518Y-42864757D02*
X-103252660Y-42793328D01*
X-103252660Y-42793328D02*
X-102966946Y-42793328D01*
X-102966946Y-42793328D02*
X-102824089Y-42864757D01*
X-102824089Y-42864757D02*
X-102752660Y-43007614D01*
X-102752660Y-43007614D02*
X-102752660Y-43150471D01*
X-102752660Y-43150471D02*
X-103466946Y-43293328D01*
X-102252661Y-43793328D02*
X-101466946Y-42793328D01*
X-102252661Y-42793328D02*
X-101466946Y-43793328D01*
X-99752661Y-43793328D02*
X-99752661Y-42793328D01*
X-99752661Y-42936185D02*
X-99681232Y-42864757D01*
X-99681232Y-42864757D02*
X-99538375Y-42793328D01*
X-99538375Y-42793328D02*
X-99324089Y-42793328D01*
X-99324089Y-42793328D02*
X-99181232Y-42864757D01*
X-99181232Y-42864757D02*
X-99109803Y-43007614D01*
X-99109803Y-43007614D02*
X-99109803Y-43793328D01*
X-99109803Y-43007614D02*
X-99038375Y-42864757D01*
X-99038375Y-42864757D02*
X-98895518Y-42793328D01*
X-98895518Y-42793328D02*
X-98681232Y-42793328D01*
X-98681232Y-42793328D02*
X-98538375Y-42864757D01*
X-98538375Y-42864757D02*
X-98466946Y-43007614D01*
X-98466946Y-43007614D02*
X-98466946Y-43793328D01*
X-97752661Y-43793328D02*
X-97752661Y-42293328D01*
X-97609803Y-43221900D02*
X-97181232Y-43793328D01*
X-97181232Y-42793328D02*
X-97752661Y-43364757D01*
X-95895517Y-42793328D02*
X-95895517Y-43793328D01*
X-96252660Y-42221900D02*
X-96609803Y-43293328D01*
X-96609803Y-43293328D02*
X-95681232Y-43293328D01*
X-95109804Y-43650471D02*
X-95038375Y-43721900D01*
X-95038375Y-43721900D02*
X-95109804Y-43793328D01*
X-95109804Y-43793328D02*
X-95181232Y-43721900D01*
X-95181232Y-43721900D02*
X-95109804Y-43650471D01*
X-95109804Y-43650471D02*
X-95109804Y-43793328D01*
X-94395518Y-43793328D02*
X-94395518Y-42293328D01*
X-94252660Y-43221900D02*
X-93824089Y-43793328D01*
X-93824089Y-42793328D02*
X-94395518Y-43364757D01*
X-93181232Y-43793328D02*
X-93181232Y-42793328D01*
X-93181232Y-42293328D02*
X-93252660Y-42364757D01*
X-93252660Y-42364757D02*
X-93181232Y-42436185D01*
X-93181232Y-42436185D02*
X-93109803Y-42364757D01*
X-93109803Y-42364757D02*
X-93181232Y-42293328D01*
X-93181232Y-42293328D02*
X-93181232Y-42436185D01*
X-91824088Y-43721900D02*
X-91966946Y-43793328D01*
X-91966946Y-43793328D02*
X-92252660Y-43793328D01*
X-92252660Y-43793328D02*
X-92395517Y-43721900D01*
X-92395517Y-43721900D02*
X-92466946Y-43650471D01*
X-92466946Y-43650471D02*
X-92538374Y-43507614D01*
X-92538374Y-43507614D02*
X-92538374Y-43079042D01*
X-92538374Y-43079042D02*
X-92466946Y-42936185D01*
X-92466946Y-42936185D02*
X-92395517Y-42864757D01*
X-92395517Y-42864757D02*
X-92252660Y-42793328D01*
X-92252660Y-42793328D02*
X-91966946Y-42793328D01*
X-91966946Y-42793328D02*
X-91824088Y-42864757D01*
X-90538374Y-43793328D02*
X-90538374Y-43007614D01*
X-90538374Y-43007614D02*
X-90609803Y-42864757D01*
X-90609803Y-42864757D02*
X-90752660Y-42793328D01*
X-90752660Y-42793328D02*
X-91038374Y-42793328D01*
X-91038374Y-42793328D02*
X-91181232Y-42864757D01*
X-90538374Y-43721900D02*
X-90681232Y-43793328D01*
X-90681232Y-43793328D02*
X-91038374Y-43793328D01*
X-91038374Y-43793328D02*
X-91181232Y-43721900D01*
X-91181232Y-43721900D02*
X-91252660Y-43579042D01*
X-91252660Y-43579042D02*
X-91252660Y-43436185D01*
X-91252660Y-43436185D02*
X-91181232Y-43293328D01*
X-91181232Y-43293328D02*
X-91038374Y-43221900D01*
X-91038374Y-43221900D02*
X-90681232Y-43221900D01*
X-90681232Y-43221900D02*
X-90538374Y-43150471D01*
X-89181231Y-43793328D02*
X-89181231Y-42293328D01*
X-89181231Y-43721900D02*
X-89324089Y-43793328D01*
X-89324089Y-43793328D02*
X-89609803Y-43793328D01*
X-89609803Y-43793328D02*
X-89752660Y-43721900D01*
X-89752660Y-43721900D02*
X-89824089Y-43650471D01*
X-89824089Y-43650471D02*
X-89895517Y-43507614D01*
X-89895517Y-43507614D02*
X-89895517Y-43079042D01*
X-89895517Y-43079042D02*
X-89824089Y-42936185D01*
X-89824089Y-42936185D02*
X-89752660Y-42864757D01*
X-89752660Y-42864757D02*
X-89609803Y-42793328D01*
X-89609803Y-42793328D02*
X-89324089Y-42793328D01*
X-89324089Y-42793328D02*
X-89181231Y-42864757D01*
X-88824088Y-43936185D02*
X-87681231Y-43936185D01*
X-87324089Y-42793328D02*
X-87324089Y-44293328D01*
X-87324089Y-42864757D02*
X-87181231Y-42793328D01*
X-87181231Y-42793328D02*
X-86895517Y-42793328D01*
X-86895517Y-42793328D02*
X-86752660Y-42864757D01*
X-86752660Y-42864757D02*
X-86681231Y-42936185D01*
X-86681231Y-42936185D02*
X-86609803Y-43079042D01*
X-86609803Y-43079042D02*
X-86609803Y-43507614D01*
X-86609803Y-43507614D02*
X-86681231Y-43650471D01*
X-86681231Y-43650471D02*
X-86752660Y-43721900D01*
X-86752660Y-43721900D02*
X-86895517Y-43793328D01*
X-86895517Y-43793328D02*
X-87181231Y-43793328D01*
X-87181231Y-43793328D02*
X-87324089Y-43721900D01*
X-85324088Y-43721900D02*
X-85466946Y-43793328D01*
X-85466946Y-43793328D02*
X-85752660Y-43793328D01*
X-85752660Y-43793328D02*
X-85895517Y-43721900D01*
X-85895517Y-43721900D02*
X-85966946Y-43650471D01*
X-85966946Y-43650471D02*
X-86038374Y-43507614D01*
X-86038374Y-43507614D02*
X-86038374Y-43079042D01*
X-86038374Y-43079042D02*
X-85966946Y-42936185D01*
X-85966946Y-42936185D02*
X-85895517Y-42864757D01*
X-85895517Y-42864757D02*
X-85752660Y-42793328D01*
X-85752660Y-42793328D02*
X-85466946Y-42793328D01*
X-85466946Y-42793328D02*
X-85324088Y-42864757D01*
X-84681232Y-43793328D02*
X-84681232Y-42293328D01*
X-84681232Y-42864757D02*
X-84538374Y-42793328D01*
X-84538374Y-42793328D02*
X-84252660Y-42793328D01*
X-84252660Y-42793328D02*
X-84109803Y-42864757D01*
X-84109803Y-42864757D02*
X-84038374Y-42936185D01*
X-84038374Y-42936185D02*
X-83966946Y-43079042D01*
X-83966946Y-43079042D02*
X-83966946Y-43507614D01*
X-83966946Y-43507614D02*
X-84038374Y-43650471D01*
X-84038374Y-43650471D02*
X-84109803Y-43721900D01*
X-84109803Y-43721900D02*
X-84252660Y-43793328D01*
X-84252660Y-43793328D02*
X-84538374Y-43793328D01*
X-84538374Y-43793328D02*
X-84681232Y-43721900D01*
X-114994200Y-38907200D02*
X-6994200Y-38907200D01*
X-113609802Y-41021900D02*
X-113395516Y-41093328D01*
X-113395516Y-41093328D02*
X-113038374Y-41093328D01*
X-113038374Y-41093328D02*
X-112895516Y-41021900D01*
X-112895516Y-41021900D02*
X-112824088Y-40950471D01*
X-112824088Y-40950471D02*
X-112752659Y-40807614D01*
X-112752659Y-40807614D02*
X-112752659Y-40664757D01*
X-112752659Y-40664757D02*
X-112824088Y-40521900D01*
X-112824088Y-40521900D02*
X-112895516Y-40450471D01*
X-112895516Y-40450471D02*
X-113038374Y-40379042D01*
X-113038374Y-40379042D02*
X-113324088Y-40307614D01*
X-113324088Y-40307614D02*
X-113466945Y-40236185D01*
X-113466945Y-40236185D02*
X-113538374Y-40164757D01*
X-113538374Y-40164757D02*
X-113609802Y-40021900D01*
X-113609802Y-40021900D02*
X-113609802Y-39879042D01*
X-113609802Y-39879042D02*
X-113538374Y-39736185D01*
X-113538374Y-39736185D02*
X-113466945Y-39664757D01*
X-113466945Y-39664757D02*
X-113324088Y-39593328D01*
X-113324088Y-39593328D02*
X-112966945Y-39593328D01*
X-112966945Y-39593328D02*
X-112752659Y-39664757D01*
X-112109803Y-41093328D02*
X-112109803Y-39593328D01*
X-111466945Y-41093328D02*
X-111466945Y-40307614D01*
X-111466945Y-40307614D02*
X-111538374Y-40164757D01*
X-111538374Y-40164757D02*
X-111681231Y-40093328D01*
X-111681231Y-40093328D02*
X-111895517Y-40093328D01*
X-111895517Y-40093328D02*
X-112038374Y-40164757D01*
X-112038374Y-40164757D02*
X-112109803Y-40236185D01*
X-110181231Y-41021900D02*
X-110324088Y-41093328D01*
X-110324088Y-41093328D02*
X-110609802Y-41093328D01*
X-110609802Y-41093328D02*
X-110752660Y-41021900D01*
X-110752660Y-41021900D02*
X-110824088Y-40879042D01*
X-110824088Y-40879042D02*
X-110824088Y-40307614D01*
X-110824088Y-40307614D02*
X-110752660Y-40164757D01*
X-110752660Y-40164757D02*
X-110609802Y-40093328D01*
X-110609802Y-40093328D02*
X-110324088Y-40093328D01*
X-110324088Y-40093328D02*
X-110181231Y-40164757D01*
X-110181231Y-40164757D02*
X-110109802Y-40307614D01*
X-110109802Y-40307614D02*
X-110109802Y-40450471D01*
X-110109802Y-40450471D02*
X-110824088Y-40593328D01*
X-108895517Y-41021900D02*
X-109038374Y-41093328D01*
X-109038374Y-41093328D02*
X-109324088Y-41093328D01*
X-109324088Y-41093328D02*
X-109466946Y-41021900D01*
X-109466946Y-41021900D02*
X-109538374Y-40879042D01*
X-109538374Y-40879042D02*
X-109538374Y-40307614D01*
X-109538374Y-40307614D02*
X-109466946Y-40164757D01*
X-109466946Y-40164757D02*
X-109324088Y-40093328D01*
X-109324088Y-40093328D02*
X-109038374Y-40093328D01*
X-109038374Y-40093328D02*
X-108895517Y-40164757D01*
X-108895517Y-40164757D02*
X-108824088Y-40307614D01*
X-108824088Y-40307614D02*
X-108824088Y-40450471D01*
X-108824088Y-40450471D02*
X-109538374Y-40593328D01*
X-108395517Y-40093328D02*
X-107824089Y-40093328D01*
X-108181232Y-39593328D02*
X-108181232Y-40879042D01*
X-108181232Y-40879042D02*
X-108109803Y-41021900D01*
X-108109803Y-41021900D02*
X-107966946Y-41093328D01*
X-107966946Y-41093328D02*
X-107824089Y-41093328D01*
X-107324089Y-40950471D02*
X-107252660Y-41021900D01*
X-107252660Y-41021900D02*
X-107324089Y-41093328D01*
X-107324089Y-41093328D02*
X-107395517Y-41021900D01*
X-107395517Y-41021900D02*
X-107324089Y-40950471D01*
X-107324089Y-40950471D02*
X-107324089Y-41093328D01*
X-107324089Y-40164757D02*
X-107252660Y-40236185D01*
X-107252660Y-40236185D02*
X-107324089Y-40307614D01*
X-107324089Y-40307614D02*
X-107395517Y-40236185D01*
X-107395517Y-40236185D02*
X-107324089Y-40164757D01*
X-107324089Y-40164757D02*
X-107324089Y-40307614D01*
D11*
X-113439690Y-38085528D02*
X-113439690Y-36585528D01*
X-113439690Y-36585528D02*
X-112868261Y-36585528D01*
X-112868261Y-36585528D02*
X-112725404Y-36656957D01*
X-112725404Y-36656957D02*
X-112653975Y-36728385D01*
X-112653975Y-36728385D02*
X-112582547Y-36871242D01*
X-112582547Y-36871242D02*
X-112582547Y-37085528D01*
X-112582547Y-37085528D02*
X-112653975Y-37228385D01*
X-112653975Y-37228385D02*
X-112725404Y-37299814D01*
X-112725404Y-37299814D02*
X-112868261Y-37371242D01*
X-112868261Y-37371242D02*
X-113439690Y-37371242D01*
X-111939690Y-38085528D02*
X-111939690Y-36585528D01*
X-111296832Y-38085528D02*
X-111296832Y-37299814D01*
X-111296832Y-37299814D02*
X-111368261Y-37156957D01*
X-111368261Y-37156957D02*
X-111511118Y-37085528D01*
X-111511118Y-37085528D02*
X-111725404Y-37085528D01*
X-111725404Y-37085528D02*
X-111868261Y-37156957D01*
X-111868261Y-37156957D02*
X-111939690Y-37228385D01*
X-109939689Y-38085528D02*
X-109939689Y-37299814D01*
X-109939689Y-37299814D02*
X-110011118Y-37156957D01*
X-110011118Y-37156957D02*
X-110153975Y-37085528D01*
X-110153975Y-37085528D02*
X-110439689Y-37085528D01*
X-110439689Y-37085528D02*
X-110582547Y-37156957D01*
X-109939689Y-38014100D02*
X-110082547Y-38085528D01*
X-110082547Y-38085528D02*
X-110439689Y-38085528D01*
X-110439689Y-38085528D02*
X-110582547Y-38014100D01*
X-110582547Y-38014100D02*
X-110653975Y-37871242D01*
X-110653975Y-37871242D02*
X-110653975Y-37728385D01*
X-110653975Y-37728385D02*
X-110582547Y-37585528D01*
X-110582547Y-37585528D02*
X-110439689Y-37514100D01*
X-110439689Y-37514100D02*
X-110082547Y-37514100D01*
X-110082547Y-37514100D02*
X-109939689Y-37442671D01*
X-109225404Y-37085528D02*
X-109225404Y-38085528D01*
X-109225404Y-37228385D02*
X-109153975Y-37156957D01*
X-109153975Y-37156957D02*
X-109011118Y-37085528D01*
X-109011118Y-37085528D02*
X-108796832Y-37085528D01*
X-108796832Y-37085528D02*
X-108653975Y-37156957D01*
X-108653975Y-37156957D02*
X-108582546Y-37299814D01*
X-108582546Y-37299814D02*
X-108582546Y-38085528D01*
X-108082546Y-37085528D02*
X-107511118Y-37085528D01*
X-107868261Y-36585528D02*
X-107868261Y-37871242D01*
X-107868261Y-37871242D02*
X-107796832Y-38014100D01*
X-107796832Y-38014100D02*
X-107653975Y-38085528D01*
X-107653975Y-38085528D02*
X-107511118Y-38085528D01*
X-106796832Y-38085528D02*
X-106939689Y-38014100D01*
X-106939689Y-38014100D02*
X-107011118Y-37942671D01*
X-107011118Y-37942671D02*
X-107082546Y-37799814D01*
X-107082546Y-37799814D02*
X-107082546Y-37371242D01*
X-107082546Y-37371242D02*
X-107011118Y-37228385D01*
X-107011118Y-37228385D02*
X-106939689Y-37156957D01*
X-106939689Y-37156957D02*
X-106796832Y-37085528D01*
X-106796832Y-37085528D02*
X-106582546Y-37085528D01*
X-106582546Y-37085528D02*
X-106439689Y-37156957D01*
X-106439689Y-37156957D02*
X-106368260Y-37228385D01*
X-106368260Y-37228385D02*
X-106296832Y-37371242D01*
X-106296832Y-37371242D02*
X-106296832Y-37799814D01*
X-106296832Y-37799814D02*
X-106368260Y-37942671D01*
X-106368260Y-37942671D02*
X-106439689Y-38014100D01*
X-106439689Y-38014100D02*
X-106582546Y-38085528D01*
X-106582546Y-38085528D02*
X-106796832Y-38085528D01*
X-105653975Y-38085528D02*
X-105653975Y-37085528D01*
X-105653975Y-37228385D02*
X-105582546Y-37156957D01*
X-105582546Y-37156957D02*
X-105439689Y-37085528D01*
X-105439689Y-37085528D02*
X-105225403Y-37085528D01*
X-105225403Y-37085528D02*
X-105082546Y-37156957D01*
X-105082546Y-37156957D02*
X-105011117Y-37299814D01*
X-105011117Y-37299814D02*
X-105011117Y-38085528D01*
X-105011117Y-37299814D02*
X-104939689Y-37156957D01*
X-104939689Y-37156957D02*
X-104796832Y-37085528D01*
X-104796832Y-37085528D02*
X-104582546Y-37085528D01*
X-104582546Y-37085528D02*
X-104439689Y-37156957D01*
X-104439689Y-37156957D02*
X-104368260Y-37299814D01*
X-104368260Y-37299814D02*
X-104368260Y-38085528D01*
X-103653975Y-38085528D02*
X-103653975Y-36585528D01*
X-103653975Y-36585528D02*
X-103082546Y-36585528D01*
X-103082546Y-36585528D02*
X-102939689Y-36656957D01*
X-102939689Y-36656957D02*
X-102868260Y-36728385D01*
X-102868260Y-36728385D02*
X-102796832Y-36871242D01*
X-102796832Y-36871242D02*
X-102796832Y-37085528D01*
X-102796832Y-37085528D02*
X-102868260Y-37228385D01*
X-102868260Y-37228385D02*
X-102939689Y-37299814D01*
X-102939689Y-37299814D02*
X-103082546Y-37371242D01*
X-103082546Y-37371242D02*
X-103653975Y-37371242D01*
X-102296832Y-36585528D02*
X-101296832Y-38085528D01*
X-101296832Y-36585528D02*
X-102296832Y-38085528D01*
X-99582547Y-38085528D02*
X-99582547Y-36585528D01*
X-98868261Y-37085528D02*
X-98868261Y-38085528D01*
X-98868261Y-37228385D02*
X-98796832Y-37156957D01*
X-98796832Y-37156957D02*
X-98653975Y-37085528D01*
X-98653975Y-37085528D02*
X-98439689Y-37085528D01*
X-98439689Y-37085528D02*
X-98296832Y-37156957D01*
X-98296832Y-37156957D02*
X-98225403Y-37299814D01*
X-98225403Y-37299814D02*
X-98225403Y-38085528D01*
X-96868260Y-38014100D02*
X-97011118Y-38085528D01*
X-97011118Y-38085528D02*
X-97296832Y-38085528D01*
X-97296832Y-38085528D02*
X-97439689Y-38014100D01*
X-97439689Y-38014100D02*
X-97511118Y-37942671D01*
X-97511118Y-37942671D02*
X-97582546Y-37799814D01*
X-97582546Y-37799814D02*
X-97582546Y-37371242D01*
X-97582546Y-37371242D02*
X-97511118Y-37228385D01*
X-97511118Y-37228385D02*
X-97439689Y-37156957D01*
X-97439689Y-37156957D02*
X-97296832Y-37085528D01*
X-97296832Y-37085528D02*
X-97011118Y-37085528D01*
X-97011118Y-37085528D02*
X-96868260Y-37156957D01*
X-96225404Y-37942671D02*
X-96153975Y-38014100D01*
X-96153975Y-38014100D02*
X-96225404Y-38085528D01*
X-96225404Y-38085528D02*
X-96296832Y-38014100D01*
X-96296832Y-38014100D02*
X-96225404Y-37942671D01*
X-96225404Y-37942671D02*
X-96225404Y-38085528D01*
D10*
X-94994200Y-48907200D02*
X-94994200Y-51907200D01*
X-30994200Y-48907200D02*
X-30994200Y-55407200D01*
D13*
%TO.P,J9,1,Pin_1_1*%
%TO.N,3V3*%
X-58449000Y55299000D03*
D14*
%TO.P,J9,2,Pin_2_2*%
%TO.N,GND*%
X-59449000Y55299000D03*
%TD*%
D15*
%TO.P,R3,1*%
%TO.N,Net-(J1-SHIELD)*%
X-76649000Y68161500D03*
%TO.P,R3,2*%
%TO.N,GND*%
X-76649000Y66436500D03*
%TD*%
D16*
%TO.P,C8,1*%
%TO.N,GND*%
X-64129000Y37799000D03*
%TO.P,C8,2*%
%TO.N,Net-(U3-VDDA)*%
X-63169000Y37799000D03*
%TD*%
D17*
%TO.P,C13,1*%
%TO.N,3V3*%
X-63249000Y58049000D03*
%TO.P,C13,2*%
%TO.N,GND*%
X-63249000Y56149000D03*
%TD*%
D18*
%TO.P,U1,1,I/O1_1*%
%TO.N,D+*%
X-68811500Y60711500D03*
%TO.P,U1,2,GND_2*%
%TO.N,GND*%
X-67861500Y60711500D03*
%TO.P,U1,3,I/O2_3*%
%TO.N,D-*%
X-66911500Y60711500D03*
%TO.P,U1,4,I/O2_4*%
%TO.N,USB D-*%
X-66911500Y62986500D03*
%TO.P,U1,5,VBUS_5*%
%TO.N,VBUS*%
X-67861500Y62986500D03*
%TO.P,U1,6,I/O1_6*%
%TO.N,USB D+*%
X-68811500Y62986500D03*
%TD*%
D19*
%TO.P,C5,1*%
%TO.N,Net-(C5-Pad1)*%
X-60149000Y50819000D03*
%TO.P,C5,2*%
%TO.N,3V3*%
X-60149000Y51779000D03*
%TD*%
D17*
%TO.P,C12,1*%
%TO.N,VBUS*%
X-63649000Y63149000D03*
%TO.P,C12,2*%
%TO.N,GND*%
X-63649000Y61249000D03*
%TD*%
D19*
%TO.P,C10,1*%
%TO.N,RST*%
X-65149000Y37819000D03*
%TO.P,C10,2*%
%TO.N,GND*%
X-65149000Y38779000D03*
%TD*%
D20*
%TO.P,J2,1,VCC_1*%
%TO.N,3V3*%
X-76419000Y34064000D03*
%TO.P,J2,2,SWDIO_2*%
%TO.N,Net-(J2-SWDIO)*%
X-76419000Y35334000D03*
%TO.P,J2,3,~{RST}_3*%
%TO.N,RST*%
X-75149000Y34064000D03*
%TO.P,J2,4,SWCLK_4*%
%TO.N,Net-(J2-SWCLK)*%
X-75149000Y35334000D03*
%TO.P,J2,5,GND_5*%
%TO.N,GND*%
X-73879000Y34064000D03*
%TO.P,J2,6,SWO_6*%
%TO.N,Net-(J2-SWO)*%
X-73879000Y35334000D03*
%TD*%
D21*
%TO.P,R2,1*%
%TO.N,Net-(J1-CC2)*%
X-61649000Y68309000D03*
%TO.P,R2,2*%
%TO.N,GND*%
X-61649000Y67289000D03*
%TD*%
D22*
%TO.P,FB1,1*%
%TO.N,3V3*%
X-60149000Y35509000D03*
%TO.P,FB1,2*%
%TO.N,Net-(U3-VDDA)*%
X-60149000Y37089000D03*
%TD*%
D23*
%TO.P,C15,1*%
%TO.N,GND*%
X-58249000Y51274000D03*
%TO.P,C15,2*%
%TO.N,Net-(U3-VCAP_1)*%
X-58249000Y49724000D03*
%TD*%
D24*
%TO.P,U3,1,VBAT_1*%
%TO.N,Net-(U3-VBAT)*%
X-69649000Y40449000D03*
%TO.P,U3,2,PC13_2*%
%TO.N,2*%
X-69149000Y40449000D03*
%TO.P,U3,3,PC14_3*%
%TO.N,3*%
X-68649000Y40449000D03*
%TO.P,U3,4,PC15_4*%
%TO.N,4*%
X-68149000Y40449000D03*
%TO.P,U3,5,PH0_5*%
%TO.N,OSC_IN*%
X-67649000Y40449000D03*
%TO.P,U3,6,PH1_6*%
%TO.N,OSC_OUT*%
X-67149000Y40449000D03*
%TO.P,U3,7,NRST_7*%
%TO.N,RST*%
X-66649000Y40449000D03*
%TO.P,U3,8,PC0_8*%
%TO.N,8*%
X-66149000Y40449000D03*
%TO.P,U3,9,PC1_9*%
%TO.N,9*%
X-65649000Y40449000D03*
%TO.P,U3,10,PC2_10*%
%TO.N,10*%
X-65149000Y40449000D03*
%TO.P,U3,11,PC3_11*%
%TO.N,11*%
X-64649000Y40449000D03*
%TO.P,U3,12,VSSA_12*%
%TO.N,GND*%
X-64149000Y40449000D03*
%TO.P,U3,13,VDDA_13*%
%TO.N,Net-(U3-VDDA)*%
X-63649000Y40449000D03*
%TO.P,U3,14,PA0_14*%
%TO.N,UART TX*%
X-63149000Y40449000D03*
%TO.P,U3,15,PA1_15*%
%TO.N,UART RX*%
X-62649000Y40449000D03*
%TO.P,U3,16,PA2_16*%
%TO.N,Recep Control*%
X-62149000Y40449000D03*
D25*
%TO.P,U3,17,PA3_17*%
%TO.N,17*%
X-60224000Y42374000D03*
%TO.P,U3,18,VSS_18*%
%TO.N,GND*%
X-60224000Y42874000D03*
%TO.P,U3,19,VDD_19*%
%TO.N,Net-(C4-Pad1)*%
X-60224000Y43374000D03*
%TO.P,U3,20,PA4_20*%
%TO.N,20*%
X-60224000Y43874000D03*
%TO.P,U3,21,PA5_21*%
%TO.N,21*%
X-60224000Y44374000D03*
%TO.P,U3,22,PA6_22*%
%TO.N,22*%
X-60224000Y44874000D03*
%TO.P,U3,23,PA7_23*%
%TO.N,23*%
X-60224000Y45374000D03*
%TO.P,U3,24,PC4_24*%
%TO.N,24*%
X-60224000Y45874000D03*
%TO.P,U3,25,PC5_25*%
%TO.N,25*%
X-60224000Y46374000D03*
%TO.P,U3,26,PB0_26*%
%TO.N,26*%
X-60224000Y46874000D03*
%TO.P,U3,27,PB1_27*%
%TO.N,27*%
X-60224000Y47374000D03*
%TO.P,U3,28,PB2_28*%
%TO.N,28*%
X-60224000Y47874000D03*
%TO.P,U3,29,PB10_29*%
%TO.N,29*%
X-60224000Y48374000D03*
%TO.P,U3,30,PB11_30*%
%TO.N,30*%
X-60224000Y48874000D03*
%TO.P,U3,31,VCAP_1_31*%
%TO.N,Net-(U3-VCAP_1)*%
X-60224000Y49374000D03*
%TO.P,U3,32,VDD_32*%
%TO.N,Net-(C5-Pad1)*%
X-60224000Y49874000D03*
D24*
%TO.P,U3,33,PB12_33*%
%TO.N,33*%
X-62149000Y51799000D03*
%TO.P,U3,34,PB13_34*%
%TO.N,34*%
X-62649000Y51799000D03*
%TO.P,U3,35,PB14_35*%
%TO.N,35*%
X-63149000Y51799000D03*
%TO.P,U3,36,PB15_36*%
%TO.N,36*%
X-63649000Y51799000D03*
%TO.P,U3,37,PC6_37*%
%TO.N,37*%
X-64149000Y51799000D03*
%TO.P,U3,38,PC7_38*%
%TO.N,38*%
X-64649000Y51799000D03*
%TO.P,U3,39,PC8_39*%
%TO.N,39*%
X-65149000Y51799000D03*
%TO.P,U3,40,PC9_40*%
%TO.N,40*%
X-65649000Y51799000D03*
%TO.P,U3,41,PA8_41*%
%TO.N,41*%
X-66149000Y51799000D03*
%TO.P,U3,42,PA9_42*%
%TO.N,42*%
X-66649000Y51799000D03*
%TO.P,U3,43,PA10_43*%
%TO.N,43*%
X-67149000Y51799000D03*
%TO.P,U3,44,PA11_44*%
%TO.N,D-*%
X-67649000Y51799000D03*
%TO.P,U3,45,PA12_45*%
%TO.N,D+*%
X-68149000Y51799000D03*
%TO.P,U3,46,PA13_46*%
%TO.N,Net-(J2-SWDIO)*%
X-68649000Y51799000D03*
%TO.P,U3,47,VCAP_2_47*%
%TO.N,Net-(U3-VCAP_2)*%
X-69149000Y51799000D03*
%TO.P,U3,48,VDD_48*%
%TO.N,Net-(C6-Pad1)*%
X-69649000Y51799000D03*
D25*
%TO.P,U3,49,PA14_49*%
%TO.N,Net-(J2-SWCLK)*%
X-71574000Y49874000D03*
%TO.P,U3,50,PA15_50*%
%TO.N,50*%
X-71574000Y49374000D03*
%TO.P,U3,51,PC10_51*%
%TO.N,51*%
X-71574000Y48874000D03*
%TO.P,U3,52,PC11_52*%
%TO.N,52*%
X-71574000Y48374000D03*
%TO.P,U3,53,PC12_53*%
%TO.N,53*%
X-71574000Y47874000D03*
%TO.P,U3,54,PD2_54*%
%TO.N,54*%
X-71574000Y47374000D03*
%TO.P,U3,55,PB3_55*%
%TO.N,Net-(J2-SWO)*%
X-71574000Y46874000D03*
%TO.P,U3,56,PB4_56*%
%TO.N,56*%
X-71574000Y46374000D03*
%TO.P,U3,57,PB5_57*%
%TO.N,57*%
X-71574000Y45874000D03*
%TO.P,U3,58,PB6_58*%
%TO.N,58*%
X-71574000Y45374000D03*
%TO.P,U3,59,PB7_59*%
%TO.N,59*%
X-71574000Y44874000D03*
%TO.P,U3,60,BOOT0_60*%
%TO.N,Net-(U3-BOOT0)*%
X-71574000Y44374000D03*
%TO.P,U3,61,PB8_61*%
%TO.N,61*%
X-71574000Y43874000D03*
%TO.P,U3,62,PB9_62*%
%TO.N,62*%
X-71574000Y43374000D03*
%TO.P,U3,63,VSS_63*%
%TO.N,GND*%
X-71574000Y42874000D03*
%TO.P,U3,64,VDD_64*%
%TO.N,Net-(C7-Pad1)*%
X-71574000Y42374000D03*
%TD*%
D13*
%TO.P,J8,1,Pin_1_1*%
%TO.N,3V3*%
X-60449000Y33499000D03*
D14*
%TO.P,J8,2,Pin_2_2*%
%TO.N,GND*%
X-61449000Y33499000D03*
%TD*%
D13*
%TO.P,J6,1,Pin_1_1*%
%TO.N,33*%
X-56249000Y54299000D03*
D14*
%TO.P,J6,2,Pin_2_2*%
%TO.N,34*%
X-56249000Y53299000D03*
%TO.P,J6,3,Pin_3_3*%
%TO.N,35*%
X-56249000Y52299000D03*
%TO.P,J6,4,Pin_4_4*%
%TO.N,36*%
X-56249000Y51299000D03*
%TO.P,J6,5,Pin_5_5*%
%TO.N,30*%
X-56249000Y50299000D03*
%TO.P,J6,6,Pin_6_6*%
%TO.N,29*%
X-56249000Y49299000D03*
%TO.P,J6,7,Pin_7_7*%
%TO.N,28*%
X-56249000Y48299000D03*
%TO.P,J6,8,Pin_8_8*%
%TO.N,27*%
X-56249000Y47299000D03*
%TO.P,J6,9,Pin_9_9*%
%TO.N,26*%
X-56249000Y46299000D03*
%TO.P,J6,10,Pin_10_10*%
%TO.N,25*%
X-56249000Y45299000D03*
%TO.P,J6,11,Pin_11_11*%
%TO.N,24*%
X-56249000Y44299000D03*
%TO.P,J6,12,Pin_12_12*%
%TO.N,23*%
X-56249000Y43299000D03*
%TO.P,J6,13,Pin_13_13*%
%TO.N,22*%
X-56249000Y42299000D03*
%TO.P,J6,14,Pin_14_14*%
%TO.N,21*%
X-56249000Y41299000D03*
%TO.P,J6,15,Pin_15_15*%
%TO.N,20*%
X-56249000Y40299000D03*
%TO.P,J6,16,Pin_16_16*%
%TO.N,17*%
X-56249000Y39299000D03*
%TO.P,J6,17,Pin_17_17*%
%TO.N,Recep Control*%
X-56249000Y38299000D03*
%TO.P,J6,18,Pin_18_18*%
%TO.N,UART RX*%
X-56249000Y37299000D03*
%TO.P,J6,19,Pin_19_19*%
%TO.N,UART TX*%
X-56249000Y36299000D03*
%TO.P,J6,20,Pin_20_20*%
%TO.N,11*%
X-56249000Y35299000D03*
%TO.P,J6,21,Pin_21_21*%
%TO.N,10*%
X-56249000Y34299000D03*
%TO.P,J6,22,Pin_22_22*%
%TO.N,9*%
X-56249000Y33299000D03*
%TD*%
D16*
%TO.P,C4,1*%
%TO.N,Net-(C4-Pad1)*%
X-58729000Y42699000D03*
%TO.P,C4,2*%
%TO.N,3V3*%
X-57769000Y42699000D03*
%TD*%
D26*
%TO.P,C16,1*%
%TO.N,Net-(U3-VCAP_2)*%
X-70149000Y54024000D03*
%TO.P,C16,2*%
%TO.N,GND*%
X-70149000Y55574000D03*
%TD*%
D27*
%TO.P,J1,A1,GND_A1*%
%TO.N,GND*%
X-64899000Y65449000D03*
%TO.P,J1,A4,VBUS_A4*%
%TO.N,VBUS*%
X-65749000Y65449000D03*
%TO.P,J1,A5,CC1_A5*%
%TO.N,Net-(J1-CC1)*%
X-66599000Y65449000D03*
%TO.P,J1,A6,D+_A6*%
%TO.N,USB D+*%
X-67449000Y65449000D03*
%TO.P,J1,A7,D-_A7*%
%TO.N,USB D-*%
X-68299000Y65449000D03*
%TO.P,J1,A8,SBU1_A8*%
%TO.N,unconnected-(J1-SBU1-PadA8)*%
X-69149000Y65449000D03*
%TO.P,J1,A9,VBUS_A9*%
%TO.N,VBUS*%
X-69999000Y65449000D03*
%TO.P,J1,A12,GND_A12*%
%TO.N,GND*%
X-70849000Y65449000D03*
%TO.P,J1,B1,GND_B1*%
X-70849000Y66799000D03*
%TO.P,J1,B4,VBUS_B4*%
%TO.N,VBUS*%
X-69999000Y66799000D03*
%TO.P,J1,B5,CC2_B5*%
%TO.N,Net-(J1-CC2)*%
X-69149000Y66799000D03*
%TO.P,J1,B6,D+_B6*%
%TO.N,USB D+*%
X-68299000Y66799000D03*
%TO.P,J1,B7,D-_B7*%
%TO.N,USB D-*%
X-67449000Y66799000D03*
%TO.P,J1,B8,SBU2_B8*%
%TO.N,unconnected-(J1-SBU2-PadB8)*%
X-66599000Y66799000D03*
%TO.P,J1,B9,VBUS_B9*%
%TO.N,VBUS*%
X-65749000Y66799000D03*
%TO.P,J1,B12,GND_B12*%
%TO.N,GND*%
X-64899000Y66799000D03*
D28*
%TO.P,J1,SH,SHIELD_SH*%
%TO.N,Net-(J1-SHIELD)*%
X-63549000Y66429000D03*
D29*
X-63549000Y69809000D03*
D28*
X-72199000Y66429000D03*
D29*
X-72199000Y69809000D03*
%TD*%
D30*
%TO.P,R4,1*%
%TO.N,GND*%
X-74049000Y43814000D03*
%TO.P,R4,2*%
%TO.N,Net-(U3-BOOT0)*%
X-74049000Y44834000D03*
%TD*%
D13*
%TO.P,J4,1,Pin_1_1*%
%TO.N,37*%
X-76649000Y61699000D03*
D14*
%TO.P,J4,2,Pin_2_2*%
%TO.N,38*%
X-76649000Y60699000D03*
%TO.P,J4,3,Pin_3_3*%
%TO.N,39*%
X-76649000Y59699000D03*
%TO.P,J4,4,Pin_4_4*%
%TO.N,40*%
X-76649000Y58699000D03*
%TO.P,J4,5,Pin_5_5*%
%TO.N,41*%
X-76649000Y57699000D03*
%TO.P,J4,6,Pin_6_6*%
%TO.N,42*%
X-76649000Y56699000D03*
%TO.P,J4,7,Pin_7_7*%
%TO.N,43*%
X-76649000Y55699000D03*
%TO.P,J4,8,Pin_8_8*%
%TO.N,50*%
X-76649000Y54699000D03*
%TO.P,J4,9,Pin_9_9*%
%TO.N,51*%
X-76649000Y53699000D03*
%TO.P,J4,10,Pin_10_10*%
%TO.N,52*%
X-76649000Y52699000D03*
%TO.P,J4,11,Pin_11_11*%
%TO.N,53*%
X-76649000Y51699000D03*
%TO.P,J4,12,Pin_12_12*%
%TO.N,54*%
X-76649000Y50699000D03*
%TO.P,J4,13,Pin_13_13*%
%TO.N,56*%
X-76649000Y49699000D03*
%TO.P,J4,14,Pin_14_14*%
%TO.N,57*%
X-76649000Y48699000D03*
%TO.P,J4,15,Pin_15_15*%
%TO.N,58*%
X-76649000Y47699000D03*
%TO.P,J4,16,Pin_16_16*%
%TO.N,59*%
X-76649000Y46699000D03*
%TD*%
D31*
%TO.P,U2,1,GND_1*%
%TO.N,GND*%
X-56349000Y64049000D03*
%TO.P,U2,2,VO_2*%
%TO.N,3V3*%
X-58649000Y64049000D03*
D32*
X-58649000Y57749000D03*
D31*
%TO.P,U2,3,VI_3*%
%TO.N,VBUS*%
X-60949000Y64049000D03*
%TD*%
D33*
%TO.P,C14,1*%
%TO.N,Net-(C14-Pad1)*%
X-67169000Y33799000D03*
%TO.P,C14,2*%
%TO.N,GND*%
X-68129000Y33799000D03*
%TD*%
D34*
%TO.P,SW2,1,1_1*%
%TO.N,3V3*%
X-76199000Y41424000D03*
%TO.P,SW2,2,2_2*%
%TO.N,Net-(U3-BOOT0)*%
X-76199000Y44824000D03*
%TD*%
D19*
%TO.P,C6,1*%
%TO.N,Net-(C6-Pad1)*%
X-70649000Y51799000D03*
%TO.P,C6,2*%
%TO.N,3V3*%
X-70649000Y52759000D03*
%TD*%
D35*
%TO.P,X1,1,OSC_1*%
%TO.N,OSC_OUT*%
X-67549000Y36599000D03*
%TO.P,X1,2,GND_2*%
%TO.N,Net-(C11-Pad1)*%
X-69749000Y36599000D03*
%TO.P,X1,3,OSC_3*%
%TO.N,OSC_IN*%
X-69749000Y34999000D03*
%TO.P,X1,4,GND_4*%
%TO.N,Net-(C14-Pad1)*%
X-67549000Y34999000D03*
%TD*%
D36*
%TO.P,C9,1*%
%TO.N,GND*%
X-74649000Y65236500D03*
%TO.P,C9,2*%
%TO.N,Net-(J1-SHIELD)*%
X-74649000Y68361500D03*
%TD*%
D37*
%TO.P,C11,1*%
%TO.N,Net-(C11-Pad1)*%
X-71049000Y36279000D03*
%TO.P,C11,2*%
%TO.N,GND*%
X-71049000Y35319000D03*
%TD*%
D30*
%TO.P,R1,1*%
%TO.N,GND*%
X-65449000Y62789000D03*
%TO.P,R1,2*%
%TO.N,Net-(J1-CC1)*%
X-65449000Y63809000D03*
%TD*%
D33*
%TO.P,C3,1*%
%TO.N,Net-(U3-VBAT)*%
X-70519000Y39799000D03*
%TO.P,C3,2*%
%TO.N,3V3*%
X-71479000Y39799000D03*
%TD*%
%TO.P,C7,1*%
%TO.N,Net-(C7-Pad1)*%
X-71669000Y41299000D03*
%TO.P,C7,2*%
%TO.N,3V3*%
X-72629000Y41299000D03*
%TD*%
D23*
%TO.P,C1,1*%
%TO.N,Net-(U3-VDDA)*%
X-61649000Y37074000D03*
%TO.P,C1,2*%
%TO.N,GND*%
X-61649000Y35524000D03*
%TD*%
D19*
%TO.P,C2,1*%
%TO.N,GND*%
X-64849000Y57419000D03*
%TO.P,C2,2*%
%TO.N,3V3*%
X-64849000Y58379000D03*
%TD*%
D13*
%TO.P,J5,1,Pin_1_1*%
%TO.N,VBUS*%
X-58649000Y70299000D03*
D14*
%TO.P,J5,2,Pin_2_2*%
%TO.N,GND*%
X-57649000Y70299000D03*
%TD*%
D13*
%TO.P,J3,1,Pin_1_1*%
%TO.N,61*%
X-77649000Y39099000D03*
D14*
%TO.P,J3,2,Pin_2_2*%
%TO.N,62*%
X-76649000Y39099000D03*
%TO.P,J3,3,Pin_3_3*%
%TO.N,2*%
X-75649000Y39099000D03*
%TO.P,J3,4,Pin_4_4*%
%TO.N,3*%
X-74649000Y39099000D03*
%TO.P,J3,5,Pin_5_5*%
%TO.N,4*%
X-73649000Y39099000D03*
%TD*%
D34*
%TO.P,SW1,1,1_1*%
%TO.N,GND*%
X-64149000Y33099000D03*
%TO.P,SW1,2,2_2*%
%TO.N,RST*%
X-64149000Y36499000D03*
%TD*%
D13*
%TO.P,J7,1,Pin_1_1*%
%TO.N,VBUS*%
X-76449000Y70499000D03*
D14*
%TO.P,J7,2,Pin_2_2*%
%TO.N,GND*%
X-75449000Y70499000D03*
%TD*%
D38*
%TO.N,3V3*%
X-72149000Y39799000D03*
X-60849000Y51899000D03*
X-57149000Y55799000D03*
X-76249000Y42499000D03*
X-58049000Y43499000D03*
X-60449000Y34499000D03*
X-59249000Y33299000D03*
X-71649000Y52699000D03*
X-76749000Y33099000D03*
X-65849000Y58299000D03*
X-73461235Y41038238D03*
%TO.N,GND*%
X-74649000Y63799000D03*
X-63049000Y55099000D03*
X-70149000Y32799000D03*
X-66149000Y37699000D03*
X-69149000Y37799000D03*
X-61649000Y66299000D03*
X-74249000Y70499000D03*
X-65049000Y61299000D03*
X-70049000Y37799000D03*
X-66314591Y34499000D03*
X-64849000Y56499000D03*
X-64249000Y38699000D03*
X-71149000Y33799000D03*
X-59249000Y50899000D03*
X-64149000Y34199000D03*
X-74349000Y33399000D03*
X-66539470Y38208530D03*
X-67861500Y59511500D03*
X-60849000Y55299000D03*
X-68349000Y38299000D03*
X-69149000Y33799000D03*
X-70049000Y42899000D03*
X-76649000Y65299000D03*
X-71051835Y37156087D03*
X-61649000Y42299000D03*
X-71749000Y34699000D03*
X-68249000Y32799000D03*
X-65449000Y61899000D03*
X-64249000Y64899000D03*
X-75189000Y43814000D03*
X-56349000Y61699000D03*
X-71149000Y67799000D03*
X-66814591Y32799000D03*
X-63049000Y35299000D03*
X-66314591Y35299000D03*
X-70932961Y34494496D03*
X-66314591Y36499000D03*
X-56449000Y70299000D03*
X-64849000Y67800000D03*
X-71449000Y64699000D03*
X-62849000Y34099000D03*
X-66314591Y33399000D03*
X-70249000Y56799000D03*
%TO.N,VBUS*%
X-67861500Y61911500D03*
%TO.N,USB D+*%
X-68249000Y64299000D03*
%TO.N,RST*%
X-75149000Y33099000D03*
X-65549000Y36099000D03*
%TO.N,Net-(J2-SWDIO)*%
X-76449000Y36199000D03*
X-69446810Y50538035D03*
%TO.N,Net-(J2-SWCLK)*%
X-67449000Y48699000D03*
X-75149000Y36499000D03*
%TO.N,Net-(J2-SWO)*%
X-67849000Y44299000D03*
X-73849000Y36199000D03*
%TO.N,9*%
X-65742643Y41886110D03*
%TO.N,10*%
X-64942778Y41900974D03*
%TO.N,11*%
X-64128412Y41778412D03*
%TO.N,20*%
X-61649000Y43699000D03*
%TO.N,21*%
X-61649000Y44499000D03*
%TO.N,22*%
X-61498952Y45284805D03*
%TO.N,24*%
X-61462840Y46094246D03*
%TO.N,30*%
X-61649000Y49099000D03*
%TO.N,35*%
X-62649000Y54099000D03*
%TO.N,36*%
X-62649000Y49699000D03*
%TO.N,37*%
X-73049000Y61699000D03*
X-63423265Y49024735D03*
%TO.N,38*%
X-64518402Y49219873D03*
X-73849000Y60699000D03*
%TO.N,39*%
X-74049000Y59699000D03*
X-65372936Y48896274D03*
%TO.N,40*%
X-65849000Y49539211D03*
X-73849000Y58099000D03*
%TO.N,41*%
X-74649000Y57299000D03*
X-66649000Y49839655D03*
%TO.N,42*%
X-67448925Y49850545D03*
X-75249000Y56299000D03*
%TO.N,53*%
X-70049000Y48299000D03*
%TO.N,54*%
X-72894862Y47453138D03*
%TO.N,57*%
X-70249000Y46099000D03*
%TO.N,58*%
X-72949000Y45799000D03*
%TD*%
%TO.N,3V3*%
D39*
X-76419000Y33429000D02*
X-76749000Y33099000D01*
D40*
X-63579000Y58379000D02*
X-62949000Y57749000D01*
D39*
X-76249000Y42499000D02*
X-76249000Y41474000D01*
X-72921997Y41038238D02*
X-72648000Y41312235D01*
D40*
X-60249000Y33299000D02*
X-60449000Y33499000D01*
D39*
X-57769000Y43219000D02*
X-58049000Y43499000D01*
X-70709000Y52699000D02*
X-70649000Y52759000D01*
X-71479000Y39799000D02*
X-72149000Y39799000D01*
X-60269000Y51899000D02*
X-60149000Y51779000D01*
D41*
X-58649000Y64049000D02*
X-58649000Y57749000D01*
D39*
X-60849000Y51899000D02*
X-60269000Y51899000D01*
X-76249000Y41474000D02*
X-76199000Y41424000D01*
D40*
X-64849000Y58379000D02*
X-65769000Y58379000D01*
D39*
X-60449000Y34499000D02*
X-60149000Y34799000D01*
X-57769000Y42699000D02*
X-57769000Y43219000D01*
D40*
X-62949000Y57749000D02*
X-58649000Y57749000D01*
X-59249000Y33299000D02*
X-60249000Y33299000D01*
D39*
X-73461235Y41038238D02*
X-72921997Y41038238D01*
X-76419000Y34064000D02*
X-76419000Y33429000D01*
X-71649000Y52699000D02*
X-70709000Y52699000D01*
D40*
X-64849000Y58379000D02*
X-63579000Y58379000D01*
D39*
X-72648000Y41312235D02*
X-72642235Y41312235D01*
D40*
X-65769000Y58379000D02*
X-65849000Y58299000D01*
D39*
X-60149000Y34799000D02*
X-60149000Y35509000D01*
X-72642235Y41312235D02*
X-72629000Y41299000D01*
%TO.N,GND*%
X-66314591Y33399000D02*
X-66314591Y33299000D01*
X-68349000Y38299000D02*
X-68649000Y38299000D01*
X-65449000Y62789000D02*
X-65449000Y61899000D01*
X-68649000Y38299000D02*
X-69149000Y37799000D01*
X-64249000Y64899000D02*
X-64349000Y64899000D01*
X-58449000Y51274000D02*
X-58874000Y51274000D01*
X-58874000Y51274000D02*
X-59249000Y50899000D01*
X-64999000Y61249000D02*
X-65049000Y61299000D01*
X-66149000Y37699000D02*
X-66149000Y36664591D01*
X-70408922Y37799000D02*
X-71051835Y37156087D01*
X-70949000Y35219000D02*
X-71049000Y35319000D01*
X-74349000Y33399000D02*
X-73879000Y33869000D01*
X-64249000Y38699000D02*
X-64129000Y38579000D01*
X-66314591Y35299000D02*
X-66314591Y36499000D01*
X-64899000Y65449000D02*
X-64899000Y66799000D01*
X-62924000Y35424000D02*
X-61749000Y35424000D01*
X-71574000Y42874000D02*
X-70074000Y42874000D01*
D41*
X-63249000Y55299000D02*
X-63049000Y55099000D01*
D39*
X-70849000Y66799000D02*
X-70849000Y67499000D01*
X-64149000Y40449000D02*
X-64149000Y38799000D01*
D40*
X-61449000Y33499000D02*
X-62249000Y33499000D01*
D39*
X-67861500Y60711500D02*
X-67861500Y59511500D01*
X-64899000Y66799000D02*
X-64899000Y67750000D01*
X-68129000Y33799000D02*
X-69149000Y33799000D01*
X-70149000Y32799000D02*
X-68249000Y32799000D01*
X-70849000Y67499000D02*
X-71149000Y67799000D01*
X-70074000Y42874000D02*
X-70049000Y42899000D01*
X-63049000Y35299000D02*
X-62924000Y35424000D01*
X-61649000Y42299000D02*
X-61649000Y42449000D01*
D41*
X-63249000Y56149000D02*
X-63249000Y55299000D01*
D39*
X-64149000Y33099000D02*
X-64149000Y34199000D01*
X-64329000Y38779000D02*
X-65149000Y38779000D01*
X-70932961Y34494496D02*
X-70949000Y34510535D01*
X-68249000Y32799000D02*
X-66814591Y32799000D01*
D40*
X-62249000Y33499000D02*
X-62849000Y34099000D01*
D39*
X-64349000Y64899000D02*
X-64899000Y65449000D01*
X-71051835Y37156087D02*
X-71108047Y37156087D01*
X-61649000Y67289000D02*
X-61649000Y66299000D01*
X-70849000Y65449000D02*
X-70849000Y65299000D01*
X-64899000Y67750000D02*
X-64849000Y67800000D01*
X-75189000Y43814000D02*
X-74049000Y43814000D01*
D41*
X-64849000Y57419000D02*
X-64849000Y56499000D01*
D40*
X-56349000Y61699000D02*
X-56349000Y64049000D01*
D39*
X-70949000Y34510535D02*
X-70949000Y35219000D01*
X-61649000Y42449000D02*
X-61224000Y42874000D01*
X-73879000Y33869000D02*
X-73879000Y34064000D01*
X-66149000Y36664591D02*
X-66314591Y36499000D01*
X-71749000Y36515134D02*
X-71749000Y34699000D01*
X-61224000Y42874000D02*
X-60224000Y42874000D01*
X-64249000Y38699000D02*
X-64329000Y38779000D01*
X-71749000Y34399000D02*
X-71149000Y33799000D01*
X-76649000Y66436500D02*
X-76649000Y65299000D01*
X-70849000Y65299000D02*
X-71449000Y64699000D01*
X-64149000Y38799000D02*
X-64249000Y38699000D01*
X-66314591Y33299000D02*
X-66814591Y32799000D01*
X-70049000Y37799000D02*
X-70408922Y37799000D01*
X-70849000Y65449000D02*
X-70849000Y66799000D01*
X-61749000Y35424000D02*
X-61649000Y35524000D01*
X-71108047Y37156087D02*
X-71749000Y36515134D01*
X-66149000Y37818060D02*
X-66539470Y38208530D01*
X-69149000Y37799000D02*
X-70049000Y37799000D01*
X-70149000Y32799000D02*
X-71149000Y33799000D01*
X-64129000Y38579000D02*
X-64129000Y37799000D01*
X-66314591Y34499000D02*
X-66314591Y33399000D01*
X-74649000Y65236500D02*
X-74649000Y63799000D01*
X-66149000Y37699000D02*
X-66149000Y37818060D01*
X-71749000Y34699000D02*
X-71749000Y34399000D01*
X-63649000Y61249000D02*
X-64999000Y61249000D01*
X-70149000Y55574000D02*
X-70149000Y56699000D01*
X-66314591Y34499000D02*
X-66314591Y35299000D01*
X-70149000Y56699000D02*
X-70249000Y56799000D01*
%TO.N,Net-(J1-SHIELD)*%
X-72199000Y66429000D02*
X-72199000Y69809000D01*
X-72199000Y69809000D02*
X-73201500Y69809000D01*
X-75086500Y68361500D02*
X-75286500Y68161500D01*
X-75286500Y68161500D02*
X-76649000Y68161500D01*
X-73201500Y69809000D02*
X-74649000Y68361500D01*
X-63549000Y69809000D02*
X-72199000Y69809000D01*
X-74649000Y68361500D02*
X-75086500Y68361500D01*
%TO.N,Net-(U3-VDDA)*%
X-61649000Y37074000D02*
X-60559000Y37074000D01*
X-62444000Y37074000D02*
X-61649000Y37074000D01*
X-60559000Y37074000D02*
X-60544000Y37089000D01*
X-63649000Y39431900D02*
X-63649000Y40449000D01*
X-63169000Y37799000D02*
X-62444000Y37074000D01*
X-63169000Y37799000D02*
X-63169000Y38951900D01*
X-60544000Y37089000D02*
X-60149000Y37089000D01*
X-63169000Y38951900D02*
X-63649000Y39431900D01*
%TO.N,D+*%
D42*
X-68462500Y59262557D02*
X-68110443Y58910500D01*
X-68124000Y52986501D02*
X-68149000Y52961501D01*
X-68086500Y58299000D02*
X-68124000Y58261500D01*
X-68110443Y58910500D02*
X-68086500Y58910500D01*
X-68086500Y58910500D02*
X-68086500Y58299000D01*
X-68811500Y60711500D02*
X-68811500Y59717749D01*
X-68149000Y52961501D02*
X-68149000Y51799000D01*
X-68462500Y59368749D02*
X-68462500Y59262557D01*
X-68811500Y59717749D02*
X-68462500Y59368749D01*
X-68124000Y58261500D02*
X-68124000Y52986501D01*
%TO.N,D-*%
X-67636500Y58910500D02*
X-67636500Y58126794D01*
X-67260500Y59262557D02*
X-67612557Y58910500D01*
X-67649000Y52961501D02*
X-67649000Y51799000D01*
X-67674000Y58089294D02*
X-67674000Y52986501D01*
X-66911500Y59717749D02*
X-67260500Y59368749D01*
X-67260500Y59368749D02*
X-67260500Y59262557D01*
X-66911500Y60711500D02*
X-66911500Y59717749D01*
X-67612557Y58910500D02*
X-67636500Y58910500D01*
X-67636500Y58126794D02*
X-67674000Y58089294D01*
X-67674000Y52986501D02*
X-67649000Y52961501D01*
%TO.N,USB D-*%
X-66911500Y63961500D02*
X-66911500Y62986500D01*
X-68299000Y65349000D02*
X-66911500Y63961500D01*
X-68299000Y65449000D02*
X-68299000Y65349000D01*
%TO.N,VBUS*%
D43*
X-62999000Y63149000D02*
X-62099000Y64049000D01*
D39*
X-67861500Y62986500D02*
X-67861500Y61911500D01*
D43*
X-62099000Y64049000D02*
X-60949000Y64049000D01*
X-63649000Y63149000D02*
X-62999000Y63149000D01*
X-65749000Y65449000D02*
X-65749000Y66799000D01*
X-63699000Y63149000D02*
X-63649000Y63149000D01*
X-65749000Y65199000D02*
X-64549000Y63999000D01*
X-64549000Y63999000D02*
X-63699000Y63149000D01*
D39*
X-67849000Y61899000D02*
X-67861500Y61911500D01*
D43*
X-65749000Y65449000D02*
X-65749000Y65199000D01*
X-69999000Y65449000D02*
X-69999000Y66799000D01*
%TO.N,USB D+*%
D42*
X-67449000Y65449000D02*
X-67449000Y65878346D01*
X-68299000Y66728346D02*
X-68299000Y66799000D01*
X-68249000Y64299000D02*
X-68811500Y63736500D01*
X-67449000Y65878346D02*
X-68299000Y66728346D01*
X-68811500Y63736500D02*
X-68811500Y62986500D01*
%TO.N,Net-(C5-Pad1)*%
D39*
X-60224000Y50744000D02*
X-60149000Y50819000D01*
X-60224000Y49873999D02*
X-60224000Y50744000D01*
%TO.N,RST*%
X-65149000Y37299000D02*
X-65549000Y36899000D01*
X-66649000Y40449000D02*
X-66649000Y39319000D01*
X-65149000Y35299000D02*
X-64649000Y35299000D01*
X-66649000Y39319000D02*
X-65149000Y37819000D01*
X-64649000Y35299000D02*
X-64149000Y35799000D01*
X-65149000Y37819000D02*
X-65149000Y37299000D01*
X-65549000Y35699000D02*
X-65149000Y35299000D01*
X-64149000Y35799000D02*
X-64149000Y36499000D01*
X-75149000Y32799000D02*
X-75149000Y34064000D01*
X-65549000Y36899000D02*
X-65549000Y35699000D01*
%TO.N,Net-(J2-SWDIO)*%
X-76449000Y35364000D02*
X-76419000Y35334000D01*
X-68649000Y50990176D02*
X-68649000Y51799000D01*
X-69101141Y50538035D02*
X-68649000Y50990176D01*
X-69446810Y50538035D02*
X-69101141Y50538035D01*
X-76449000Y36199000D02*
X-76449000Y35364000D01*
%TO.N,Net-(J2-SWCLK)*%
X-67449000Y48699000D02*
X-69549000Y48699000D01*
X-75149000Y36499000D02*
X-75149000Y35334000D01*
X-70723999Y49873999D02*
X-71574000Y49873999D01*
X-69549000Y48699000D02*
X-70723999Y49873999D01*
%TO.N,Net-(J2-SWO)*%
X-67849000Y44299000D02*
X-67849000Y44899000D01*
X-67849000Y44899000D02*
X-69824000Y46874000D01*
X-73849000Y35364000D02*
X-73879000Y35334000D01*
X-73849000Y36199000D02*
X-73849000Y35364000D01*
X-69824000Y46874000D02*
X-71574000Y46874000D01*
%TO.N,Net-(J1-CC2)*%
X-69149000Y66799000D02*
X-69149000Y67399000D01*
X-61740000Y68400000D02*
X-61649000Y68309000D01*
X-69149000Y67399000D02*
X-68148000Y68400000D01*
X-68148000Y68400000D02*
X-61740000Y68400000D01*
%TO.N,Net-(U3-VCAP_1)*%
X-58799000Y49374000D02*
X-58449000Y49724000D01*
X-60224000Y49374000D02*
X-58799000Y49374000D01*
X-58449000Y49724000D02*
X-58249000Y49724000D01*
%TO.N,Net-(U3-VBAT)*%
X-70169000Y39799000D02*
X-70519000Y39799000D01*
X-69648999Y40449000D02*
X-69648999Y40319001D01*
X-69648999Y40319001D02*
X-70169000Y39799000D01*
%TO.N,2*%
X-69149000Y41257825D02*
X-69416175Y41525000D01*
X-73938000Y40410000D02*
X-74249000Y40099000D01*
X-69149000Y40449000D02*
X-69149000Y41257825D01*
X-70505450Y41525000D02*
X-71620450Y40410000D01*
X-71620450Y40410000D02*
X-73938000Y40410000D01*
X-75250040Y40099000D02*
X-75649000Y39700040D01*
X-69416175Y41525000D02*
X-70505450Y41525000D01*
X-74249000Y40099000D02*
X-75250040Y40099000D01*
X-75649000Y39700040D02*
X-75649000Y39099000D01*
%TO.N,3*%
X-68649000Y39640176D02*
X-69190176Y39099000D01*
X-69190176Y39099000D02*
X-72622280Y39099000D01*
X-74649000Y39125720D02*
X-74649000Y39099000D01*
X-73949720Y39825000D02*
X-74649000Y39125720D01*
X-73348280Y39825000D02*
X-73949720Y39825000D01*
X-68649000Y40449000D02*
X-68649000Y39640176D01*
X-72622280Y39099000D02*
X-73348280Y39825000D01*
%TO.N,4*%
X-69148000Y38400000D02*
X-72950000Y38400000D01*
X-72950000Y38400000D02*
X-73649000Y39099000D01*
X-68149000Y40449000D02*
X-68149000Y39399000D01*
X-68149000Y39399000D02*
X-69148000Y38400000D01*
%TO.N,OSC_IN*%
X-67649000Y38085160D02*
X-68649000Y37085160D01*
X-68649000Y36099000D02*
X-69749000Y34999000D01*
X-67649000Y40449000D02*
X-67649000Y38085160D01*
X-68649000Y37085160D02*
X-68649000Y36099000D01*
%TO.N,OSC_OUT*%
X-67148999Y40449000D02*
X-67148999Y36999001D01*
X-67148999Y36999001D02*
X-67549000Y36599000D01*
%TO.N,9*%
X-65649000Y41792467D02*
X-65649000Y40449000D01*
X-65742643Y41886110D02*
X-65649000Y41792467D01*
%TO.N,10*%
X-65047026Y41900974D02*
X-65149000Y41799000D01*
X-65149000Y41799000D02*
X-65149000Y40449000D01*
X-64942778Y41900974D02*
X-65047026Y41900974D01*
%TO.N,11*%
X-64649001Y40449000D02*
X-64649001Y41257823D01*
X-64649001Y41257823D02*
X-64128412Y41778412D01*
%TO.N,UART TX*%
X-63149000Y39499000D02*
X-61749000Y38099000D01*
X-59849000Y38099000D02*
X-58049000Y36299000D01*
X-58049000Y36299000D02*
X-56249000Y36299000D01*
X-63149000Y40449000D02*
X-63149000Y39499000D01*
X-61749000Y38099000D02*
X-59849000Y38099000D01*
%TO.N,UART RX*%
X-58049000Y37299000D02*
X-56249000Y37299000D01*
X-59749000Y38999000D02*
X-58049000Y37299000D01*
X-61907825Y39299000D02*
X-61607825Y38999000D01*
X-61607825Y38999000D02*
X-59749000Y38999000D01*
X-62649000Y40449000D02*
X-62649000Y39640175D01*
X-62307825Y39299000D02*
X-61907825Y39299000D01*
X-62649000Y39640175D02*
X-62307825Y39299000D01*
%TO.N,Recep Control*%
X-57949000Y38299000D02*
X-56249000Y38299000D01*
X-62149001Y40449000D02*
X-60099000Y40449000D01*
X-60099000Y40449000D02*
X-57949000Y38299000D01*
%TO.N,17*%
X-60224000Y42374001D02*
X-60224000Y41674000D01*
X-57849000Y39299000D02*
X-56249000Y39299000D01*
X-60224000Y41674000D02*
X-57849000Y39299000D01*
%TO.N,Net-(C4-Pad1)*%
X-60224000Y43374000D02*
X-59404000Y43374000D01*
X-59404000Y43374000D02*
X-58729000Y42699000D01*
%TO.N,20*%
X-60224000Y43874000D02*
X-61474000Y43874000D01*
X-61474000Y43874000D02*
X-61649000Y43699000D01*
%TO.N,21*%
X-60224000Y44374000D02*
X-61524000Y44374000D01*
X-61524000Y44374000D02*
X-61649000Y44499000D01*
%TO.N,22*%
X-61032825Y44874001D02*
X-60224000Y44874001D01*
X-61493581Y45290176D02*
X-61449000Y45290176D01*
X-61498952Y45284805D02*
X-61493581Y45290176D01*
X-61449000Y45290176D02*
X-61032825Y44874001D01*
%TO.N,23*%
X-56816100Y43299000D02*
X-56249000Y43299000D01*
X-60224000Y45374000D02*
X-58891100Y45374000D01*
X-58891100Y45374000D02*
X-56816100Y43299000D01*
%TO.N,24*%
X-61224000Y45874000D02*
X-60224000Y45874000D01*
X-61458086Y46099000D02*
X-61449000Y46099000D01*
X-61462840Y46094246D02*
X-61458086Y46099000D01*
X-61449000Y46099000D02*
X-61224000Y45874000D01*
%TO.N,25*%
X-60224000Y46374000D02*
X-59124000Y46374000D01*
X-57049000Y45699000D02*
X-56649000Y45299000D01*
X-58449000Y45699000D02*
X-57049000Y45699000D01*
X-59124000Y46374000D02*
X-58449000Y45699000D01*
X-56649000Y45299000D02*
X-56249000Y45299000D01*
%TO.N,26*%
X-58016100Y46299000D02*
X-56249000Y46299000D01*
X-60224000Y46874000D02*
X-58591100Y46874000D01*
X-58591100Y46874000D02*
X-58016100Y46299000D01*
%TO.N,27*%
X-56323999Y47373999D02*
X-56249000Y47299000D01*
X-60224000Y47373999D02*
X-56323999Y47373999D01*
%TO.N,28*%
X-58874000Y47874000D02*
X-58449000Y48299000D01*
X-58449000Y48299000D02*
X-56249000Y48299000D01*
X-60224000Y47874000D02*
X-58874000Y47874000D01*
%TO.N,29*%
X-57249000Y48899000D02*
X-56849000Y49299000D01*
X-58849000Y48899000D02*
X-57249000Y48899000D01*
X-59374000Y48374000D02*
X-58849000Y48899000D01*
X-60224000Y48374000D02*
X-59374000Y48374000D01*
X-56849000Y49299000D02*
X-56249000Y49299000D01*
%TO.N,30*%
X-60224000Y48874000D02*
X-61424000Y48874000D01*
X-61424000Y48874000D02*
X-61649000Y49099000D01*
%TO.N,33*%
X-61449000Y54299000D02*
X-56249000Y54299000D01*
X-62149001Y51799000D02*
X-62149001Y53598999D01*
X-62149001Y53598999D02*
X-61449000Y54299000D01*
%TO.N,34*%
X-61449000Y50899000D02*
X-61449000Y52499000D01*
X-62649000Y51799000D02*
X-62649000Y50699000D01*
X-61449000Y52499000D02*
X-60649000Y53299000D01*
X-61849000Y50499000D02*
X-61449000Y50899000D01*
X-60649000Y53299000D02*
X-56249000Y53299000D01*
X-62449000Y50499000D02*
X-61849000Y50499000D01*
X-62649000Y50699000D02*
X-62449000Y50499000D01*
%TO.N,35*%
X-63149000Y53599000D02*
X-62649000Y54099000D01*
X-63149000Y51799000D02*
X-63149000Y53599000D01*
%TO.N,36*%
X-62849000Y49899000D02*
X-62649000Y49699000D01*
X-63649000Y50699000D02*
X-62849000Y49899000D01*
X-63649000Y51799000D02*
X-63649000Y50699000D01*
%TO.N,37*%
X-64149000Y49699000D02*
X-64149000Y51799000D01*
X-73049000Y61699000D02*
X-76649000Y61699000D01*
X-63423265Y49024735D02*
X-63474735Y49024735D01*
X-63474735Y49024735D02*
X-64149000Y49699000D01*
%TO.N,38*%
X-73849000Y60699000D02*
X-76649000Y60699000D01*
X-64649001Y49350472D02*
X-64649001Y51799000D01*
X-64518402Y49219873D02*
X-64649001Y49350472D01*
%TO.N,39*%
X-65372936Y48896274D02*
X-65149000Y49120210D01*
X-74049000Y59699000D02*
X-76649000Y59699000D01*
X-65149000Y49120210D02*
X-65149000Y51799000D01*
%TO.N,40*%
X-65789210Y49539211D02*
X-65649000Y49679421D01*
X-74449000Y58699000D02*
X-76649000Y58699000D01*
X-65849000Y49539211D02*
X-65789210Y49539211D01*
X-65649000Y49679421D02*
X-65649000Y51799000D01*
X-73849000Y58099000D02*
X-74449000Y58699000D01*
%TO.N,41*%
X-75049000Y57699000D02*
X-76649000Y57699000D01*
X-66649000Y49839655D02*
X-66508345Y49839655D01*
X-66149000Y50199000D02*
X-66149000Y51799000D01*
X-74649000Y57299000D02*
X-75049000Y57699000D01*
X-66508345Y49839655D02*
X-66149000Y50199000D01*
%TO.N,42*%
X-75249000Y56299000D02*
X-75649000Y56699000D01*
X-67448925Y49850545D02*
X-67448925Y49888257D01*
X-75649000Y56699000D02*
X-76649000Y56699000D01*
X-66649000Y50688182D02*
X-66649000Y51799000D01*
X-67448925Y49888257D02*
X-66649000Y50688182D01*
%TO.N,43*%
X-67148999Y51799000D02*
X-67148999Y50999001D01*
X-67198000Y50941176D02*
X-67416176Y50723000D01*
X-72249000Y52199000D02*
X-72249000Y54699000D01*
X-67148999Y50999001D02*
X-67198000Y50950000D01*
X-73249000Y55699000D02*
X-76649000Y55699000D01*
X-67198000Y50950000D02*
X-67198000Y50941176D01*
X-72249000Y54699000D02*
X-73249000Y55699000D01*
X-69949000Y49899000D02*
X-72249000Y52199000D01*
X-67425000Y50723000D02*
X-68249000Y49899000D01*
X-68249000Y49899000D02*
X-69949000Y49899000D01*
X-67416176Y50723000D02*
X-67425000Y50723000D01*
%TO.N,Net-(U3-VCAP_2)*%
X-69474000Y54024000D02*
X-70149000Y54024000D01*
X-69149000Y53699000D02*
X-69474000Y54024000D01*
X-69149000Y51799000D02*
X-69149000Y53699000D01*
%TO.N,Net-(C6-Pad1)*%
X-69648999Y51799000D02*
X-70649000Y51799000D01*
%TO.N,50*%
X-72382825Y49374000D02*
X-72849000Y49840175D01*
X-72849000Y49840175D02*
X-72849000Y54099000D01*
X-72849000Y54099000D02*
X-73449000Y54699000D01*
X-73449000Y54699000D02*
X-76649000Y54699000D01*
X-71574000Y49374000D02*
X-72382825Y49374000D01*
%TO.N,51*%
X-74449000Y53699000D02*
X-76649000Y53699000D01*
X-71574000Y48874000D02*
X-72824000Y48874000D01*
X-72824000Y48874000D02*
X-73849000Y49899000D01*
X-73849000Y53099000D02*
X-74449000Y53699000D01*
X-73849000Y49899000D02*
X-73849000Y53099000D01*
%TO.N,52*%
X-74849000Y49499000D02*
X-74849000Y51699000D01*
X-74849000Y51699000D02*
X-75849000Y52699000D01*
X-75849000Y52699000D02*
X-76649000Y52699000D01*
X-71574000Y48374000D02*
X-73724000Y48374000D01*
X-73724000Y48374000D02*
X-74849000Y49499000D01*
%TO.N,53*%
X-71574000Y47874000D02*
X-70474000Y47874000D01*
X-70474000Y47874000D02*
X-70049000Y48299000D01*
%TO.N,54*%
X-72815723Y47373999D02*
X-72894862Y47453138D01*
X-71574000Y47373999D02*
X-72815723Y47373999D01*
%TO.N,56*%
X-72724000Y46374000D02*
X-76049000Y49699000D01*
X-76049000Y49699000D02*
X-76649000Y49699000D01*
X-71574000Y46374000D02*
X-72724000Y46374000D01*
%TO.N,57*%
X-71574000Y45874000D02*
X-70474000Y45874000D01*
X-70474000Y45874000D02*
X-70249000Y46099000D01*
%TO.N,58*%
X-71574000Y45374000D02*
X-72524000Y45374000D01*
X-72524000Y45374000D02*
X-72949000Y45799000D01*
%TO.N,59*%
X-74849000Y46699000D02*
X-76649000Y46699000D01*
X-71574000Y44874001D02*
X-73024001Y44874001D01*
X-73024001Y44874001D02*
X-74849000Y46699000D01*
%TO.N,Net-(U3-BOOT0)*%
X-76189000Y44834000D02*
X-76199000Y44824000D01*
X-74049000Y44834000D02*
X-76189000Y44834000D01*
X-71574000Y44374000D02*
X-73524000Y44374000D01*
X-73984000Y44834000D02*
X-74049000Y44834000D01*
X-73524000Y44374000D02*
X-73984000Y44834000D01*
%TO.N,61*%
X-77649000Y41948943D02*
X-77649000Y39099000D01*
X-76497943Y43100000D02*
X-77649000Y41948943D01*
X-73048660Y43874000D02*
X-73822660Y43100000D01*
X-71574000Y43874000D02*
X-73048660Y43874000D01*
X-73822660Y43100000D02*
X-76497943Y43100000D01*
%TO.N,62*%
X-76049000Y40499000D02*
X-76649000Y39899000D01*
X-73049000Y42899000D02*
X-73049000Y42599000D01*
X-75149000Y40499000D02*
X-76049000Y40499000D01*
X-71574000Y43374000D02*
X-72574000Y43374000D01*
X-72574000Y43374000D02*
X-73049000Y42899000D01*
X-73049000Y42599000D02*
X-75149000Y40499000D01*
X-76649000Y39899000D02*
X-76649000Y39099000D01*
%TO.N,Net-(C7-Pad1)*%
X-71669000Y41299000D02*
X-71669000Y42279001D01*
X-71669000Y42279001D02*
X-71574000Y42374001D01*
%TO.N,Net-(J1-CC1)*%
X-65449000Y63809000D02*
X-66599000Y64959000D01*
X-66599000Y64959000D02*
X-66599000Y65449000D01*
%TO.N,Net-(C14-Pad1)*%
X-67169000Y34619000D02*
X-67549000Y34999000D01*
X-67169000Y33799000D02*
X-67169000Y34619000D01*
%TO.N,Net-(C11-Pad1)*%
X-70949000Y36379000D02*
X-70949000Y36279000D01*
X-70729000Y36599000D02*
X-70949000Y36379000D01*
X-69749000Y36599000D02*
X-70729000Y36599000D01*
%TD*%
M02*
