M48
; DRILL file KiCad 10.0.3 date 2026-08-05T23:26:48
; FORMAT={-:-/ absolute / metric / decimal}
; #@! TF.CreationDate,2026-08-05T23:26:48+08:00
; #@! TF.GenerationSoftware,Kicad,Pcbnew,10.0.3
; #@! TF.FileFunction,Plated,1,4,PTH
FMAT,2
METRIC
; #@! TA.AperFunction,Plated,PTH,ViaDrill
T1C0.300
; #@! TA.AperFunction,Plated,PTH,ComponentDrill
T2C0.400
; #@! TA.AperFunction,Plated,PTH,ComponentDrill
T3C0.500
; #@! TA.AperFunction,Plated,PTH,ComponentDrill
T4C0.600
%
G90
G05
T1
X-76.749Y33.099
X-76.649Y65.299
X-76.449Y36.199
X-76.249Y42.499
X-75.249Y56.299
X-75.189Y43.814
X-75.149Y36.499
X-75.149Y33.099
X-74.649Y63.799
X-74.649Y57.299
X-74.349Y33.399
X-74.249Y70.499
X-74.049Y59.699
X-73.849Y60.699
X-73.849Y58.099
X-73.849Y36.199
X-73.461Y41.038
X-73.049Y61.699
X-72.949Y45.799
X-72.895Y47.453
X-72.149Y39.799
X-71.749Y34.699
X-71.649Y52.699
X-71.449Y64.699
X-71.149Y67.799
X-71.149Y33.799
X-71.052Y37.156
X-70.933Y34.494
X-70.249Y56.799
X-70.249Y46.099
X-70.149Y32.799
X-70.049Y48.299
X-70.049Y42.899
X-70.049Y37.799
X-69.447Y50.538
X-69.149Y37.799
X-69.149Y33.799
X-68.349Y38.299
X-68.249Y64.299
X-68.249Y32.799
X-67.861Y61.911
X-67.861Y59.511
X-67.849Y44.299
X-67.449Y48.699
X-67.449Y49.851
X-66.815Y32.799
X-66.649Y49.84
X-66.539Y38.209
X-66.315Y36.499
X-66.315Y35.299
X-66.315Y34.499
X-66.315Y33.399
X-66.149Y37.699
X-65.849Y58.299
X-65.849Y49.539
X-65.743Y41.886
X-65.549Y36.099
X-65.449Y61.899
X-65.373Y48.896
X-65.049Y61.299
X-64.943Y41.901
X-64.849Y67.8
X-64.849Y56.499
X-64.518Y49.22
X-64.249Y64.899
X-64.249Y38.699
X-64.149Y34.199
X-64.128Y41.778
X-63.423Y49.025
X-63.049Y55.099
X-63.049Y35.299
X-62.849Y34.099
X-62.649Y54.099
X-62.649Y49.699
X-61.649Y66.299
X-61.649Y49.099
X-61.649Y44.499
X-61.649Y43.699
X-61.649Y42.299
X-61.499Y45.285
X-61.463Y46.094
X-60.849Y55.299
X-60.849Y51.899
X-60.449Y34.499
X-59.249Y50.899
X-59.249Y33.299
X-58.049Y43.499
X-57.149Y55.799
X-56.449Y70.299
X-56.349Y61.699
T2
X-70.849Y66.799
X-70.849Y65.449
X-69.999Y66.799
X-69.999Y65.449
X-69.149Y66.799
X-69.149Y65.449
X-68.299Y66.799
X-68.299Y65.449
X-67.449Y66.799
X-67.449Y65.449
X-66.599Y66.799
X-66.599Y65.449
X-65.749Y66.799
X-65.749Y65.449
X-64.899Y66.799
X-64.899Y65.449
T3
X-77.649Y39.099
X-76.649Y61.699
X-76.649Y60.699
X-76.649Y59.699
X-76.649Y58.699
X-76.649Y57.699
X-76.649Y56.699
X-76.649Y55.699
X-76.649Y54.699
X-76.649Y53.699
X-76.649Y52.699
X-76.649Y51.699
X-76.649Y50.699
X-76.649Y49.699
X-76.649Y48.699
X-76.649Y47.699
X-76.649Y46.699
X-76.649Y39.099
X-76.449Y70.499
X-75.649Y39.099
X-75.449Y70.499
X-74.649Y39.099
X-73.649Y39.099
X-61.449Y33.499
X-60.449Y33.499
X-59.449Y55.299
X-58.649Y70.299
X-58.449Y55.299
X-57.649Y70.299
X-56.249Y54.299
X-56.249Y53.299
X-56.249Y52.299
X-56.249Y51.299
X-56.249Y50.299
X-56.249Y49.299
X-56.249Y48.299
X-56.249Y47.299
X-56.249Y46.299
X-56.249Y45.299
X-56.249Y44.299
X-56.249Y43.299
X-56.249Y42.299
X-56.249Y41.299
X-56.249Y40.299
X-56.249Y39.299
X-56.249Y38.299
X-56.249Y37.299
X-56.249Y36.299
X-56.249Y35.299
X-56.249Y34.299
X-56.249Y33.299
T4
G00X-72.199Y69.409
M15
G01X-72.199Y70.209
M16
G05
G00X-72.199Y65.679
M15
G01X-72.199Y67.179
M16
G05
G00X-63.549Y69.409
M15
G01X-63.549Y70.209
M16
G05
G00X-63.549Y65.679
M15
G01X-63.549Y67.179
M16
G05
M30
